%TF.GenerationSoftware,KiCad,Pcbnew,(6.0.9)*%
%TF.CreationDate,2022-12-02T19:50:30+08:00*%
%TF.ProjectId,sharkpad rev2,73686172-6b70-4616-9420-726576322e6b,rev?*%
%TF.SameCoordinates,Original*%
%TF.FileFunction,Copper,L1,Top*%
%TF.FilePolarity,Positive*%
%FSLAX46Y46*%
G04 Gerber Fmt 4.6, Leading zero omitted, Abs format (unit mm)*
G04 Created by KiCad (PCBNEW (6.0.9)) date 2022-12-02 19:50:30*
%MOMM*%
%LPD*%
G01*
G04 APERTURE LIST*
G04 Aperture macros list*
%AMRoundRect*
0 Rectangle with rounded corners*
0 $1 Rounding radius*
0 $2 $3 $4 $5 $6 $7 $8 $9 X,Y pos of 4 corners*
0 Add a 4 corners polygon primitive as box body*
4,1,4,$2,$3,$4,$5,$6,$7,$8,$9,$2,$3,0*
0 Add four circle primitives for the rounded corners*
1,1,$1+$1,$2,$3*
1,1,$1+$1,$4,$5*
1,1,$1+$1,$6,$7*
1,1,$1+$1,$8,$9*
0 Add four rect primitives between the rounded corners*
20,1,$1+$1,$2,$3,$4,$5,0*
20,1,$1+$1,$4,$5,$6,$7,0*
20,1,$1+$1,$6,$7,$8,$9,0*
20,1,$1+$1,$8,$9,$2,$3,0*%
G04 Aperture macros list end*
%TA.AperFunction,ComponentPad*%
%ADD10C,2.000000*%
%TD*%
%TA.AperFunction,ComponentPad*%
%ADD11RoundRect,0.500000X-0.500000X-0.500000X0.500000X-0.500000X0.500000X0.500000X-0.500000X0.500000X0*%
%TD*%
%TA.AperFunction,ComponentPad*%
%ADD12RoundRect,0.550000X-1.150000X-0.550000X1.150000X-0.550000X1.150000X0.550000X-1.150000X0.550000X0*%
%TD*%
%TA.AperFunction,ComponentPad*%
%ADD13O,1.000000X1.600000*%
%TD*%
%TA.AperFunction,ComponentPad*%
%ADD14O,1.000000X2.100000*%
%TD*%
%TA.AperFunction,ComponentPad*%
%ADD15C,3.300000*%
%TD*%
%TA.AperFunction,ComponentPad*%
%ADD16C,0.500000*%
%TD*%
%TA.AperFunction,SMDPad,CuDef*%
%ADD17R,3.200000X3.200000*%
%TD*%
%TA.AperFunction,ViaPad*%
%ADD18C,1.000000*%
%TD*%
%TA.AperFunction,ViaPad*%
%ADD19C,0.800000*%
%TD*%
%TA.AperFunction,Conductor*%
%ADD20C,0.500000*%
%TD*%
%TA.AperFunction,Conductor*%
%ADD21C,0.200000*%
%TD*%
%TA.AperFunction,Conductor*%
%ADD22C,0.250000*%
%TD*%
G04 APERTURE END LIST*
D10*
%TO.P,SW7,A,A*%
%TO.N,/ROTA*%
X87000000Y-68900000D03*
%TO.P,SW7,B,B*%
%TO.N,/ROTB*%
X87000000Y-73900000D03*
D11*
%TO.P,SW7,C,C*%
%TO.N,GND*%
X87000000Y-71400000D03*
D12*
%TO.P,SW7,MP*%
%TO.N,N/C*%
X94500000Y-65800000D03*
X94500000Y-77000000D03*
D10*
%TO.P,SW7,S1,S1*%
%TO.N,Net-(D11-Pad2)*%
X101500000Y-73900000D03*
%TO.P,SW7,S2,S2*%
%TO.N,/COL3*%
X101500000Y-68900000D03*
%TD*%
%TO.P,SW6,1,1*%
%TO.N,/COL2*%
X141100000Y-100200000D03*
X134600000Y-100200000D03*
%TO.P,SW6,2,2*%
%TO.N,Net-(D3-Pad2)*%
X141100000Y-104700000D03*
X134600000Y-104700000D03*
%TD*%
%TO.P,SW2,1,1*%
%TO.N,/COL0*%
X115550000Y-100200000D03*
X122050000Y-100200000D03*
%TO.P,SW2,2,2*%
%TO.N,Net-(D10-Pad2)*%
X122050000Y-104700000D03*
X115550000Y-104700000D03*
%TD*%
%TO.P,SW4,1,1*%
%TO.N,/COL1*%
X131575000Y-100200000D03*
X125075000Y-100200000D03*
%TO.P,SW4,2,2*%
%TO.N,Net-(D7-Pad2)*%
X125075000Y-104700000D03*
X131575000Y-104700000D03*
%TD*%
D13*
%TO.P,J1,S1,SHIELD*%
%TO.N,unconnected-(J1-PadS1)*%
X109780000Y-57550000D03*
D14*
X118420000Y-61730000D03*
X109780000Y-61730000D03*
D13*
X118420000Y-57550000D03*
%TD*%
D15*
%TO.P,SW3,1,1*%
%TO.N,/COL1*%
X110290000Y-85660000D03*
%TO.P,SW3,2,2*%
%TO.N,Net-(D6-Pad2)*%
X116640000Y-83120000D03*
%TD*%
%TO.P,SW1,1,1*%
%TO.N,/COL0*%
X91240000Y-85660000D03*
%TO.P,SW1,2,2*%
%TO.N,Net-(D2-Pad2)*%
X97590000Y-83120000D03*
%TD*%
%TO.P,SW5,1,1*%
%TO.N,/COL2*%
X129340000Y-85660000D03*
%TO.P,SW5,2,2*%
%TO.N,Net-(D9-Pad2)*%
X135690000Y-83120000D03*
%TD*%
D16*
%TO.P,U1,57,GND*%
%TO.N,GND*%
X115450000Y-119550000D03*
X112750000Y-116850000D03*
D17*
X114100000Y-118200000D03*
D16*
X115450000Y-116850000D03*
X112750000Y-119550000D03*
%TD*%
D18*
%TO.N,GND*%
X106100000Y-119200000D03*
X116500000Y-124200000D03*
X111400000Y-68200000D03*
X116900000Y-109700000D03*
D19*
X97800000Y-99800000D03*
D18*
X110400000Y-64200000D03*
X114000000Y-126400000D03*
X111800000Y-125900000D03*
X120934668Y-119134668D03*
X115800000Y-129600000D03*
X121300000Y-76100000D03*
D19*
X115700000Y-66400000D03*
D18*
X122100000Y-115900000D03*
X139500000Y-94900000D03*
D19*
X113000000Y-98900000D03*
D18*
X109700000Y-114600000D03*
X110900000Y-65500000D03*
X129600000Y-112800000D03*
X90100000Y-92500000D03*
X89400000Y-71400000D03*
D19*
X129000000Y-81400000D03*
D18*
X115800000Y-108900000D03*
X128400000Y-92500000D03*
X109200000Y-110900000D03*
X122600000Y-70100000D03*
X117700000Y-114600000D03*
X109200000Y-92500000D03*
X129000000Y-111200000D03*
X110400000Y-110900000D03*
X116200000Y-75800000D03*
X117499500Y-64200000D03*
D19*
X105400000Y-106100000D03*
D18*
X122600000Y-73600000D03*
X120200000Y-122700000D03*
D19*
%TO.N,+1V1*%
X114700000Y-112100000D03*
X111500000Y-110800000D03*
D18*
X111000000Y-123700000D03*
%TO.N,+3V3*%
X114600000Y-106900000D03*
X110200000Y-107000000D03*
D19*
X109400000Y-119200000D03*
D18*
X107100000Y-113900000D03*
X109300000Y-126100000D03*
%TO.N,+5V*%
X126300000Y-96000000D03*
X107700000Y-96000000D03*
X102500000Y-96000000D03*
X120700000Y-96000000D03*
D19*
%TO.N,/ROW0*%
X124500000Y-79200000D03*
X110300000Y-79200000D03*
X104400000Y-79200000D03*
X114500000Y-79200000D03*
%TO.N,/ROW1*%
X129100000Y-120700000D03*
X131700000Y-102400000D03*
X133700000Y-119700000D03*
X124900000Y-102500000D03*
%TO.N,/COL1*%
X129100000Y-119600000D03*
X133100000Y-103300000D03*
X133100000Y-114300000D03*
%TO.N,/COL2*%
X133800000Y-121700000D03*
X129100000Y-121700000D03*
%TO.N,/1_TO_2*%
X106000000Y-92500000D03*
X102600000Y-92500000D03*
%TO.N,/2_TO_3*%
X125200000Y-92400000D03*
X121200000Y-92400000D03*
%TD*%
D20*
%TO.N,GND*%
X112700000Y-98900000D02*
X113000000Y-98900000D01*
X109200000Y-92500000D02*
X109500000Y-92800000D01*
X109500000Y-95700000D02*
X112700000Y-98900000D01*
X109500000Y-92800000D02*
X109500000Y-95700000D01*
%TO.N,+1V1*%
X111500000Y-123200000D02*
X111000000Y-123700000D01*
D21*
X113400000Y-110800000D02*
X111500000Y-110800000D01*
D20*
X111500000Y-110800000D02*
X111500000Y-123200000D01*
D21*
X114700000Y-112100000D02*
X113400000Y-110800000D01*
D20*
%TO.N,+3V3*%
X107100000Y-119300000D02*
X107200000Y-119200000D01*
X109300000Y-126100000D02*
X107100000Y-123900000D01*
X110200000Y-107000000D02*
X114500000Y-107000000D01*
X114500000Y-107000000D02*
X114600000Y-106900000D01*
X107100000Y-119300000D02*
X107100000Y-113900000D01*
X107200000Y-119200000D02*
X109400000Y-119200000D01*
X107100000Y-123900000D02*
X107100000Y-119300000D01*
%TO.N,+5V*%
X107700000Y-96000000D02*
X102500000Y-96000000D01*
X126300000Y-96000000D02*
X120700000Y-96000000D01*
D22*
%TO.N,/ROW0*%
X124500000Y-79200000D02*
X114500000Y-79200000D01*
X110300000Y-79200000D02*
X104400000Y-79200000D01*
%TO.N,/ROW1*%
X133700000Y-119700000D02*
X132700000Y-120700000D01*
X132700000Y-120700000D02*
X129100000Y-120700000D01*
X124900000Y-102500000D02*
X131600000Y-102500000D01*
X131600000Y-102500000D02*
X131700000Y-102400000D01*
%TO.N,Net-(D7-Pad2)*%
X125075000Y-104700000D02*
X131575000Y-104700000D01*
%TO.N,/COL0*%
X122050000Y-100200000D02*
X115550000Y-100200000D01*
X108800000Y-96900000D02*
X112100000Y-100200000D01*
X100360000Y-85660000D02*
X102600000Y-87900000D01*
X103100000Y-90200000D02*
X105400000Y-90200000D01*
X112100000Y-100200000D02*
X115550000Y-100200000D01*
X102600000Y-89700000D02*
X103100000Y-90200000D01*
X105400000Y-90200000D02*
X108800000Y-93600000D01*
X91240000Y-85660000D02*
X100360000Y-85660000D01*
X108800000Y-93600000D02*
X108800000Y-96900000D01*
X102600000Y-87900000D02*
X102600000Y-89700000D01*
%TO.N,/COL1*%
X130500000Y-119600000D02*
X129100000Y-119600000D01*
X110290000Y-95190000D02*
X110290000Y-85660000D01*
X131575000Y-100200000D02*
X133100000Y-101725000D01*
X122475000Y-97600000D02*
X112700000Y-97600000D01*
X125075000Y-100200000D02*
X122475000Y-97600000D01*
X112700000Y-97600000D02*
X110290000Y-95190000D01*
X133100000Y-114300000D02*
X133100000Y-117000000D01*
X133100000Y-117000000D02*
X130500000Y-119600000D01*
X125075000Y-100200000D02*
X131575000Y-100200000D01*
X133100000Y-101725000D02*
X133100000Y-103300000D01*
%TO.N,/COL2*%
X133800000Y-121700000D02*
X129100000Y-121700000D01*
X134600000Y-100200000D02*
X129340000Y-94940000D01*
X129340000Y-94940000D02*
X129340000Y-85660000D01*
X134600000Y-100200000D02*
X141100000Y-100200000D01*
%TO.N,/1_TO_2*%
X102600000Y-92500000D02*
X106000000Y-92500000D01*
%TO.N,/2_TO_3*%
X121200000Y-92400000D02*
X125200000Y-92400000D01*
%TO.N,Net-(D3-Pad2)*%
X141100000Y-104700000D02*
X134600000Y-104700000D01*
%TO.N,Net-(D10-Pad2)*%
X122050000Y-104700000D02*
X115550000Y-104700000D01*
%TD*%
%TA.AperFunction,Conductor*%
%TO.N,GND*%
G36*
X117607456Y-56428502D02*
G01*
X117653949Y-56482158D01*
X117664053Y-56552432D01*
X117635858Y-56615489D01*
X117583846Y-56677474D01*
X117580879Y-56682872D01*
X117580875Y-56682877D01*
X117577397Y-56689204D01*
X117488567Y-56850787D01*
X117486706Y-56856654D01*
X117486705Y-56856656D01*
X117468974Y-56912552D01*
X117428765Y-57039306D01*
X117411500Y-57193227D01*
X117411500Y-57899769D01*
X117411800Y-57902825D01*
X117411800Y-57902832D01*
X117412530Y-57910273D01*
X117425920Y-58046833D01*
X117483084Y-58236169D01*
X117575934Y-58410796D01*
X117610223Y-58452838D01*
X117697040Y-58559287D01*
X117697043Y-58559290D01*
X117700935Y-58564062D01*
X117705682Y-58567989D01*
X117705684Y-58567991D01*
X117848575Y-58686201D01*
X117848579Y-58686203D01*
X117853325Y-58690130D01*
X118027299Y-58784198D01*
X118216232Y-58842682D01*
X118222357Y-58843326D01*
X118222358Y-58843326D01*
X118406796Y-58862711D01*
X118406798Y-58862711D01*
X118412925Y-58863355D01*
X118495424Y-58855847D01*
X118603749Y-58845989D01*
X118603752Y-58845988D01*
X118609888Y-58845430D01*
X118615794Y-58843692D01*
X118615798Y-58843691D01*
X118720924Y-58812751D01*
X118799619Y-58789590D01*
X118805077Y-58786737D01*
X118805081Y-58786735D01*
X118895853Y-58739280D01*
X118974890Y-58697960D01*
X119129025Y-58574032D01*
X119256154Y-58422526D01*
X119259125Y-58417121D01*
X119261538Y-58413598D01*
X119316530Y-58368694D01*
X119387069Y-58360648D01*
X119450760Y-58392016D01*
X119487382Y-58452838D01*
X119491500Y-58484788D01*
X119491500Y-59850633D01*
X119490000Y-59870018D01*
X119487690Y-59884851D01*
X119487690Y-59884855D01*
X119486309Y-59893724D01*
X119487130Y-59900000D01*
X119486915Y-59900000D01*
X119487391Y-59907872D01*
X119487391Y-59907873D01*
X119504405Y-60189140D01*
X119505238Y-60202919D01*
X119559941Y-60501421D01*
X119561073Y-60505053D01*
X119561073Y-60505054D01*
X119594481Y-60612264D01*
X119650225Y-60791152D01*
X119651787Y-60794622D01*
X119651789Y-60794628D01*
X119695324Y-60891359D01*
X119774774Y-61067889D01*
X119776743Y-61071146D01*
X119776745Y-61071150D01*
X119824469Y-61150094D01*
X119931772Y-61327595D01*
X119934124Y-61330597D01*
X119934126Y-61330600D01*
X119980628Y-61389955D01*
X120118929Y-61566484D01*
X120333516Y-61781071D01*
X120438261Y-61863133D01*
X120558809Y-61957576D01*
X120572405Y-61968228D01*
X120680264Y-62033431D01*
X120828850Y-62123255D01*
X120828854Y-62123257D01*
X120832111Y-62125226D01*
X120970479Y-62187500D01*
X121105372Y-62248211D01*
X121105378Y-62248213D01*
X121108848Y-62249775D01*
X121398579Y-62340059D01*
X121697081Y-62394762D01*
X121700875Y-62394991D01*
X121700879Y-62394992D01*
X121833283Y-62403001D01*
X121969159Y-62411220D01*
X121982446Y-62412735D01*
X121987448Y-62413576D01*
X121993724Y-62413653D01*
X121995140Y-62413670D01*
X121995143Y-62413670D01*
X122000000Y-62413729D01*
X122027624Y-62409773D01*
X122045486Y-62408500D01*
X152150633Y-62408500D01*
X152170018Y-62410000D01*
X152184851Y-62412310D01*
X152184855Y-62412310D01*
X152193724Y-62413691D01*
X152208981Y-62411696D01*
X152234302Y-62410953D01*
X152403285Y-62423039D01*
X152421064Y-62425596D01*
X152611392Y-62466999D01*
X152628641Y-62472063D01*
X152811150Y-62540136D01*
X152827502Y-62547604D01*
X152998458Y-62640952D01*
X153013582Y-62650672D01*
X153169514Y-62767402D01*
X153183100Y-62779175D01*
X153320825Y-62916900D01*
X153332598Y-62930486D01*
X153449328Y-63086418D01*
X153459048Y-63101542D01*
X153552396Y-63272498D01*
X153559864Y-63288850D01*
X153627937Y-63471359D01*
X153633001Y-63488607D01*
X153674404Y-63678936D01*
X153676962Y-63696721D01*
X153688540Y-63858601D01*
X153687793Y-63876565D01*
X153687692Y-63884845D01*
X153686309Y-63893724D01*
X153687474Y-63902630D01*
X153690436Y-63925283D01*
X153691500Y-63941621D01*
X153691500Y-131850633D01*
X153690000Y-131870018D01*
X153687690Y-131884851D01*
X153687690Y-131884855D01*
X153686309Y-131893724D01*
X153688136Y-131907693D01*
X153688304Y-131908976D01*
X153689047Y-131934305D01*
X153676962Y-132103279D01*
X153674404Y-132121064D01*
X153656598Y-132202919D01*
X153633001Y-132311392D01*
X153627937Y-132328641D01*
X153559864Y-132511150D01*
X153552396Y-132527502D01*
X153459048Y-132698458D01*
X153449328Y-132713582D01*
X153332598Y-132869514D01*
X153320825Y-132883100D01*
X153183100Y-133020825D01*
X153169514Y-133032598D01*
X153013582Y-133149328D01*
X152998458Y-133159048D01*
X152827502Y-133252396D01*
X152811150Y-133259864D01*
X152628641Y-133327937D01*
X152611393Y-133333001D01*
X152421064Y-133374404D01*
X152403285Y-133376961D01*
X152241395Y-133388540D01*
X152223435Y-133387793D01*
X152215155Y-133387692D01*
X152206276Y-133386309D01*
X152174714Y-133390436D01*
X152158379Y-133391500D01*
X76049367Y-133391500D01*
X76029982Y-133390000D01*
X76015149Y-133387690D01*
X76015145Y-133387690D01*
X76006276Y-133386309D01*
X75991019Y-133388304D01*
X75965698Y-133389047D01*
X75796715Y-133376961D01*
X75778936Y-133374404D01*
X75588607Y-133333001D01*
X75571359Y-133327937D01*
X75388850Y-133259864D01*
X75372498Y-133252396D01*
X75201542Y-133159048D01*
X75186418Y-133149328D01*
X75030486Y-133032598D01*
X75016900Y-133020825D01*
X74879175Y-132883100D01*
X74867402Y-132869514D01*
X74750672Y-132713582D01*
X74740952Y-132698458D01*
X74647604Y-132527502D01*
X74640136Y-132511150D01*
X74572063Y-132328641D01*
X74566999Y-132311392D01*
X74543402Y-132202919D01*
X74525596Y-132121064D01*
X74523038Y-132103278D01*
X74511719Y-131945012D01*
X74512805Y-131922245D01*
X74512334Y-131922203D01*
X74512770Y-131917345D01*
X74513576Y-131912552D01*
X74513729Y-131900000D01*
X74509773Y-131872376D01*
X74508500Y-131854514D01*
X74508500Y-127532703D01*
X78390743Y-127532703D01*
X78428268Y-127817734D01*
X78504129Y-128095036D01*
X78616923Y-128359476D01*
X78764561Y-128606161D01*
X78944313Y-128830528D01*
X79152851Y-129028423D01*
X79386317Y-129196186D01*
X79390112Y-129198195D01*
X79390113Y-129198196D01*
X79411869Y-129209715D01*
X79640392Y-129330712D01*
X79910373Y-129429511D01*
X80191264Y-129490755D01*
X80219841Y-129493004D01*
X80414282Y-129508307D01*
X80414291Y-129508307D01*
X80416739Y-129508500D01*
X80572271Y-129508500D01*
X80574407Y-129508354D01*
X80574418Y-129508354D01*
X80782548Y-129494165D01*
X80782554Y-129494164D01*
X80786825Y-129493873D01*
X80791020Y-129493004D01*
X80791022Y-129493004D01*
X80927584Y-129464723D01*
X81068342Y-129435574D01*
X81339343Y-129339607D01*
X81594812Y-129207750D01*
X81598313Y-129205289D01*
X81598317Y-129205287D01*
X81712418Y-129125095D01*
X81830023Y-129042441D01*
X82040622Y-128846740D01*
X82222713Y-128624268D01*
X82372927Y-128379142D01*
X82488483Y-128115898D01*
X82567244Y-127839406D01*
X82607751Y-127554784D01*
X82607845Y-127536951D01*
X82607867Y-127532703D01*
X145590743Y-127532703D01*
X145628268Y-127817734D01*
X145704129Y-128095036D01*
X145816923Y-128359476D01*
X145964561Y-128606161D01*
X146144313Y-128830528D01*
X146352851Y-129028423D01*
X146586317Y-129196186D01*
X146590112Y-129198195D01*
X146590113Y-129198196D01*
X146611869Y-129209715D01*
X146840392Y-129330712D01*
X147110373Y-129429511D01*
X147391264Y-129490755D01*
X147419841Y-129493004D01*
X147614282Y-129508307D01*
X147614291Y-129508307D01*
X147616739Y-129508500D01*
X147772271Y-129508500D01*
X147774407Y-129508354D01*
X147774418Y-129508354D01*
X147982548Y-129494165D01*
X147982554Y-129494164D01*
X147986825Y-129493873D01*
X147991020Y-129493004D01*
X147991022Y-129493004D01*
X148127584Y-129464723D01*
X148268342Y-129435574D01*
X148539343Y-129339607D01*
X148794812Y-129207750D01*
X148798313Y-129205289D01*
X148798317Y-129205287D01*
X148912417Y-129125096D01*
X149030023Y-129042441D01*
X149240622Y-128846740D01*
X149422713Y-128624268D01*
X149572927Y-128379142D01*
X149688483Y-128115898D01*
X149767244Y-127839406D01*
X149807751Y-127554784D01*
X149807845Y-127536951D01*
X149809235Y-127271583D01*
X149809235Y-127271576D01*
X149809257Y-127267297D01*
X149771732Y-126982266D01*
X149695871Y-126704964D01*
X149583077Y-126440524D01*
X149435439Y-126193839D01*
X149255687Y-125969472D01*
X149047149Y-125771577D01*
X148813683Y-125603814D01*
X148791843Y-125592250D01*
X148691656Y-125539204D01*
X148559608Y-125469288D01*
X148344892Y-125390713D01*
X148293658Y-125371964D01*
X148293656Y-125371963D01*
X148289627Y-125370489D01*
X148008736Y-125309245D01*
X147977685Y-125306801D01*
X147785718Y-125291693D01*
X147785709Y-125291693D01*
X147783261Y-125291500D01*
X147627729Y-125291500D01*
X147625593Y-125291646D01*
X147625582Y-125291646D01*
X147417452Y-125305835D01*
X147417446Y-125305836D01*
X147413175Y-125306127D01*
X147408980Y-125306996D01*
X147408978Y-125306996D01*
X147272417Y-125335276D01*
X147131658Y-125364426D01*
X146860657Y-125460393D01*
X146605188Y-125592250D01*
X146601687Y-125594711D01*
X146601683Y-125594713D01*
X146591594Y-125601804D01*
X146369977Y-125757559D01*
X146159378Y-125953260D01*
X145977287Y-126175732D01*
X145827073Y-126420858D01*
X145825347Y-126424791D01*
X145825346Y-126424792D01*
X145789555Y-126506326D01*
X145711517Y-126684102D01*
X145632756Y-126960594D01*
X145592249Y-127245216D01*
X145592227Y-127249505D01*
X145592226Y-127249512D01*
X145590765Y-127528417D01*
X145590743Y-127532703D01*
X82607867Y-127532703D01*
X82609235Y-127271583D01*
X82609235Y-127271576D01*
X82609257Y-127267297D01*
X82571732Y-126982266D01*
X82495871Y-126704964D01*
X82383077Y-126440524D01*
X82235439Y-126193839D01*
X82055687Y-125969472D01*
X81847149Y-125771577D01*
X81613683Y-125603814D01*
X81591843Y-125592250D01*
X81491656Y-125539204D01*
X81359608Y-125469288D01*
X81144892Y-125390713D01*
X81093658Y-125371964D01*
X81093656Y-125371963D01*
X81089627Y-125370489D01*
X80808736Y-125309245D01*
X80777685Y-125306801D01*
X80585718Y-125291693D01*
X80585709Y-125291693D01*
X80583261Y-125291500D01*
X80427729Y-125291500D01*
X80425593Y-125291646D01*
X80425582Y-125291646D01*
X80217452Y-125305835D01*
X80217446Y-125305836D01*
X80213175Y-125306127D01*
X80208980Y-125306996D01*
X80208978Y-125306996D01*
X80072417Y-125335276D01*
X79931658Y-125364426D01*
X79660657Y-125460393D01*
X79405188Y-125592250D01*
X79401687Y-125594711D01*
X79401683Y-125594713D01*
X79391594Y-125601804D01*
X79169977Y-125757559D01*
X78959378Y-125953260D01*
X78777287Y-126175732D01*
X78627073Y-126420858D01*
X78625347Y-126424791D01*
X78625346Y-126424792D01*
X78589555Y-126506326D01*
X78511517Y-126684102D01*
X78432756Y-126960594D01*
X78392249Y-127245216D01*
X78392227Y-127249505D01*
X78392226Y-127249512D01*
X78390765Y-127528417D01*
X78390743Y-127532703D01*
X74508500Y-127532703D01*
X74508500Y-113885851D01*
X106086719Y-113885851D01*
X106103268Y-114082934D01*
X106157783Y-114273050D01*
X106248187Y-114448956D01*
X106252010Y-114453780D01*
X106252013Y-114453784D01*
X106314246Y-114532303D01*
X106340883Y-114598113D01*
X106341500Y-114610567D01*
X106341500Y-119212059D01*
X106341001Y-119223260D01*
X106340850Y-119224950D01*
X106339360Y-119232115D01*
X106339558Y-119239430D01*
X106341454Y-119309521D01*
X106341500Y-119312928D01*
X106341500Y-123832930D01*
X106340067Y-123851880D01*
X106336801Y-123873349D01*
X106337394Y-123880641D01*
X106337394Y-123880644D01*
X106341085Y-123926018D01*
X106341500Y-123936233D01*
X106341500Y-123944293D01*
X106341925Y-123947937D01*
X106344789Y-123972507D01*
X106345222Y-123976882D01*
X106351140Y-124049637D01*
X106353396Y-124056601D01*
X106354587Y-124062560D01*
X106355971Y-124068415D01*
X106356818Y-124075681D01*
X106381735Y-124144327D01*
X106383152Y-124148455D01*
X106405649Y-124217899D01*
X106409445Y-124224154D01*
X106411951Y-124229628D01*
X106414670Y-124235058D01*
X106417167Y-124241937D01*
X106421180Y-124248057D01*
X106421180Y-124248058D01*
X106457186Y-124302976D01*
X106459523Y-124306680D01*
X106497405Y-124369107D01*
X106501121Y-124373315D01*
X106501122Y-124373316D01*
X106504803Y-124377484D01*
X106504776Y-124377508D01*
X106507429Y-124380500D01*
X106510132Y-124383733D01*
X106514144Y-124389852D01*
X106555677Y-124429197D01*
X106570383Y-124443128D01*
X106572825Y-124445506D01*
X107419013Y-125291693D01*
X108260856Y-126133536D01*
X108294881Y-126195848D01*
X108297319Y-126212088D01*
X108303268Y-126282934D01*
X108304967Y-126288858D01*
X108349590Y-126444476D01*
X108357783Y-126473050D01*
X108448187Y-126648956D01*
X108571035Y-126803953D01*
X108721650Y-126932136D01*
X108894294Y-127028624D01*
X109082392Y-127089740D01*
X109278777Y-127113158D01*
X109284912Y-127112686D01*
X109284914Y-127112686D01*
X109469830Y-127098457D01*
X109469834Y-127098456D01*
X109475972Y-127097984D01*
X109666463Y-127044798D01*
X109671967Y-127042018D01*
X109671969Y-127042017D01*
X109837495Y-126958404D01*
X109837497Y-126958403D01*
X109842996Y-126955625D01*
X109998847Y-126833861D01*
X110110108Y-126704964D01*
X110124049Y-126688813D01*
X110124050Y-126688811D01*
X110128078Y-126684145D01*
X110225769Y-126512179D01*
X110288197Y-126324513D01*
X110312985Y-126128295D01*
X110313380Y-126100000D01*
X110294080Y-125903167D01*
X110236916Y-125713831D01*
X110144066Y-125539204D01*
X110073709Y-125452938D01*
X110022960Y-125390713D01*
X110022957Y-125390710D01*
X110019065Y-125385938D01*
X110014316Y-125382009D01*
X109871425Y-125263799D01*
X109871421Y-125263797D01*
X109866675Y-125259870D01*
X109692701Y-125165802D01*
X109503768Y-125107318D01*
X109497646Y-125106675D01*
X109497643Y-125106674D01*
X109452878Y-125101969D01*
X109409836Y-125097446D01*
X109344180Y-125070433D01*
X109333912Y-125061231D01*
X107958532Y-123685851D01*
X109986719Y-123685851D01*
X109987235Y-123691995D01*
X110001856Y-123866115D01*
X110003268Y-123882934D01*
X110021907Y-123947937D01*
X110048977Y-124042339D01*
X110057783Y-124073050D01*
X110148187Y-124248956D01*
X110271035Y-124403953D01*
X110275728Y-124407947D01*
X110275729Y-124407948D01*
X110317066Y-124443128D01*
X110421650Y-124532136D01*
X110594294Y-124628624D01*
X110782392Y-124689740D01*
X110978777Y-124713158D01*
X110984912Y-124712686D01*
X110984914Y-124712686D01*
X111169830Y-124698457D01*
X111169834Y-124698456D01*
X111175972Y-124697984D01*
X111366463Y-124644798D01*
X111371967Y-124642018D01*
X111371969Y-124642017D01*
X111537495Y-124558404D01*
X111537497Y-124558403D01*
X111542996Y-124555625D01*
X111698847Y-124433861D01*
X111792489Y-124325376D01*
X111824049Y-124288813D01*
X111824050Y-124288811D01*
X111828078Y-124284145D01*
X111925769Y-124112179D01*
X111988197Y-123924513D01*
X111998563Y-123842460D01*
X112002433Y-123811823D01*
X112031414Y-123746036D01*
X112055035Y-123718232D01*
X112061965Y-123710716D01*
X112067661Y-123705020D01*
X112069924Y-123702159D01*
X112069929Y-123702154D01*
X112085293Y-123682734D01*
X112088082Y-123679333D01*
X112089743Y-123677378D01*
X112135333Y-123623715D01*
X112138659Y-123617202D01*
X112142020Y-123612163D01*
X112145196Y-123607021D01*
X112149734Y-123601284D01*
X112180655Y-123535125D01*
X112182561Y-123531225D01*
X112215769Y-123466192D01*
X112217508Y-123459083D01*
X112219604Y-123453449D01*
X112221523Y-123447679D01*
X112224622Y-123441050D01*
X112239491Y-123369565D01*
X112240461Y-123365282D01*
X112257808Y-123294390D01*
X112258500Y-123283236D01*
X112258535Y-123283238D01*
X112258775Y-123279266D01*
X112259152Y-123275045D01*
X112260641Y-123267885D01*
X112258546Y-123190458D01*
X112258500Y-123187050D01*
X112258500Y-121700000D01*
X128186496Y-121700000D01*
X128206458Y-121889928D01*
X128265473Y-122071556D01*
X128360960Y-122236944D01*
X128488747Y-122378866D01*
X128643248Y-122491118D01*
X128649276Y-122493802D01*
X128649278Y-122493803D01*
X128811681Y-122566109D01*
X128817712Y-122568794D01*
X128911113Y-122588647D01*
X128998056Y-122607128D01*
X128998061Y-122607128D01*
X129004513Y-122608500D01*
X129195487Y-122608500D01*
X129201939Y-122607128D01*
X129201944Y-122607128D01*
X129288887Y-122588647D01*
X129382288Y-122568794D01*
X129388319Y-122566109D01*
X129550722Y-122493803D01*
X129550724Y-122493802D01*
X129556752Y-122491118D01*
X129711253Y-122378866D01*
X129715668Y-122373963D01*
X129720580Y-122369540D01*
X129721705Y-122370789D01*
X129775014Y-122337949D01*
X129808200Y-122333500D01*
X133091800Y-122333500D01*
X133159921Y-122353502D01*
X133179147Y-122369843D01*
X133179420Y-122369540D01*
X133184332Y-122373963D01*
X133188747Y-122378866D01*
X133343248Y-122491118D01*
X133349276Y-122493802D01*
X133349278Y-122493803D01*
X133511681Y-122566109D01*
X133517712Y-122568794D01*
X133611113Y-122588647D01*
X133698056Y-122607128D01*
X133698061Y-122607128D01*
X133704513Y-122608500D01*
X133895487Y-122608500D01*
X133901939Y-122607128D01*
X133901944Y-122607128D01*
X133988887Y-122588647D01*
X134082288Y-122568794D01*
X134088319Y-122566109D01*
X134250722Y-122493803D01*
X134250724Y-122493802D01*
X134256752Y-122491118D01*
X134411253Y-122378866D01*
X134539040Y-122236944D01*
X134634527Y-122071556D01*
X134693542Y-121889928D01*
X134713504Y-121700000D01*
X134693542Y-121510072D01*
X134634527Y-121328444D01*
X134539040Y-121163056D01*
X134411253Y-121021134D01*
X134256752Y-120908882D01*
X134250724Y-120906198D01*
X134250722Y-120906197D01*
X134088319Y-120833891D01*
X134088318Y-120833891D01*
X134082288Y-120831206D01*
X134010534Y-120815954D01*
X133992219Y-120812061D01*
X133929745Y-120778332D01*
X133895424Y-120716183D01*
X133900152Y-120645344D01*
X133942428Y-120588306D01*
X133978155Y-120569672D01*
X133982288Y-120568794D01*
X134099440Y-120516635D01*
X134150722Y-120493803D01*
X134150724Y-120493802D01*
X134156752Y-120491118D01*
X134311253Y-120378866D01*
X134361806Y-120322721D01*
X134434621Y-120241852D01*
X134434622Y-120241851D01*
X134439040Y-120236944D01*
X134513197Y-120108500D01*
X134531223Y-120077279D01*
X134531224Y-120077278D01*
X134534527Y-120071556D01*
X134593542Y-119889928D01*
X134597583Y-119851486D01*
X134612814Y-119706565D01*
X134613504Y-119700000D01*
X134600606Y-119577279D01*
X134594232Y-119516635D01*
X134594232Y-119516633D01*
X134593542Y-119510072D01*
X134534527Y-119328444D01*
X134439040Y-119163056D01*
X134311253Y-119021134D01*
X134208526Y-118946498D01*
X134162094Y-118912763D01*
X134162093Y-118912762D01*
X134156752Y-118908882D01*
X134150724Y-118906198D01*
X134150722Y-118906197D01*
X133988319Y-118833891D01*
X133988318Y-118833891D01*
X133982288Y-118831206D01*
X133888887Y-118811353D01*
X133801944Y-118792872D01*
X133801939Y-118792872D01*
X133795487Y-118791500D01*
X133604513Y-118791500D01*
X133598061Y-118792872D01*
X133598056Y-118792872D01*
X133511113Y-118811353D01*
X133417712Y-118831206D01*
X133411682Y-118833891D01*
X133411681Y-118833891D01*
X133249278Y-118906197D01*
X133249276Y-118906198D01*
X133243248Y-118908882D01*
X133237907Y-118912762D01*
X133237906Y-118912763D01*
X133191474Y-118946498D01*
X133088747Y-119021134D01*
X132960960Y-119163056D01*
X132865473Y-119328444D01*
X132806458Y-119510072D01*
X132805768Y-119516633D01*
X132805768Y-119516635D01*
X132789093Y-119675292D01*
X132762080Y-119740949D01*
X132752878Y-119751218D01*
X132474499Y-120029596D01*
X132412187Y-120063621D01*
X132385404Y-120066500D01*
X131233594Y-120066500D01*
X131165473Y-120046498D01*
X131118980Y-119992842D01*
X131108876Y-119922568D01*
X131138370Y-119857988D01*
X131144499Y-119851405D01*
X133492247Y-117503657D01*
X133500537Y-117496113D01*
X133507018Y-117492000D01*
X133553659Y-117442332D01*
X133556413Y-117439491D01*
X133576134Y-117419770D01*
X133578612Y-117416575D01*
X133586318Y-117407553D01*
X133611158Y-117381101D01*
X133616586Y-117375321D01*
X133626346Y-117357568D01*
X133637199Y-117341045D01*
X133644753Y-117331306D01*
X133649613Y-117325041D01*
X133667176Y-117284457D01*
X133672383Y-117273827D01*
X133693695Y-117235060D01*
X133695666Y-117227383D01*
X133695668Y-117227378D01*
X133698732Y-117215442D01*
X133705138Y-117196730D01*
X133710033Y-117185419D01*
X133713181Y-117178145D01*
X133714421Y-117170317D01*
X133714423Y-117170310D01*
X133720099Y-117134476D01*
X133722505Y-117122856D01*
X133731528Y-117087711D01*
X133731528Y-117087710D01*
X133733500Y-117080030D01*
X133733500Y-117059776D01*
X133735051Y-117040065D01*
X133736980Y-117027886D01*
X133738220Y-117020057D01*
X133734059Y-116976038D01*
X133733500Y-116964181D01*
X133733500Y-115002524D01*
X133753502Y-114934403D01*
X133765858Y-114918221D01*
X133839040Y-114836944D01*
X133934527Y-114671556D01*
X133993542Y-114489928D01*
X134013504Y-114300000D01*
X133993542Y-114110072D01*
X133934527Y-113928444D01*
X133839040Y-113763056D01*
X133711253Y-113621134D01*
X133612157Y-113549136D01*
X133562094Y-113512763D01*
X133562093Y-113512762D01*
X133556752Y-113508882D01*
X133550724Y-113506198D01*
X133550722Y-113506197D01*
X133388319Y-113433891D01*
X133388318Y-113433891D01*
X133382288Y-113431206D01*
X133288887Y-113411353D01*
X133201944Y-113392872D01*
X133201939Y-113392872D01*
X133195487Y-113391500D01*
X133004513Y-113391500D01*
X132998061Y-113392872D01*
X132998056Y-113392872D01*
X132911113Y-113411353D01*
X132817712Y-113431206D01*
X132811682Y-113433891D01*
X132811681Y-113433891D01*
X132649278Y-113506197D01*
X132649276Y-113506198D01*
X132643248Y-113508882D01*
X132637907Y-113512762D01*
X132637906Y-113512763D01*
X132587843Y-113549136D01*
X132488747Y-113621134D01*
X132360960Y-113763056D01*
X132265473Y-113928444D01*
X132206458Y-114110072D01*
X132186496Y-114300000D01*
X132206458Y-114489928D01*
X132265473Y-114671556D01*
X132360960Y-114836944D01*
X132434137Y-114918215D01*
X132464853Y-114982221D01*
X132466500Y-115002524D01*
X132466500Y-116685405D01*
X132446498Y-116753526D01*
X132429595Y-116774500D01*
X130274500Y-118929595D01*
X130212188Y-118963621D01*
X130185405Y-118966500D01*
X129808200Y-118966500D01*
X129740079Y-118946498D01*
X129720853Y-118930157D01*
X129720580Y-118930460D01*
X129715668Y-118926037D01*
X129711253Y-118921134D01*
X129556752Y-118808882D01*
X129550724Y-118806198D01*
X129550722Y-118806197D01*
X129388319Y-118733891D01*
X129388318Y-118733891D01*
X129382288Y-118731206D01*
X129288887Y-118711353D01*
X129201944Y-118692872D01*
X129201939Y-118692872D01*
X129195487Y-118691500D01*
X129004513Y-118691500D01*
X128998061Y-118692872D01*
X128998056Y-118692872D01*
X128911113Y-118711353D01*
X128817712Y-118731206D01*
X128811682Y-118733891D01*
X128811681Y-118733891D01*
X128649278Y-118806197D01*
X128649276Y-118806198D01*
X128643248Y-118808882D01*
X128488747Y-118921134D01*
X128484326Y-118926044D01*
X128484325Y-118926045D01*
X128402758Y-119016635D01*
X128360960Y-119063056D01*
X128265473Y-119228444D01*
X128206458Y-119410072D01*
X128205768Y-119416633D01*
X128205768Y-119416635D01*
X128195258Y-119516635D01*
X128186496Y-119600000D01*
X128206458Y-119789928D01*
X128265473Y-119971556D01*
X128268776Y-119977278D01*
X128268777Y-119977279D01*
X128278317Y-119993803D01*
X128330682Y-120084500D01*
X128332125Y-120087000D01*
X128348863Y-120155995D01*
X128332125Y-120213000D01*
X128277491Y-120307629D01*
X128265473Y-120328444D01*
X128206458Y-120510072D01*
X128205768Y-120516633D01*
X128205768Y-120516635D01*
X128187186Y-120693435D01*
X128186496Y-120700000D01*
X128206458Y-120889928D01*
X128265473Y-121071556D01*
X128268776Y-121077278D01*
X128268777Y-121077279D01*
X128303257Y-121137000D01*
X128319995Y-121205995D01*
X128303257Y-121263000D01*
X128265473Y-121328444D01*
X128206458Y-121510072D01*
X128186496Y-121700000D01*
X112258500Y-121700000D01*
X112258500Y-120427418D01*
X112278502Y-120359297D01*
X112332158Y-120312804D01*
X112398108Y-120302155D01*
X112448514Y-120307631D01*
X112455328Y-120308000D01*
X112690965Y-120308000D01*
X112707629Y-120309107D01*
X112727044Y-120311697D01*
X112741040Y-120311991D01*
X112779186Y-120308519D01*
X112790606Y-120308000D01*
X113827885Y-120308000D01*
X113843124Y-120303525D01*
X113844329Y-120302135D01*
X113846000Y-120294452D01*
X113846000Y-120289884D01*
X114354000Y-120289884D01*
X114358475Y-120305123D01*
X114359865Y-120306328D01*
X114367548Y-120307999D01*
X115390957Y-120307999D01*
X115407622Y-120309106D01*
X115427044Y-120311698D01*
X115441040Y-120311991D01*
X115479195Y-120308518D01*
X115490615Y-120307999D01*
X115744669Y-120307999D01*
X115751490Y-120307629D01*
X115802352Y-120302105D01*
X115817604Y-120298479D01*
X115938054Y-120253324D01*
X115953649Y-120244786D01*
X116055724Y-120168285D01*
X116068285Y-120155724D01*
X116144786Y-120053649D01*
X116153324Y-120038054D01*
X116198478Y-119917606D01*
X116202105Y-119902351D01*
X116207631Y-119851486D01*
X116208000Y-119844672D01*
X116208000Y-119612124D01*
X116209226Y-119594588D01*
X116211948Y-119575222D01*
X116212554Y-119567338D01*
X116212741Y-119553962D01*
X116212354Y-119546062D01*
X116208785Y-119514241D01*
X116208000Y-119500196D01*
X116208000Y-118472115D01*
X116203525Y-118456876D01*
X116202135Y-118455671D01*
X116194452Y-118454000D01*
X114372115Y-118454000D01*
X114356876Y-118458475D01*
X114355671Y-118459865D01*
X114354000Y-118467548D01*
X114354000Y-120289884D01*
X113846000Y-120289884D01*
X113846000Y-117927885D01*
X114354000Y-117927885D01*
X114358475Y-117943124D01*
X114359865Y-117944329D01*
X114367548Y-117946000D01*
X116189884Y-117946000D01*
X116205123Y-117941525D01*
X116206328Y-117940135D01*
X116207999Y-117932452D01*
X116207999Y-116912130D01*
X116209225Y-116894593D01*
X116211948Y-116875219D01*
X116212554Y-116867340D01*
X116212741Y-116853962D01*
X116212354Y-116846062D01*
X116208784Y-116814233D01*
X116207999Y-116800188D01*
X116207999Y-116555331D01*
X116207629Y-116548510D01*
X116202105Y-116497648D01*
X116198479Y-116482396D01*
X116153324Y-116361946D01*
X116144786Y-116346351D01*
X116068285Y-116244276D01*
X116055724Y-116231715D01*
X115953649Y-116155214D01*
X115938054Y-116146676D01*
X115817606Y-116101522D01*
X115802351Y-116097895D01*
X115751486Y-116092369D01*
X115744672Y-116092000D01*
X115502876Y-116092000D01*
X115487958Y-116091114D01*
X115462319Y-116088057D01*
X115448320Y-116087959D01*
X115416437Y-116091310D01*
X115403267Y-116092000D01*
X114372115Y-116092000D01*
X114356876Y-116096475D01*
X114355671Y-116097865D01*
X114354000Y-116105548D01*
X114354000Y-117927885D01*
X113846000Y-117927885D01*
X113846000Y-116110116D01*
X113841525Y-116094877D01*
X113840135Y-116093672D01*
X113832452Y-116092001D01*
X112802883Y-116092001D01*
X112787964Y-116091115D01*
X112762318Y-116088057D01*
X112748321Y-116087959D01*
X112716429Y-116091311D01*
X112703259Y-116092001D01*
X112455331Y-116092001D01*
X112448509Y-116092371D01*
X112398105Y-116097845D01*
X112328223Y-116085316D01*
X112276208Y-116036994D01*
X112258500Y-115972582D01*
X112258500Y-111534500D01*
X112278502Y-111466379D01*
X112332158Y-111419886D01*
X112384500Y-111408500D01*
X113095761Y-111408500D01*
X113163882Y-111428502D01*
X113184856Y-111445405D01*
X113750281Y-112010830D01*
X113784307Y-112073142D01*
X113786841Y-112096716D01*
X113786496Y-112100000D01*
X113806458Y-112289928D01*
X113865473Y-112471556D01*
X113960960Y-112636944D01*
X114088747Y-112778866D01*
X114243248Y-112891118D01*
X114249276Y-112893802D01*
X114249278Y-112893803D01*
X114411681Y-112966109D01*
X114417712Y-112968794D01*
X114511112Y-112988647D01*
X114598056Y-113007128D01*
X114598061Y-113007128D01*
X114604513Y-113008500D01*
X114795487Y-113008500D01*
X114801939Y-113007128D01*
X114801944Y-113007128D01*
X114888888Y-112988647D01*
X114982288Y-112968794D01*
X114988319Y-112966109D01*
X115150722Y-112893803D01*
X115150724Y-112893802D01*
X115156752Y-112891118D01*
X115311253Y-112778866D01*
X115439040Y-112636944D01*
X115534527Y-112471556D01*
X115593542Y-112289928D01*
X115613504Y-112100000D01*
X115593542Y-111910072D01*
X115534527Y-111728444D01*
X115439040Y-111563056D01*
X115311253Y-111421134D01*
X115156752Y-111308882D01*
X115150724Y-111306198D01*
X115150722Y-111306197D01*
X114988319Y-111233891D01*
X114988318Y-111233891D01*
X114982288Y-111231206D01*
X114888888Y-111211353D01*
X114801944Y-111192872D01*
X114801939Y-111192872D01*
X114795487Y-111191500D01*
X114704239Y-111191500D01*
X114636118Y-111171498D01*
X114615144Y-111154595D01*
X113864315Y-110403766D01*
X113853448Y-110391375D01*
X113839013Y-110372563D01*
X113833987Y-110366013D01*
X113802075Y-110341526D01*
X113802072Y-110341523D01*
X113706876Y-110268476D01*
X113558851Y-110207162D01*
X113550664Y-110206084D01*
X113550663Y-110206084D01*
X113539458Y-110204609D01*
X113508262Y-110200502D01*
X113439885Y-110191500D01*
X113439882Y-110191500D01*
X113439874Y-110191499D01*
X113408189Y-110187328D01*
X113400000Y-110186250D01*
X113368307Y-110190422D01*
X113351864Y-110191500D01*
X112230710Y-110191500D01*
X112162589Y-110171498D01*
X112137074Y-110149811D01*
X112115668Y-110126037D01*
X112115666Y-110126036D01*
X112111253Y-110121134D01*
X111956752Y-110008882D01*
X111950724Y-110006198D01*
X111950722Y-110006197D01*
X111788319Y-109933891D01*
X111788318Y-109933891D01*
X111782288Y-109931206D01*
X111688888Y-109911353D01*
X111601944Y-109892872D01*
X111601939Y-109892872D01*
X111595487Y-109891500D01*
X111404513Y-109891500D01*
X111398061Y-109892872D01*
X111398056Y-109892872D01*
X111311113Y-109911353D01*
X111217712Y-109931206D01*
X111211682Y-109933891D01*
X111211681Y-109933891D01*
X111049278Y-110006197D01*
X111049276Y-110006198D01*
X111043248Y-110008882D01*
X110888747Y-110121134D01*
X110760960Y-110263056D01*
X110665473Y-110428444D01*
X110606458Y-110610072D01*
X110586496Y-110800000D01*
X110606458Y-110989928D01*
X110665473Y-111171556D01*
X110668776Y-111177278D01*
X110668777Y-111177279D01*
X110724619Y-111273999D01*
X110741500Y-111336999D01*
X110741500Y-122630502D01*
X110721498Y-122698623D01*
X110667842Y-122745116D01*
X110651076Y-122751375D01*
X110626301Y-122758667D01*
X110626295Y-122758669D01*
X110620381Y-122760410D01*
X110614923Y-122763263D01*
X110614919Y-122763265D01*
X110524147Y-122810720D01*
X110445110Y-122852040D01*
X110290975Y-122975968D01*
X110163846Y-123127474D01*
X110160879Y-123132872D01*
X110160875Y-123132877D01*
X110131094Y-123187050D01*
X110068567Y-123300787D01*
X110066706Y-123306654D01*
X110066705Y-123306656D01*
X110010627Y-123483436D01*
X110008765Y-123489306D01*
X109986719Y-123685851D01*
X107958532Y-123685851D01*
X107895405Y-123622724D01*
X107861379Y-123560412D01*
X107858500Y-123533629D01*
X107858500Y-120084500D01*
X107878502Y-120016379D01*
X107932158Y-119969886D01*
X107984500Y-119958500D01*
X108857413Y-119958500D01*
X108931472Y-119982563D01*
X108937902Y-119987235D01*
X108937909Y-119987239D01*
X108943248Y-119991118D01*
X108949276Y-119993802D01*
X108949278Y-119993803D01*
X109111681Y-120066109D01*
X109117712Y-120068794D01*
X109191603Y-120084500D01*
X109298056Y-120107128D01*
X109298061Y-120107128D01*
X109304513Y-120108500D01*
X109495487Y-120108500D01*
X109501939Y-120107128D01*
X109501944Y-120107128D01*
X109608397Y-120084500D01*
X109682288Y-120068794D01*
X109688319Y-120066109D01*
X109850722Y-119993803D01*
X109850724Y-119993802D01*
X109856752Y-119991118D01*
X109862097Y-119987235D01*
X109912157Y-119950864D01*
X110011253Y-119878866D01*
X110035979Y-119851405D01*
X110134621Y-119741852D01*
X110134622Y-119741851D01*
X110139040Y-119736944D01*
X110218105Y-119600000D01*
X110231223Y-119577279D01*
X110231224Y-119577278D01*
X110234527Y-119571556D01*
X110293542Y-119389928D01*
X110313504Y-119200000D01*
X110293542Y-119010072D01*
X110234527Y-118828444D01*
X110213990Y-118792872D01*
X110179937Y-118733891D01*
X110139040Y-118663056D01*
X110011253Y-118521134D01*
X109901647Y-118441500D01*
X109862094Y-118412763D01*
X109862093Y-118412762D01*
X109856752Y-118408882D01*
X109850724Y-118406198D01*
X109850722Y-118406197D01*
X109688319Y-118333891D01*
X109688318Y-118333891D01*
X109682288Y-118331206D01*
X109588888Y-118311353D01*
X109501944Y-118292872D01*
X109501939Y-118292872D01*
X109495487Y-118291500D01*
X109304513Y-118291500D01*
X109298061Y-118292872D01*
X109298056Y-118292872D01*
X109211112Y-118311353D01*
X109117712Y-118331206D01*
X109111682Y-118333891D01*
X109111681Y-118333891D01*
X108949278Y-118406197D01*
X108949276Y-118406198D01*
X108943248Y-118408882D01*
X108937909Y-118412761D01*
X108937902Y-118412765D01*
X108931472Y-118417437D01*
X108857413Y-118441500D01*
X107984500Y-118441500D01*
X107916379Y-118421498D01*
X107869886Y-118367842D01*
X107858500Y-118315500D01*
X107858500Y-114611610D01*
X107878502Y-114543489D01*
X107889119Y-114529279D01*
X107923086Y-114489928D01*
X107928078Y-114484145D01*
X108025769Y-114312179D01*
X108088197Y-114124513D01*
X108112985Y-113928295D01*
X108113380Y-113900000D01*
X108094080Y-113703167D01*
X108036916Y-113513831D01*
X107944066Y-113339204D01*
X107873709Y-113252938D01*
X107822960Y-113190713D01*
X107822957Y-113190710D01*
X107819065Y-113185938D01*
X107812724Y-113180692D01*
X107671425Y-113063799D01*
X107671421Y-113063797D01*
X107666675Y-113059870D01*
X107492701Y-112965802D01*
X107303768Y-112907318D01*
X107297643Y-112906674D01*
X107297642Y-112906674D01*
X107113204Y-112887289D01*
X107113202Y-112887289D01*
X107107075Y-112886645D01*
X107028422Y-112893803D01*
X106916251Y-112904011D01*
X106916248Y-112904012D01*
X106910112Y-112904570D01*
X106904206Y-112906308D01*
X106904202Y-112906309D01*
X106799076Y-112937249D01*
X106720381Y-112960410D01*
X106714923Y-112963263D01*
X106714919Y-112963265D01*
X106631018Y-113007128D01*
X106545110Y-113052040D01*
X106390975Y-113175968D01*
X106263846Y-113327474D01*
X106260879Y-113332872D01*
X106260875Y-113332877D01*
X106227893Y-113392872D01*
X106168567Y-113500787D01*
X106166706Y-113506654D01*
X106166705Y-113506656D01*
X106128833Y-113626045D01*
X106108765Y-113689306D01*
X106086719Y-113885851D01*
X74508500Y-113885851D01*
X74508500Y-94331002D01*
X92742035Y-94331002D01*
X92743209Y-94515061D01*
X92744284Y-94520697D01*
X92744284Y-94520701D01*
X92769355Y-94652188D01*
X92777683Y-94695867D01*
X92844316Y-94867445D01*
X92847325Y-94872325D01*
X92847327Y-94872330D01*
X92937882Y-95019217D01*
X92940909Y-95024127D01*
X93064268Y-95160734D01*
X93068816Y-95164222D01*
X93068820Y-95164226D01*
X93133320Y-95213697D01*
X93210318Y-95272754D01*
X93374234Y-95356485D01*
X93407495Y-95366419D01*
X93545096Y-95407517D01*
X93545099Y-95407518D01*
X93550598Y-95409160D01*
X93594911Y-95413974D01*
X93727884Y-95428420D01*
X93727887Y-95428420D01*
X93733584Y-95429039D01*
X93818671Y-95422747D01*
X93911429Y-95415888D01*
X93911432Y-95415888D01*
X93917146Y-95415465D01*
X94095218Y-95368887D01*
X94100490Y-95366419D01*
X94220819Y-95310083D01*
X94229602Y-95306370D01*
X94251585Y-95298041D01*
X94251962Y-95299035D01*
X94299135Y-95288500D01*
X95795106Y-95288500D01*
X95814477Y-95289998D01*
X95829510Y-95292337D01*
X95863559Y-95302724D01*
X96004797Y-95368849D01*
X96182862Y-95415425D01*
X96188576Y-95415848D01*
X96188579Y-95415848D01*
X96281881Y-95422747D01*
X96366416Y-95428998D01*
X96372114Y-95428379D01*
X96372116Y-95428379D01*
X96504344Y-95414014D01*
X96549394Y-95409120D01*
X96554893Y-95407478D01*
X96554896Y-95407477D01*
X96656579Y-95377107D01*
X96725752Y-95356447D01*
X96846027Y-95295008D01*
X96884555Y-95275327D01*
X96884557Y-95275326D01*
X96889660Y-95272719D01*
X97035705Y-95160704D01*
X97121403Y-95065802D01*
X97155214Y-95028360D01*
X97159059Y-95024102D01*
X97224627Y-94917745D01*
X97252636Y-94872312D01*
X97252638Y-94872308D01*
X97255647Y-94867427D01*
X97258053Y-94861233D01*
X97315037Y-94714500D01*
X97322278Y-94695855D01*
X97335711Y-94625405D01*
X97355675Y-94520697D01*
X97355675Y-94520693D01*
X97356750Y-94515057D01*
X97357924Y-94331005D01*
X97348547Y-94278167D01*
X97326764Y-94155433D01*
X97326764Y-94155432D01*
X97325761Y-94149782D01*
X97277204Y-94019862D01*
X97274209Y-94010820D01*
X97269028Y-93992938D01*
X97267670Y-93988251D01*
X97266404Y-93985537D01*
X97259726Y-93958778D01*
X97259557Y-93957487D01*
X97258499Y-93941192D01*
X97258499Y-92626545D01*
X97260001Y-92607148D01*
X97263601Y-92584042D01*
X97270073Y-92559326D01*
X97323789Y-92415608D01*
X97323791Y-92415601D01*
X97325798Y-92410231D01*
X97347596Y-92287411D01*
X97356959Y-92234653D01*
X97356959Y-92234650D01*
X97357962Y-92229000D01*
X97356789Y-92044941D01*
X97322316Y-91864135D01*
X97304108Y-91817251D01*
X97257759Y-91697904D01*
X97257757Y-91697900D01*
X97255682Y-91692557D01*
X97159090Y-91535875D01*
X97035731Y-91399268D01*
X97031183Y-91395780D01*
X97031179Y-91395776D01*
X96958782Y-91340248D01*
X96889681Y-91287248D01*
X96725765Y-91203517D01*
X96653272Y-91181865D01*
X96554902Y-91152485D01*
X96554899Y-91152484D01*
X96549400Y-91150842D01*
X96487469Y-91144114D01*
X96372114Y-91131582D01*
X96372111Y-91131582D01*
X96366414Y-91130963D01*
X96309022Y-91135207D01*
X96188567Y-91144114D01*
X96188563Y-91144115D01*
X96182852Y-91144537D01*
X96152467Y-91152485D01*
X96010330Y-91189664D01*
X96010327Y-91189665D01*
X96004780Y-91191116D01*
X95999587Y-91193547D01*
X95999582Y-91193549D01*
X95879162Y-91249927D01*
X95870403Y-91253631D01*
X95848415Y-91261963D01*
X95848414Y-91261964D01*
X95848036Y-91260967D01*
X95800870Y-91271501D01*
X94304888Y-91271501D01*
X94285517Y-91270003D01*
X94270503Y-91267667D01*
X94236451Y-91257279D01*
X94095205Y-91191151D01*
X94089661Y-91189701D01*
X94089656Y-91189699D01*
X93947525Y-91152522D01*
X93917140Y-91144574D01*
X93911426Y-91144151D01*
X93911423Y-91144151D01*
X93810812Y-91136712D01*
X93733585Y-91131001D01*
X93727887Y-91131620D01*
X93727885Y-91131620D01*
X93612878Y-91144114D01*
X93550605Y-91150879D01*
X93545106Y-91152521D01*
X93545103Y-91152522D01*
X93448684Y-91181320D01*
X93374247Y-91203553D01*
X93210338Y-91287281D01*
X93064293Y-91399297D01*
X92940939Y-91535900D01*
X92905817Y-91592872D01*
X92847362Y-91687690D01*
X92847360Y-91687694D01*
X92844351Y-91692575D01*
X92777720Y-91864148D01*
X92743249Y-92044947D01*
X92742076Y-92228999D01*
X92774240Y-92410223D01*
X92776248Y-92415596D01*
X92776249Y-92415599D01*
X92822792Y-92540127D01*
X92825787Y-92549171D01*
X92832331Y-92571755D01*
X92833589Y-92574453D01*
X92840251Y-92601113D01*
X92840430Y-92602477D01*
X92841501Y-92618872D01*
X92841501Y-93933390D01*
X92839995Y-93952813D01*
X92836371Y-93976042D01*
X92829903Y-94000731D01*
X92822750Y-94019869D01*
X92774200Y-94149771D01*
X92773197Y-94155421D01*
X92773197Y-94155422D01*
X92746750Y-94304438D01*
X92742035Y-94331002D01*
X74508500Y-94331002D01*
X74508500Y-88134593D01*
X88583039Y-88134593D01*
X88591848Y-88369216D01*
X88592943Y-88374434D01*
X88617794Y-88492871D01*
X88640062Y-88599001D01*
X88726302Y-88817377D01*
X88848104Y-89018100D01*
X89001985Y-89195432D01*
X89006117Y-89198820D01*
X89179416Y-89340917D01*
X89179422Y-89340921D01*
X89183544Y-89344301D01*
X89188180Y-89346940D01*
X89188183Y-89346942D01*
X89347438Y-89437595D01*
X89387590Y-89460451D01*
X89608289Y-89540561D01*
X89613538Y-89541510D01*
X89613541Y-89541511D01*
X89694615Y-89556171D01*
X89839330Y-89582340D01*
X89843469Y-89582535D01*
X89843476Y-89582536D01*
X89862440Y-89583430D01*
X89862449Y-89583430D01*
X89863929Y-89583500D01*
X90028950Y-89583500D01*
X90110299Y-89576597D01*
X90198637Y-89569102D01*
X90198641Y-89569101D01*
X90203948Y-89568651D01*
X90209103Y-89567313D01*
X90209109Y-89567312D01*
X90426035Y-89511009D01*
X90426034Y-89511009D01*
X90431206Y-89509667D01*
X90436072Y-89507475D01*
X90436075Y-89507474D01*
X90640417Y-89415424D01*
X90640420Y-89415423D01*
X90645278Y-89413234D01*
X90840041Y-89282112D01*
X91009927Y-89120049D01*
X91150078Y-88931679D01*
X91210719Y-88812408D01*
X91254069Y-88727144D01*
X91254069Y-88727143D01*
X91256487Y-88722388D01*
X91326111Y-88498160D01*
X91343202Y-88369216D01*
X91356261Y-88270690D01*
X91356261Y-88270687D01*
X91356961Y-88265407D01*
X91348152Y-88030784D01*
X91333476Y-87960839D01*
X91339063Y-87890064D01*
X91382028Y-87833544D01*
X91441654Y-87809879D01*
X91556103Y-87796029D01*
X91645408Y-87785222D01*
X91855253Y-87730170D01*
X91925939Y-87711626D01*
X91925940Y-87711626D01*
X91930082Y-87710539D01*
X92201988Y-87597912D01*
X92434285Y-87462168D01*
X92503192Y-87445069D01*
X92570405Y-87467938D01*
X92614583Y-87523514D01*
X92621702Y-87594153D01*
X92619897Y-87602291D01*
X92588052Y-87726320D01*
X92588051Y-87726328D01*
X92587064Y-87730170D01*
X92547600Y-88042562D01*
X92547600Y-88357438D01*
X92587064Y-88669830D01*
X92665370Y-88974813D01*
X92781284Y-89267577D01*
X92783186Y-89271036D01*
X92783187Y-89271039D01*
X92915112Y-89511009D01*
X92932976Y-89543504D01*
X93118055Y-89798244D01*
X93333602Y-90027778D01*
X93576218Y-90228487D01*
X93842076Y-90397206D01*
X93845655Y-90398890D01*
X93845662Y-90398894D01*
X94123394Y-90529584D01*
X94123398Y-90529586D01*
X94126984Y-90531273D01*
X94426448Y-90628575D01*
X94735746Y-90687577D01*
X94829300Y-90693463D01*
X94969358Y-90702275D01*
X94969374Y-90702276D01*
X94971353Y-90702400D01*
X95128647Y-90702400D01*
X95130626Y-90702276D01*
X95130642Y-90702275D01*
X95270700Y-90693463D01*
X95364254Y-90687577D01*
X95673552Y-90628575D01*
X95973016Y-90531273D01*
X95976602Y-90529586D01*
X95976606Y-90529584D01*
X96254338Y-90398894D01*
X96254345Y-90398890D01*
X96257924Y-90397206D01*
X96523782Y-90228487D01*
X96766398Y-90027778D01*
X96981945Y-89798244D01*
X97167024Y-89543504D01*
X97184889Y-89511009D01*
X97316813Y-89271039D01*
X97316814Y-89271036D01*
X97318716Y-89267577D01*
X97434630Y-88974813D01*
X97512936Y-88669830D01*
X97552400Y-88357438D01*
X97552400Y-88042562D01*
X97512936Y-87730170D01*
X97434630Y-87425187D01*
X97318716Y-87132423D01*
X97312749Y-87121569D01*
X97168933Y-86859968D01*
X97168931Y-86859965D01*
X97167024Y-86856496D01*
X97035118Y-86674942D01*
X96984273Y-86604960D01*
X96984272Y-86604958D01*
X96981945Y-86601756D01*
X96891792Y-86505753D01*
X96859741Y-86442403D01*
X96867028Y-86371781D01*
X96911339Y-86316310D01*
X96983642Y-86293500D01*
X100045406Y-86293500D01*
X100113527Y-86313502D01*
X100134501Y-86330405D01*
X100416726Y-86612630D01*
X100450752Y-86674942D01*
X100445687Y-86745757D01*
X100403140Y-86802593D01*
X100336620Y-86827404D01*
X100305211Y-86825714D01*
X100264757Y-86818399D01*
X100264756Y-86818399D01*
X100260670Y-86817660D01*
X100256531Y-86817465D01*
X100256524Y-86817464D01*
X100237560Y-86816570D01*
X100237551Y-86816570D01*
X100236071Y-86816500D01*
X100071050Y-86816500D01*
X99989701Y-86823403D01*
X99901363Y-86830898D01*
X99901359Y-86830899D01*
X99896052Y-86831349D01*
X99890897Y-86832687D01*
X99890891Y-86832688D01*
X99713177Y-86878814D01*
X99668794Y-86890333D01*
X99663928Y-86892525D01*
X99663925Y-86892526D01*
X99459583Y-86984576D01*
X99459580Y-86984577D01*
X99454722Y-86986766D01*
X99259959Y-87117888D01*
X99090073Y-87279951D01*
X98949922Y-87468321D01*
X98947506Y-87473072D01*
X98947504Y-87473076D01*
X98881808Y-87602291D01*
X98843513Y-87677612D01*
X98841931Y-87682707D01*
X98777546Y-87890064D01*
X98773889Y-87901840D01*
X98773188Y-87907129D01*
X98756092Y-88036116D01*
X98743039Y-88134593D01*
X98751848Y-88369216D01*
X98752943Y-88374434D01*
X98777794Y-88492871D01*
X98800062Y-88599001D01*
X98886302Y-88817377D01*
X99008104Y-89018100D01*
X99161985Y-89195432D01*
X99166117Y-89198820D01*
X99339416Y-89340917D01*
X99339422Y-89340921D01*
X99343544Y-89344301D01*
X99348180Y-89346940D01*
X99348183Y-89346942D01*
X99507438Y-89437595D01*
X99547590Y-89460451D01*
X99768289Y-89540561D01*
X99773538Y-89541510D01*
X99773541Y-89541511D01*
X99854615Y-89556171D01*
X99999330Y-89582340D01*
X100003469Y-89582535D01*
X100003476Y-89582536D01*
X100022440Y-89583430D01*
X100022449Y-89583430D01*
X100023929Y-89583500D01*
X100188950Y-89583500D01*
X100270299Y-89576597D01*
X100358637Y-89569102D01*
X100358641Y-89569101D01*
X100363948Y-89568651D01*
X100369103Y-89567313D01*
X100369109Y-89567312D01*
X100586035Y-89511009D01*
X100586034Y-89511009D01*
X100591206Y-89509667D01*
X100596072Y-89507475D01*
X100596075Y-89507474D01*
X100800417Y-89415424D01*
X100800420Y-89415423D01*
X100805278Y-89413234D01*
X101000041Y-89282112D01*
X101169927Y-89120049D01*
X101310078Y-88931679D01*
X101370719Y-88812408D01*
X101414069Y-88727144D01*
X101414069Y-88727143D01*
X101416487Y-88722388D01*
X101486111Y-88498160D01*
X101503202Y-88369216D01*
X101516261Y-88270690D01*
X101516261Y-88270687D01*
X101516961Y-88265407D01*
X101508152Y-88030784D01*
X101507056Y-88025563D01*
X101506497Y-88021005D01*
X101518049Y-87950955D01*
X101565640Y-87898270D01*
X101634159Y-87879679D01*
X101701853Y-87901083D01*
X101720653Y-87916557D01*
X101929595Y-88125499D01*
X101963621Y-88187811D01*
X101966500Y-88214594D01*
X101966500Y-89621233D01*
X101965973Y-89632416D01*
X101964298Y-89639909D01*
X101964547Y-89647835D01*
X101964547Y-89647836D01*
X101966438Y-89707986D01*
X101966500Y-89711945D01*
X101966500Y-89739856D01*
X101966997Y-89743790D01*
X101966997Y-89743791D01*
X101967005Y-89743856D01*
X101967938Y-89755693D01*
X101969327Y-89799889D01*
X101974978Y-89819339D01*
X101978987Y-89838700D01*
X101981526Y-89858797D01*
X101984445Y-89866168D01*
X101984445Y-89866170D01*
X101997804Y-89899912D01*
X102001649Y-89911142D01*
X102013982Y-89953593D01*
X102018015Y-89960412D01*
X102018017Y-89960417D01*
X102024293Y-89971028D01*
X102032988Y-89988776D01*
X102040448Y-90007617D01*
X102045110Y-90014033D01*
X102045110Y-90014034D01*
X102066436Y-90043387D01*
X102072952Y-90053307D01*
X102095458Y-90091362D01*
X102109779Y-90105683D01*
X102122619Y-90120716D01*
X102134528Y-90137107D01*
X102166413Y-90163484D01*
X102168593Y-90165288D01*
X102177374Y-90173278D01*
X102596353Y-90592258D01*
X102603887Y-90600537D01*
X102608000Y-90607018D01*
X102657651Y-90653643D01*
X102660493Y-90656398D01*
X102680230Y-90676135D01*
X102683427Y-90678615D01*
X102692447Y-90686318D01*
X102724679Y-90716586D01*
X102731625Y-90720405D01*
X102731628Y-90720407D01*
X102742434Y-90726348D01*
X102758953Y-90737199D01*
X102774959Y-90749614D01*
X102782228Y-90752759D01*
X102782232Y-90752762D01*
X102815537Y-90767174D01*
X102826187Y-90772391D01*
X102864940Y-90793695D01*
X102872615Y-90795666D01*
X102872616Y-90795666D01*
X102884562Y-90798733D01*
X102903267Y-90805137D01*
X102921855Y-90813181D01*
X102929678Y-90814420D01*
X102929688Y-90814423D01*
X102965524Y-90820099D01*
X102977144Y-90822505D01*
X103012289Y-90831528D01*
X103019970Y-90833500D01*
X103040224Y-90833500D01*
X103059934Y-90835051D01*
X103079943Y-90838220D01*
X103087835Y-90837474D01*
X103123961Y-90834059D01*
X103135819Y-90833500D01*
X105085406Y-90833500D01*
X105153527Y-90853502D01*
X105174501Y-90870405D01*
X105738635Y-91434539D01*
X105772661Y-91496851D01*
X105767596Y-91567666D01*
X105725049Y-91624502D01*
X105700788Y-91638741D01*
X105549281Y-91706195D01*
X105549274Y-91706199D01*
X105543248Y-91708882D01*
X105537907Y-91712762D01*
X105537906Y-91712763D01*
X105491474Y-91746498D01*
X105388747Y-91821134D01*
X105384332Y-91826037D01*
X105379420Y-91830460D01*
X105378295Y-91829211D01*
X105324986Y-91862051D01*
X105291800Y-91866500D01*
X103308200Y-91866500D01*
X103240079Y-91846498D01*
X103220853Y-91830157D01*
X103220580Y-91830460D01*
X103215668Y-91826037D01*
X103211253Y-91821134D01*
X103108526Y-91746498D01*
X103062094Y-91712763D01*
X103062093Y-91712762D01*
X103056752Y-91708882D01*
X103050724Y-91706198D01*
X103050722Y-91706197D01*
X102888319Y-91633891D01*
X102888318Y-91633891D01*
X102882288Y-91631206D01*
X102788887Y-91611353D01*
X102701944Y-91592872D01*
X102701939Y-91592872D01*
X102695487Y-91591500D01*
X102504513Y-91591500D01*
X102498061Y-91592872D01*
X102498056Y-91592872D01*
X102411113Y-91611353D01*
X102317712Y-91631206D01*
X102311682Y-91633891D01*
X102311681Y-91633891D01*
X102149278Y-91706197D01*
X102149276Y-91706198D01*
X102143248Y-91708882D01*
X102137907Y-91712762D01*
X102137906Y-91712763D01*
X102091474Y-91746498D01*
X101988747Y-91821134D01*
X101984326Y-91826044D01*
X101984325Y-91826045D01*
X101954849Y-91858782D01*
X101860960Y-91963056D01*
X101765473Y-92128444D01*
X101706458Y-92310072D01*
X101686496Y-92500000D01*
X101687186Y-92506565D01*
X101699089Y-92619812D01*
X101706458Y-92689928D01*
X101765473Y-92871556D01*
X101860960Y-93036944D01*
X101865378Y-93041851D01*
X101865379Y-93041852D01*
X101951905Y-93137949D01*
X101988747Y-93178866D01*
X102143248Y-93291118D01*
X102149276Y-93293802D01*
X102149278Y-93293803D01*
X102311681Y-93366109D01*
X102317712Y-93368794D01*
X102379244Y-93381873D01*
X102498056Y-93407128D01*
X102498061Y-93407128D01*
X102504513Y-93408500D01*
X102695487Y-93408500D01*
X102701939Y-93407128D01*
X102701944Y-93407128D01*
X102820756Y-93381873D01*
X102882288Y-93368794D01*
X102888319Y-93366109D01*
X103050722Y-93293803D01*
X103050724Y-93293802D01*
X103056752Y-93291118D01*
X103110858Y-93251808D01*
X103194390Y-93191118D01*
X103211253Y-93178866D01*
X103215668Y-93173963D01*
X103220580Y-93169540D01*
X103221705Y-93170789D01*
X103275014Y-93137949D01*
X103308200Y-93133500D01*
X105291800Y-93133500D01*
X105359921Y-93153502D01*
X105379147Y-93169843D01*
X105379420Y-93169540D01*
X105384332Y-93173963D01*
X105388747Y-93178866D01*
X105405610Y-93191118D01*
X105489143Y-93251808D01*
X105543248Y-93291118D01*
X105549276Y-93293802D01*
X105549278Y-93293803D01*
X105711681Y-93366109D01*
X105717712Y-93368794D01*
X105779244Y-93381873D01*
X105898056Y-93407128D01*
X105898061Y-93407128D01*
X105904513Y-93408500D01*
X106095487Y-93408500D01*
X106101939Y-93407128D01*
X106101944Y-93407128D01*
X106220756Y-93381873D01*
X106282288Y-93368794D01*
X106288319Y-93366109D01*
X106450722Y-93293803D01*
X106450724Y-93293802D01*
X106456752Y-93291118D01*
X106611253Y-93178866D01*
X106648095Y-93137949D01*
X106734621Y-93041852D01*
X106734622Y-93041851D01*
X106739040Y-93036944D01*
X106834527Y-92871556D01*
X106854646Y-92809637D01*
X106894720Y-92751031D01*
X106960117Y-92723395D01*
X107030074Y-92735502D01*
X107063574Y-92759479D01*
X108129595Y-93825500D01*
X108163621Y-93887812D01*
X108166500Y-93914595D01*
X108166500Y-94917745D01*
X108146498Y-94985866D01*
X108092842Y-95032359D01*
X108022568Y-95042463D01*
X108003244Y-95038111D01*
X107903768Y-95007318D01*
X107897643Y-95006674D01*
X107897642Y-95006674D01*
X107713204Y-94987289D01*
X107713202Y-94987289D01*
X107707075Y-94986645D01*
X107624576Y-94994153D01*
X107516251Y-95004011D01*
X107516248Y-95004012D01*
X107510112Y-95004570D01*
X107504206Y-95006308D01*
X107504202Y-95006309D01*
X107399076Y-95037249D01*
X107320381Y-95060410D01*
X107314923Y-95063263D01*
X107314919Y-95063265D01*
X107262002Y-95090930D01*
X107145110Y-95152040D01*
X107140312Y-95155898D01*
X107140310Y-95155899D01*
X107068424Y-95213697D01*
X107002802Y-95240793D01*
X106989472Y-95241500D01*
X103210712Y-95241500D01*
X103142591Y-95221498D01*
X103130397Y-95212585D01*
X103098240Y-95185983D01*
X103066675Y-95159870D01*
X102892701Y-95065802D01*
X102703768Y-95007318D01*
X102697643Y-95006674D01*
X102697642Y-95006674D01*
X102513204Y-94987289D01*
X102513202Y-94987289D01*
X102507075Y-94986645D01*
X102424576Y-94994153D01*
X102316251Y-95004011D01*
X102316248Y-95004012D01*
X102310112Y-95004570D01*
X102304206Y-95006308D01*
X102304202Y-95006309D01*
X102199076Y-95037249D01*
X102120381Y-95060410D01*
X102114923Y-95063263D01*
X102114919Y-95063265D01*
X102062002Y-95090930D01*
X101945110Y-95152040D01*
X101790975Y-95275968D01*
X101663846Y-95427474D01*
X101660879Y-95432872D01*
X101660875Y-95432877D01*
X101600167Y-95543307D01*
X101568567Y-95600787D01*
X101566706Y-95606654D01*
X101566705Y-95606656D01*
X101562252Y-95620694D01*
X101508765Y-95789306D01*
X101486719Y-95985851D01*
X101503268Y-96182934D01*
X101557783Y-96373050D01*
X101648187Y-96548956D01*
X101771035Y-96703953D01*
X101775728Y-96707947D01*
X101775729Y-96707948D01*
X101909643Y-96821917D01*
X101921650Y-96832136D01*
X102094294Y-96928624D01*
X102282392Y-96989740D01*
X102478777Y-97013158D01*
X102484912Y-97012686D01*
X102484914Y-97012686D01*
X102669830Y-96998457D01*
X102669834Y-96998456D01*
X102675972Y-96997984D01*
X102866463Y-96944798D01*
X102871967Y-96942018D01*
X102871969Y-96942017D01*
X103037495Y-96858404D01*
X103037497Y-96858403D01*
X103042996Y-96855625D01*
X103133121Y-96785211D01*
X103199116Y-96759033D01*
X103210695Y-96758500D01*
X106988769Y-96758500D01*
X107056890Y-96778502D01*
X107070431Y-96788546D01*
X107121650Y-96832136D01*
X107294294Y-96928624D01*
X107482392Y-96989740D01*
X107678777Y-97013158D01*
X107684912Y-97012686D01*
X107684914Y-97012686D01*
X107869830Y-96998457D01*
X107869834Y-96998456D01*
X107875972Y-96997984D01*
X108023548Y-96956780D01*
X108094537Y-96957726D01*
X108153747Y-96996902D01*
X108179473Y-97046805D01*
X108180532Y-97050930D01*
X108181526Y-97058797D01*
X108184445Y-97066168D01*
X108184445Y-97066170D01*
X108197804Y-97099912D01*
X108201649Y-97111142D01*
X108213982Y-97153593D01*
X108218015Y-97160412D01*
X108218017Y-97160417D01*
X108224293Y-97171028D01*
X108232988Y-97188776D01*
X108240448Y-97207617D01*
X108245110Y-97214033D01*
X108245110Y-97214034D01*
X108266436Y-97243387D01*
X108272952Y-97253307D01*
X108295458Y-97291362D01*
X108309779Y-97305683D01*
X108322619Y-97320716D01*
X108334528Y-97337107D01*
X108340634Y-97342158D01*
X108368605Y-97365298D01*
X108377384Y-97373288D01*
X111596348Y-100592253D01*
X111603888Y-100600539D01*
X111608000Y-100607018D01*
X111613777Y-100612443D01*
X111657651Y-100653643D01*
X111660493Y-100656398D01*
X111680230Y-100676135D01*
X111683427Y-100678615D01*
X111692447Y-100686318D01*
X111724679Y-100716586D01*
X111731625Y-100720405D01*
X111731628Y-100720407D01*
X111742434Y-100726348D01*
X111758953Y-100737199D01*
X111774959Y-100749614D01*
X111782228Y-100752759D01*
X111782232Y-100752762D01*
X111815537Y-100767174D01*
X111826187Y-100772391D01*
X111864940Y-100793695D01*
X111872615Y-100795666D01*
X111872616Y-100795666D01*
X111884562Y-100798733D01*
X111903267Y-100805137D01*
X111921855Y-100813181D01*
X111929678Y-100814420D01*
X111929688Y-100814423D01*
X111965524Y-100820099D01*
X111977144Y-100822505D01*
X112012289Y-100831528D01*
X112019970Y-100833500D01*
X112040224Y-100833500D01*
X112059934Y-100835051D01*
X112079943Y-100838220D01*
X112087835Y-100837474D01*
X112123961Y-100834059D01*
X112135819Y-100833500D01*
X114098434Y-100833500D01*
X114166555Y-100853502D01*
X114205867Y-100893665D01*
X114323241Y-101085202D01*
X114323245Y-101085208D01*
X114325824Y-101089416D01*
X114480031Y-101269969D01*
X114660584Y-101424176D01*
X114664792Y-101426755D01*
X114664798Y-101426759D01*
X114842882Y-101535889D01*
X114863037Y-101548240D01*
X114867607Y-101550133D01*
X114867611Y-101550135D01*
X115048621Y-101625111D01*
X115082406Y-101639105D01*
X115153241Y-101656111D01*
X115308476Y-101693380D01*
X115308482Y-101693381D01*
X115313289Y-101694535D01*
X115550000Y-101713165D01*
X115786711Y-101694535D01*
X115791518Y-101693381D01*
X115791524Y-101693380D01*
X115946759Y-101656111D01*
X116017594Y-101639105D01*
X116051379Y-101625111D01*
X116232389Y-101550135D01*
X116232393Y-101550133D01*
X116236963Y-101548240D01*
X116257118Y-101535889D01*
X116435202Y-101426759D01*
X116435208Y-101426755D01*
X116439416Y-101424176D01*
X116619969Y-101269969D01*
X116774176Y-101089416D01*
X116776755Y-101085208D01*
X116776759Y-101085202D01*
X116894133Y-100893665D01*
X116946781Y-100846034D01*
X117001566Y-100833500D01*
X120598434Y-100833500D01*
X120666555Y-100853502D01*
X120705867Y-100893665D01*
X120823241Y-101085202D01*
X120823245Y-101085208D01*
X120825824Y-101089416D01*
X120980031Y-101269969D01*
X121160584Y-101424176D01*
X121164792Y-101426755D01*
X121164798Y-101426759D01*
X121342882Y-101535889D01*
X121363037Y-101548240D01*
X121367607Y-101550133D01*
X121367611Y-101550135D01*
X121548621Y-101625111D01*
X121582406Y-101639105D01*
X121653241Y-101656111D01*
X121808476Y-101693380D01*
X121808482Y-101693381D01*
X121813289Y-101694535D01*
X122050000Y-101713165D01*
X122286711Y-101694535D01*
X122291518Y-101693381D01*
X122291524Y-101693380D01*
X122446759Y-101656111D01*
X122517594Y-101639105D01*
X122551379Y-101625111D01*
X122732389Y-101550135D01*
X122732393Y-101550133D01*
X122736963Y-101548240D01*
X122757118Y-101535889D01*
X122935202Y-101426759D01*
X122935208Y-101426755D01*
X122939416Y-101424176D01*
X123119969Y-101269969D01*
X123274176Y-101089416D01*
X123276755Y-101085208D01*
X123276759Y-101085202D01*
X123395654Y-100891183D01*
X123398240Y-100886963D01*
X123415194Y-100846034D01*
X123446091Y-100771440D01*
X123490639Y-100716159D01*
X123558003Y-100693738D01*
X123626794Y-100711296D01*
X123675172Y-100763258D01*
X123678909Y-100771440D01*
X123709807Y-100846034D01*
X123726760Y-100886963D01*
X123729346Y-100891183D01*
X123848241Y-101085202D01*
X123848245Y-101085208D01*
X123850824Y-101089416D01*
X124005031Y-101269969D01*
X124185584Y-101424176D01*
X124262658Y-101471407D01*
X124377143Y-101541564D01*
X124424774Y-101594212D01*
X124436381Y-101664254D01*
X124408278Y-101729451D01*
X124385370Y-101750933D01*
X124288747Y-101821134D01*
X124160960Y-101963056D01*
X124065473Y-102128444D01*
X124006458Y-102310072D01*
X123986496Y-102500000D01*
X124006458Y-102689928D01*
X124065473Y-102871556D01*
X124160960Y-103036944D01*
X124165378Y-103041851D01*
X124165379Y-103041852D01*
X124284325Y-103173955D01*
X124288747Y-103178866D01*
X124294087Y-103182746D01*
X124294095Y-103182753D01*
X124310705Y-103194820D01*
X124354060Y-103251042D01*
X124360136Y-103321778D01*
X124327004Y-103384570D01*
X124302481Y-103404188D01*
X124189802Y-103473239D01*
X124185584Y-103475824D01*
X124005031Y-103630031D01*
X123850824Y-103810584D01*
X123848245Y-103814792D01*
X123848241Y-103814798D01*
X123730867Y-104006335D01*
X123726760Y-104013037D01*
X123724867Y-104017607D01*
X123724865Y-104017611D01*
X123678909Y-104128560D01*
X123634361Y-104183841D01*
X123566997Y-104206262D01*
X123498206Y-104188704D01*
X123449828Y-104136742D01*
X123446091Y-104128560D01*
X123400135Y-104017611D01*
X123400133Y-104017607D01*
X123398240Y-104013037D01*
X123394133Y-104006335D01*
X123276759Y-103814798D01*
X123276755Y-103814792D01*
X123274176Y-103810584D01*
X123119969Y-103630031D01*
X122939416Y-103475824D01*
X122935208Y-103473245D01*
X122935202Y-103473241D01*
X122741183Y-103354346D01*
X122736963Y-103351760D01*
X122732393Y-103349867D01*
X122732389Y-103349865D01*
X122522167Y-103262789D01*
X122522165Y-103262788D01*
X122517594Y-103260895D01*
X122437391Y-103241640D01*
X122291524Y-103206620D01*
X122291518Y-103206619D01*
X122286711Y-103205465D01*
X122050000Y-103186835D01*
X121813289Y-103205465D01*
X121808482Y-103206619D01*
X121808476Y-103206620D01*
X121662609Y-103241640D01*
X121582406Y-103260895D01*
X121577835Y-103262788D01*
X121577833Y-103262789D01*
X121367611Y-103349865D01*
X121367607Y-103349867D01*
X121363037Y-103351760D01*
X121358817Y-103354346D01*
X121164798Y-103473241D01*
X121164792Y-103473245D01*
X121160584Y-103475824D01*
X120980031Y-103630031D01*
X120825824Y-103810584D01*
X120823245Y-103814792D01*
X120823241Y-103814798D01*
X120705867Y-104006335D01*
X120653219Y-104053966D01*
X120598434Y-104066500D01*
X117001566Y-104066500D01*
X116933445Y-104046498D01*
X116894133Y-104006335D01*
X116776759Y-103814798D01*
X116776755Y-103814792D01*
X116774176Y-103810584D01*
X116619969Y-103630031D01*
X116439416Y-103475824D01*
X116435208Y-103473245D01*
X116435202Y-103473241D01*
X116241183Y-103354346D01*
X116236963Y-103351760D01*
X116232393Y-103349867D01*
X116232389Y-103349865D01*
X116022167Y-103262789D01*
X116022165Y-103262788D01*
X116017594Y-103260895D01*
X115937391Y-103241640D01*
X115791524Y-103206620D01*
X115791518Y-103206619D01*
X115786711Y-103205465D01*
X115550000Y-103186835D01*
X115313289Y-103205465D01*
X115308482Y-103206619D01*
X115308476Y-103206620D01*
X115162609Y-103241640D01*
X115082406Y-103260895D01*
X115077835Y-103262788D01*
X115077833Y-103262789D01*
X114867611Y-103349865D01*
X114867607Y-103349867D01*
X114863037Y-103351760D01*
X114858817Y-103354346D01*
X114664798Y-103473241D01*
X114664792Y-103473245D01*
X114660584Y-103475824D01*
X114480031Y-103630031D01*
X114325824Y-103810584D01*
X114323245Y-103814792D01*
X114323241Y-103814798D01*
X114205867Y-104006335D01*
X114201760Y-104013037D01*
X114199867Y-104017607D01*
X114199865Y-104017611D01*
X114179615Y-104066500D01*
X114110895Y-104232406D01*
X114055465Y-104463289D01*
X114036835Y-104700000D01*
X114055465Y-104936711D01*
X114110895Y-105167594D01*
X114112788Y-105172165D01*
X114112789Y-105172167D01*
X114184807Y-105346034D01*
X114201760Y-105386963D01*
X114204346Y-105391183D01*
X114323241Y-105585202D01*
X114323245Y-105585208D01*
X114325824Y-105589416D01*
X114431604Y-105713268D01*
X114460635Y-105778058D01*
X114450030Y-105848258D01*
X114403155Y-105901580D01*
X114371367Y-105915973D01*
X114343495Y-105924176D01*
X114220381Y-105960410D01*
X114214923Y-105963263D01*
X114214919Y-105963265D01*
X114136980Y-106004011D01*
X114045110Y-106052040D01*
X113890975Y-106175968D01*
X113887013Y-106180690D01*
X113873753Y-106196492D01*
X113814643Y-106235818D01*
X113777232Y-106241500D01*
X110910712Y-106241500D01*
X110842591Y-106221498D01*
X110830397Y-106212585D01*
X110786134Y-106175968D01*
X110766675Y-106159870D01*
X110592701Y-106065802D01*
X110403768Y-106007318D01*
X110397643Y-106006674D01*
X110397642Y-106006674D01*
X110213204Y-105987289D01*
X110213202Y-105987289D01*
X110207075Y-105986645D01*
X110124576Y-105994153D01*
X110016251Y-106004011D01*
X110016248Y-106004012D01*
X110010112Y-106004570D01*
X110004206Y-106006308D01*
X110004202Y-106006309D01*
X109899076Y-106037249D01*
X109820381Y-106060410D01*
X109814923Y-106063263D01*
X109814919Y-106063265D01*
X109724147Y-106110720D01*
X109645110Y-106152040D01*
X109490975Y-106275968D01*
X109363846Y-106427474D01*
X109360879Y-106432872D01*
X109360875Y-106432877D01*
X109282095Y-106576180D01*
X109268567Y-106600787D01*
X109266706Y-106606654D01*
X109266705Y-106606656D01*
X109236090Y-106703167D01*
X109208765Y-106789306D01*
X109186719Y-106985851D01*
X109187235Y-106991995D01*
X109197849Y-107118393D01*
X109203268Y-107182934D01*
X109257783Y-107373050D01*
X109348187Y-107548956D01*
X109471035Y-107703953D01*
X109475728Y-107707947D01*
X109475729Y-107707948D01*
X109613993Y-107825619D01*
X109621650Y-107832136D01*
X109794294Y-107928624D01*
X109982392Y-107989740D01*
X110178777Y-108013158D01*
X110184912Y-108012686D01*
X110184914Y-108012686D01*
X110369830Y-107998457D01*
X110369834Y-107998456D01*
X110375972Y-107997984D01*
X110566463Y-107944798D01*
X110571967Y-107942018D01*
X110571969Y-107942017D01*
X110737495Y-107858404D01*
X110737497Y-107858403D01*
X110742996Y-107855625D01*
X110833121Y-107785211D01*
X110899116Y-107759033D01*
X110910695Y-107758500D01*
X114036002Y-107758500D01*
X114097473Y-107774512D01*
X114188916Y-107825619D01*
X114188922Y-107825621D01*
X114194294Y-107828624D01*
X114382392Y-107889740D01*
X114578777Y-107913158D01*
X114584912Y-107912686D01*
X114584914Y-107912686D01*
X114769830Y-107898457D01*
X114769834Y-107898456D01*
X114775972Y-107897984D01*
X114966463Y-107844798D01*
X114971967Y-107842018D01*
X114971969Y-107842017D01*
X115137495Y-107758404D01*
X115137497Y-107758403D01*
X115142996Y-107755625D01*
X115298847Y-107633861D01*
X115428078Y-107484145D01*
X115525769Y-107312179D01*
X115588197Y-107124513D01*
X115612985Y-106928295D01*
X115613380Y-106900000D01*
X115594080Y-106703167D01*
X115536916Y-106513831D01*
X115474220Y-106395916D01*
X115459901Y-106326379D01*
X115485449Y-106260138D01*
X115542754Y-106218225D01*
X115575584Y-106211151D01*
X115786711Y-106194535D01*
X115791518Y-106193381D01*
X115791524Y-106193380D01*
X115947625Y-106155903D01*
X116017594Y-106139105D01*
X116187491Y-106068732D01*
X116232389Y-106050135D01*
X116232393Y-106050133D01*
X116236963Y-106048240D01*
X116300768Y-106009140D01*
X116435202Y-105926759D01*
X116435208Y-105926755D01*
X116439416Y-105924176D01*
X116619969Y-105769969D01*
X116774176Y-105589416D01*
X116776755Y-105585208D01*
X116776759Y-105585202D01*
X116894133Y-105393665D01*
X116946781Y-105346034D01*
X117001566Y-105333500D01*
X120598434Y-105333500D01*
X120666555Y-105353502D01*
X120705867Y-105393665D01*
X120823241Y-105585202D01*
X120823245Y-105585208D01*
X120825824Y-105589416D01*
X120980031Y-105769969D01*
X121160584Y-105924176D01*
X121164792Y-105926755D01*
X121164798Y-105926759D01*
X121299232Y-106009140D01*
X121363037Y-106048240D01*
X121367607Y-106050133D01*
X121367611Y-106050135D01*
X121412509Y-106068732D01*
X121582406Y-106139105D01*
X121652375Y-106155903D01*
X121808476Y-106193380D01*
X121808482Y-106193381D01*
X121813289Y-106194535D01*
X122050000Y-106213165D01*
X122286711Y-106194535D01*
X122291518Y-106193381D01*
X122291524Y-106193380D01*
X122447625Y-106155903D01*
X122517594Y-106139105D01*
X122687491Y-106068732D01*
X122732389Y-106050135D01*
X122732393Y-106050133D01*
X122736963Y-106048240D01*
X122800768Y-106009140D01*
X122935202Y-105926759D01*
X122935208Y-105926755D01*
X122939416Y-105924176D01*
X123119969Y-105769969D01*
X123274176Y-105589416D01*
X123276755Y-105585208D01*
X123276759Y-105585202D01*
X123395654Y-105391183D01*
X123398240Y-105386963D01*
X123415194Y-105346034D01*
X123446091Y-105271440D01*
X123490639Y-105216159D01*
X123558003Y-105193738D01*
X123626794Y-105211296D01*
X123675172Y-105263258D01*
X123678909Y-105271440D01*
X123709807Y-105346034D01*
X123726760Y-105386963D01*
X123729346Y-105391183D01*
X123848241Y-105585202D01*
X123848245Y-105585208D01*
X123850824Y-105589416D01*
X124005031Y-105769969D01*
X124185584Y-105924176D01*
X124189792Y-105926755D01*
X124189798Y-105926759D01*
X124324232Y-106009140D01*
X124388037Y-106048240D01*
X124392607Y-106050133D01*
X124392611Y-106050135D01*
X124437509Y-106068732D01*
X124607406Y-106139105D01*
X124677375Y-106155903D01*
X124833476Y-106193380D01*
X124833482Y-106193381D01*
X124838289Y-106194535D01*
X125075000Y-106213165D01*
X125311711Y-106194535D01*
X125316518Y-106193381D01*
X125316524Y-106193380D01*
X125472625Y-106155903D01*
X125542594Y-106139105D01*
X125712491Y-106068732D01*
X125757389Y-106050135D01*
X125757393Y-106050133D01*
X125761963Y-106048240D01*
X125825768Y-106009140D01*
X125960202Y-105926759D01*
X125960208Y-105926755D01*
X125964416Y-105924176D01*
X126144969Y-105769969D01*
X126299176Y-105589416D01*
X126301755Y-105585208D01*
X126301759Y-105585202D01*
X126419133Y-105393665D01*
X126471781Y-105346034D01*
X126526566Y-105333500D01*
X130123434Y-105333500D01*
X130191555Y-105353502D01*
X130230867Y-105393665D01*
X130348241Y-105585202D01*
X130348245Y-105585208D01*
X130350824Y-105589416D01*
X130505031Y-105769969D01*
X130685584Y-105924176D01*
X130689792Y-105926755D01*
X130689798Y-105926759D01*
X130824232Y-106009140D01*
X130888037Y-106048240D01*
X130892607Y-106050133D01*
X130892611Y-106050135D01*
X130937509Y-106068732D01*
X131107406Y-106139105D01*
X131177375Y-106155903D01*
X131333476Y-106193380D01*
X131333482Y-106193381D01*
X131338289Y-106194535D01*
X131575000Y-106213165D01*
X131811711Y-106194535D01*
X131816518Y-106193381D01*
X131816524Y-106193380D01*
X131972625Y-106155903D01*
X132042594Y-106139105D01*
X132212491Y-106068732D01*
X132257389Y-106050135D01*
X132257393Y-106050133D01*
X132261963Y-106048240D01*
X132325768Y-106009140D01*
X132460202Y-105926759D01*
X132460208Y-105926755D01*
X132464416Y-105924176D01*
X132644969Y-105769969D01*
X132799176Y-105589416D01*
X132801755Y-105585208D01*
X132801759Y-105585202D01*
X132920654Y-105391183D01*
X132923240Y-105386963D01*
X132940194Y-105346034D01*
X132971091Y-105271440D01*
X133015639Y-105216159D01*
X133083003Y-105193738D01*
X133151794Y-105211296D01*
X133200172Y-105263258D01*
X133203909Y-105271440D01*
X133234807Y-105346034D01*
X133251760Y-105386963D01*
X133254346Y-105391183D01*
X133373241Y-105585202D01*
X133373245Y-105585208D01*
X133375824Y-105589416D01*
X133530031Y-105769969D01*
X133710584Y-105924176D01*
X133714792Y-105926755D01*
X133714798Y-105926759D01*
X133849232Y-106009140D01*
X133913037Y-106048240D01*
X133917607Y-106050133D01*
X133917611Y-106050135D01*
X133962509Y-106068732D01*
X134132406Y-106139105D01*
X134202375Y-106155903D01*
X134358476Y-106193380D01*
X134358482Y-106193381D01*
X134363289Y-106194535D01*
X134600000Y-106213165D01*
X134836711Y-106194535D01*
X134841518Y-106193381D01*
X134841524Y-106193380D01*
X134997625Y-106155903D01*
X135067594Y-106139105D01*
X135237491Y-106068732D01*
X135282389Y-106050135D01*
X135282393Y-106050133D01*
X135286963Y-106048240D01*
X135350768Y-106009140D01*
X135485202Y-105926759D01*
X135485208Y-105926755D01*
X135489416Y-105924176D01*
X135669969Y-105769969D01*
X135824176Y-105589416D01*
X135826755Y-105585208D01*
X135826759Y-105585202D01*
X135944133Y-105393665D01*
X135996781Y-105346034D01*
X136051566Y-105333500D01*
X139648434Y-105333500D01*
X139716555Y-105353502D01*
X139755867Y-105393665D01*
X139873241Y-105585202D01*
X139873245Y-105585208D01*
X139875824Y-105589416D01*
X140030031Y-105769969D01*
X140210584Y-105924176D01*
X140214792Y-105926755D01*
X140214798Y-105926759D01*
X140349232Y-106009140D01*
X140413037Y-106048240D01*
X140417607Y-106050133D01*
X140417611Y-106050135D01*
X140462509Y-106068732D01*
X140632406Y-106139105D01*
X140702375Y-106155903D01*
X140858476Y-106193380D01*
X140858482Y-106193381D01*
X140863289Y-106194535D01*
X141100000Y-106213165D01*
X141336711Y-106194535D01*
X141341518Y-106193381D01*
X141341524Y-106193380D01*
X141497625Y-106155903D01*
X141567594Y-106139105D01*
X141737491Y-106068732D01*
X141782389Y-106050135D01*
X141782393Y-106050133D01*
X141786963Y-106048240D01*
X141850768Y-106009140D01*
X141985202Y-105926759D01*
X141985208Y-105926755D01*
X141989416Y-105924176D01*
X142169969Y-105769969D01*
X142324176Y-105589416D01*
X142326755Y-105585208D01*
X142326759Y-105585202D01*
X142445654Y-105391183D01*
X142448240Y-105386963D01*
X142465194Y-105346034D01*
X142537211Y-105172167D01*
X142537212Y-105172165D01*
X142539105Y-105167594D01*
X142594535Y-104936711D01*
X142613165Y-104700000D01*
X142594535Y-104463289D01*
X142539105Y-104232406D01*
X142470385Y-104066500D01*
X142450135Y-104017611D01*
X142450133Y-104017607D01*
X142448240Y-104013037D01*
X142444133Y-104006335D01*
X142326759Y-103814798D01*
X142326755Y-103814792D01*
X142324176Y-103810584D01*
X142169969Y-103630031D01*
X141989416Y-103475824D01*
X141985208Y-103473245D01*
X141985202Y-103473241D01*
X141791183Y-103354346D01*
X141786963Y-103351760D01*
X141782393Y-103349867D01*
X141782389Y-103349865D01*
X141572167Y-103262789D01*
X141572165Y-103262788D01*
X141567594Y-103260895D01*
X141487391Y-103241640D01*
X141341524Y-103206620D01*
X141341518Y-103206619D01*
X141336711Y-103205465D01*
X141100000Y-103186835D01*
X140863289Y-103205465D01*
X140858482Y-103206619D01*
X140858476Y-103206620D01*
X140712609Y-103241640D01*
X140632406Y-103260895D01*
X140627835Y-103262788D01*
X140627833Y-103262789D01*
X140417611Y-103349865D01*
X140417607Y-103349867D01*
X140413037Y-103351760D01*
X140408817Y-103354346D01*
X140214798Y-103473241D01*
X140214792Y-103473245D01*
X140210584Y-103475824D01*
X140030031Y-103630031D01*
X139875824Y-103810584D01*
X139873245Y-103814792D01*
X139873241Y-103814798D01*
X139755867Y-104006335D01*
X139703219Y-104053966D01*
X139648434Y-104066500D01*
X136051566Y-104066500D01*
X135983445Y-104046498D01*
X135944133Y-104006335D01*
X135826759Y-103814798D01*
X135826755Y-103814792D01*
X135824176Y-103810584D01*
X135669969Y-103630031D01*
X135489416Y-103475824D01*
X135485208Y-103473245D01*
X135485202Y-103473241D01*
X135291183Y-103354346D01*
X135286963Y-103351760D01*
X135282393Y-103349867D01*
X135282389Y-103349865D01*
X135072167Y-103262789D01*
X135072165Y-103262788D01*
X135067594Y-103260895D01*
X134987391Y-103241640D01*
X134841524Y-103206620D01*
X134841518Y-103206619D01*
X134836711Y-103205465D01*
X134600000Y-103186835D01*
X134363289Y-103205465D01*
X134358482Y-103206619D01*
X134358476Y-103206620D01*
X134152127Y-103256160D01*
X134081219Y-103252613D01*
X134023485Y-103211293D01*
X133997403Y-103146810D01*
X133996624Y-103139392D01*
X133993542Y-103110072D01*
X133934527Y-102928444D01*
X133839040Y-102763056D01*
X133765863Y-102681785D01*
X133735147Y-102617779D01*
X133733500Y-102597476D01*
X133733500Y-101803768D01*
X133734027Y-101792585D01*
X133735702Y-101785092D01*
X133733562Y-101717001D01*
X133733500Y-101713044D01*
X133733500Y-101685144D01*
X133732996Y-101681153D01*
X133732063Y-101669298D01*
X133731930Y-101665052D01*
X133749789Y-101596338D01*
X133801963Y-101548188D01*
X133871886Y-101535889D01*
X133913008Y-101548222D01*
X133913037Y-101548240D01*
X133956404Y-101566203D01*
X134096159Y-101624091D01*
X134132406Y-101639105D01*
X134203241Y-101656111D01*
X134358476Y-101693380D01*
X134358482Y-101693381D01*
X134363289Y-101694535D01*
X134600000Y-101713165D01*
X134836711Y-101694535D01*
X134841518Y-101693381D01*
X134841524Y-101693380D01*
X134996759Y-101656111D01*
X135067594Y-101639105D01*
X135101379Y-101625111D01*
X135282389Y-101550135D01*
X135282393Y-101550133D01*
X135286963Y-101548240D01*
X135307118Y-101535889D01*
X135485202Y-101426759D01*
X135485208Y-101426755D01*
X135489416Y-101424176D01*
X135669969Y-101269969D01*
X135824176Y-101089416D01*
X135826755Y-101085208D01*
X135826759Y-101085202D01*
X135944133Y-100893665D01*
X135996781Y-100846034D01*
X136051566Y-100833500D01*
X139648434Y-100833500D01*
X139716555Y-100853502D01*
X139755867Y-100893665D01*
X139873241Y-101085202D01*
X139873245Y-101085208D01*
X139875824Y-101089416D01*
X140030031Y-101269969D01*
X140210584Y-101424176D01*
X140214792Y-101426755D01*
X140214798Y-101426759D01*
X140392882Y-101535889D01*
X140413037Y-101548240D01*
X140417607Y-101550133D01*
X140417611Y-101550135D01*
X140598621Y-101625111D01*
X140632406Y-101639105D01*
X140703241Y-101656111D01*
X140858476Y-101693380D01*
X140858482Y-101693381D01*
X140863289Y-101694535D01*
X141100000Y-101713165D01*
X141336711Y-101694535D01*
X141341518Y-101693381D01*
X141341524Y-101693380D01*
X141496759Y-101656111D01*
X141567594Y-101639105D01*
X141601379Y-101625111D01*
X141782389Y-101550135D01*
X141782393Y-101550133D01*
X141786963Y-101548240D01*
X141807118Y-101535889D01*
X141985202Y-101426759D01*
X141985208Y-101426755D01*
X141989416Y-101424176D01*
X142169969Y-101269969D01*
X142324176Y-101089416D01*
X142326755Y-101085208D01*
X142326759Y-101085202D01*
X142445654Y-100891183D01*
X142448240Y-100886963D01*
X142465194Y-100846034D01*
X142537211Y-100672167D01*
X142537212Y-100672165D01*
X142539105Y-100667594D01*
X142594535Y-100436711D01*
X142613165Y-100200000D01*
X142594535Y-99963289D01*
X142539105Y-99732406D01*
X142537211Y-99727833D01*
X142450135Y-99517611D01*
X142450133Y-99517607D01*
X142448240Y-99513037D01*
X142444133Y-99506335D01*
X142326759Y-99314798D01*
X142326755Y-99314792D01*
X142324176Y-99310584D01*
X142169969Y-99130031D01*
X141989416Y-98975824D01*
X141985208Y-98973245D01*
X141985202Y-98973241D01*
X141791183Y-98854346D01*
X141786963Y-98851760D01*
X141782393Y-98849867D01*
X141782389Y-98849865D01*
X141572167Y-98762789D01*
X141572165Y-98762788D01*
X141567594Y-98760895D01*
X141487391Y-98741640D01*
X141341524Y-98706620D01*
X141341518Y-98706619D01*
X141336711Y-98705465D01*
X141100000Y-98686835D01*
X140863289Y-98705465D01*
X140858482Y-98706619D01*
X140858476Y-98706620D01*
X140712609Y-98741640D01*
X140632406Y-98760895D01*
X140627835Y-98762788D01*
X140627833Y-98762789D01*
X140417611Y-98849865D01*
X140417607Y-98849867D01*
X140413037Y-98851760D01*
X140408817Y-98854346D01*
X140214798Y-98973241D01*
X140214792Y-98973245D01*
X140210584Y-98975824D01*
X140030031Y-99130031D01*
X139875824Y-99310584D01*
X139873245Y-99314792D01*
X139873241Y-99314798D01*
X139755867Y-99506335D01*
X139703219Y-99553966D01*
X139648434Y-99566500D01*
X136051566Y-99566500D01*
X135983445Y-99546498D01*
X135944133Y-99506335D01*
X135826759Y-99314798D01*
X135826755Y-99314792D01*
X135824176Y-99310584D01*
X135669969Y-99130031D01*
X135489416Y-98975824D01*
X135485208Y-98973245D01*
X135485202Y-98973241D01*
X135291183Y-98854346D01*
X135286963Y-98851760D01*
X135282393Y-98849867D01*
X135282389Y-98849865D01*
X135072167Y-98762789D01*
X135072165Y-98762788D01*
X135067594Y-98760895D01*
X134987391Y-98741640D01*
X134841524Y-98706620D01*
X134841518Y-98706619D01*
X134836711Y-98705465D01*
X134600000Y-98686835D01*
X134363289Y-98705465D01*
X134358482Y-98706619D01*
X134358476Y-98706620D01*
X134192896Y-98746373D01*
X134140049Y-98759060D01*
X134069142Y-98755513D01*
X134021541Y-98725636D01*
X130010405Y-94714500D01*
X129976379Y-94652188D01*
X129973500Y-94625405D01*
X129973500Y-94331002D01*
X130842035Y-94331002D01*
X130843209Y-94515061D01*
X130844284Y-94520697D01*
X130844284Y-94520701D01*
X130869355Y-94652188D01*
X130877683Y-94695867D01*
X130944316Y-94867445D01*
X130947325Y-94872325D01*
X130947327Y-94872330D01*
X131037882Y-95019217D01*
X131040909Y-95024127D01*
X131164268Y-95160734D01*
X131168816Y-95164222D01*
X131168820Y-95164226D01*
X131233320Y-95213697D01*
X131310318Y-95272754D01*
X131474234Y-95356485D01*
X131507495Y-95366419D01*
X131645096Y-95407517D01*
X131645099Y-95407518D01*
X131650598Y-95409160D01*
X131694911Y-95413974D01*
X131827884Y-95428420D01*
X131827887Y-95428420D01*
X131833584Y-95429039D01*
X131918671Y-95422747D01*
X132011429Y-95415888D01*
X132011432Y-95415888D01*
X132017146Y-95415465D01*
X132195218Y-95368887D01*
X132200490Y-95366419D01*
X132320819Y-95310083D01*
X132329602Y-95306370D01*
X132351585Y-95298041D01*
X132351962Y-95299035D01*
X132399135Y-95288500D01*
X133895106Y-95288500D01*
X133914477Y-95289998D01*
X133929510Y-95292337D01*
X133963559Y-95302724D01*
X134104797Y-95368849D01*
X134282862Y-95415425D01*
X134288576Y-95415848D01*
X134288579Y-95415848D01*
X134381881Y-95422747D01*
X134466416Y-95428998D01*
X134472114Y-95428379D01*
X134472116Y-95428379D01*
X134604344Y-95414014D01*
X134649394Y-95409120D01*
X134654893Y-95407478D01*
X134654896Y-95407477D01*
X134756579Y-95377107D01*
X134825752Y-95356447D01*
X134946027Y-95295008D01*
X134984555Y-95275327D01*
X134984557Y-95275326D01*
X134989660Y-95272719D01*
X135135705Y-95160704D01*
X135221403Y-95065802D01*
X135255214Y-95028360D01*
X135259059Y-95024102D01*
X135324627Y-94917745D01*
X135352636Y-94872312D01*
X135352638Y-94872308D01*
X135355647Y-94867427D01*
X135358053Y-94861233D01*
X135415037Y-94714500D01*
X135422278Y-94695855D01*
X135435711Y-94625405D01*
X135455675Y-94520697D01*
X135455675Y-94520693D01*
X135456750Y-94515057D01*
X135457924Y-94331005D01*
X135448547Y-94278167D01*
X135426764Y-94155433D01*
X135426764Y-94155432D01*
X135425761Y-94149782D01*
X135377204Y-94019862D01*
X135374209Y-94010820D01*
X135369028Y-93992938D01*
X135367670Y-93988251D01*
X135366404Y-93985537D01*
X135359726Y-93958778D01*
X135359557Y-93957487D01*
X135358499Y-93941192D01*
X135358499Y-92626545D01*
X135360001Y-92607148D01*
X135363601Y-92584042D01*
X135370073Y-92559326D01*
X135423789Y-92415608D01*
X135423791Y-92415601D01*
X135425798Y-92410231D01*
X135447596Y-92287411D01*
X135456959Y-92234653D01*
X135456959Y-92234650D01*
X135457962Y-92229000D01*
X135456789Y-92044941D01*
X135422316Y-91864135D01*
X135404108Y-91817251D01*
X135357759Y-91697904D01*
X135357757Y-91697900D01*
X135355682Y-91692557D01*
X135259090Y-91535875D01*
X135135731Y-91399268D01*
X135131183Y-91395780D01*
X135131179Y-91395776D01*
X135058782Y-91340248D01*
X134989681Y-91287248D01*
X134825765Y-91203517D01*
X134753272Y-91181865D01*
X134654902Y-91152485D01*
X134654899Y-91152484D01*
X134649400Y-91150842D01*
X134587469Y-91144114D01*
X134472114Y-91131582D01*
X134472111Y-91131582D01*
X134466414Y-91130963D01*
X134409022Y-91135207D01*
X134288567Y-91144114D01*
X134288563Y-91144115D01*
X134282852Y-91144537D01*
X134252467Y-91152485D01*
X134110330Y-91189664D01*
X134110327Y-91189665D01*
X134104780Y-91191116D01*
X134099587Y-91193547D01*
X134099582Y-91193549D01*
X133979162Y-91249927D01*
X133970403Y-91253631D01*
X133948415Y-91261963D01*
X133948414Y-91261964D01*
X133948036Y-91260967D01*
X133900870Y-91271501D01*
X132404888Y-91271501D01*
X132385517Y-91270003D01*
X132370503Y-91267667D01*
X132336451Y-91257279D01*
X132195205Y-91191151D01*
X132189661Y-91189701D01*
X132189656Y-91189699D01*
X132047525Y-91152522D01*
X132017140Y-91144574D01*
X132011426Y-91144151D01*
X132011423Y-91144151D01*
X131910812Y-91136712D01*
X131833585Y-91131001D01*
X131827887Y-91131620D01*
X131827885Y-91131620D01*
X131712878Y-91144114D01*
X131650605Y-91150879D01*
X131645106Y-91152521D01*
X131645103Y-91152522D01*
X131548684Y-91181320D01*
X131474247Y-91203553D01*
X131310338Y-91287281D01*
X131164293Y-91399297D01*
X131040939Y-91535900D01*
X131005817Y-91592872D01*
X130947362Y-91687690D01*
X130947360Y-91687694D01*
X130944351Y-91692575D01*
X130877720Y-91864148D01*
X130843249Y-92044947D01*
X130842076Y-92228999D01*
X130874240Y-92410223D01*
X130876248Y-92415596D01*
X130876249Y-92415599D01*
X130922792Y-92540127D01*
X130925787Y-92549171D01*
X130932331Y-92571755D01*
X130933589Y-92574453D01*
X130940251Y-92601113D01*
X130940430Y-92602477D01*
X130941501Y-92618872D01*
X130941501Y-93933390D01*
X130939995Y-93952813D01*
X130936371Y-93976042D01*
X130929903Y-94000731D01*
X130922750Y-94019869D01*
X130874200Y-94149771D01*
X130873197Y-94155421D01*
X130873197Y-94155422D01*
X130846750Y-94304438D01*
X130842035Y-94331002D01*
X129973500Y-94331002D01*
X129973500Y-87818167D01*
X129993502Y-87750046D01*
X130051282Y-87701758D01*
X130184913Y-87646406D01*
X130301988Y-87597912D01*
X130534285Y-87462168D01*
X130603192Y-87445069D01*
X130670405Y-87467938D01*
X130714583Y-87523514D01*
X130721702Y-87594153D01*
X130719897Y-87602291D01*
X130688052Y-87726320D01*
X130688051Y-87726328D01*
X130687064Y-87730170D01*
X130647600Y-88042562D01*
X130647600Y-88357438D01*
X130687064Y-88669830D01*
X130765370Y-88974813D01*
X130881284Y-89267577D01*
X130883186Y-89271036D01*
X130883187Y-89271039D01*
X131015112Y-89511009D01*
X131032976Y-89543504D01*
X131218055Y-89798244D01*
X131433602Y-90027778D01*
X131676218Y-90228487D01*
X131942076Y-90397206D01*
X131945655Y-90398890D01*
X131945662Y-90398894D01*
X132223394Y-90529584D01*
X132223398Y-90529586D01*
X132226984Y-90531273D01*
X132526448Y-90628575D01*
X132835746Y-90687577D01*
X132929300Y-90693463D01*
X133069358Y-90702275D01*
X133069374Y-90702276D01*
X133071353Y-90702400D01*
X133228647Y-90702400D01*
X133230626Y-90702276D01*
X133230642Y-90702275D01*
X133370700Y-90693463D01*
X133464254Y-90687577D01*
X133773552Y-90628575D01*
X134073016Y-90531273D01*
X134076602Y-90529586D01*
X134076606Y-90529584D01*
X134354338Y-90398894D01*
X134354345Y-90398890D01*
X134357924Y-90397206D01*
X134623782Y-90228487D01*
X134866398Y-90027778D01*
X135081945Y-89798244D01*
X135267024Y-89543504D01*
X135284889Y-89511009D01*
X135416813Y-89271039D01*
X135416814Y-89271036D01*
X135418716Y-89267577D01*
X135534630Y-88974813D01*
X135612936Y-88669830D01*
X135652400Y-88357438D01*
X135652400Y-88134593D01*
X136843039Y-88134593D01*
X136851848Y-88369216D01*
X136852943Y-88374434D01*
X136877794Y-88492871D01*
X136900062Y-88599001D01*
X136986302Y-88817377D01*
X137108104Y-89018100D01*
X137261985Y-89195432D01*
X137266117Y-89198820D01*
X137439416Y-89340917D01*
X137439422Y-89340921D01*
X137443544Y-89344301D01*
X137448180Y-89346940D01*
X137448183Y-89346942D01*
X137607438Y-89437595D01*
X137647590Y-89460451D01*
X137868289Y-89540561D01*
X137873538Y-89541510D01*
X137873541Y-89541511D01*
X137954615Y-89556171D01*
X138099330Y-89582340D01*
X138103469Y-89582535D01*
X138103476Y-89582536D01*
X138122440Y-89583430D01*
X138122449Y-89583430D01*
X138123929Y-89583500D01*
X138288950Y-89583500D01*
X138370299Y-89576597D01*
X138458637Y-89569102D01*
X138458641Y-89569101D01*
X138463948Y-89568651D01*
X138469103Y-89567313D01*
X138469109Y-89567312D01*
X138686035Y-89511009D01*
X138686034Y-89511009D01*
X138691206Y-89509667D01*
X138696072Y-89507475D01*
X138696075Y-89507474D01*
X138900417Y-89415424D01*
X138900420Y-89415423D01*
X138905278Y-89413234D01*
X139100041Y-89282112D01*
X139269927Y-89120049D01*
X139410078Y-88931679D01*
X139470719Y-88812408D01*
X139514069Y-88727144D01*
X139514069Y-88727143D01*
X139516487Y-88722388D01*
X139586111Y-88498160D01*
X139603202Y-88369216D01*
X139616261Y-88270690D01*
X139616261Y-88270687D01*
X139616961Y-88265407D01*
X139608152Y-88030784D01*
X139584185Y-87916557D01*
X139561035Y-87806226D01*
X139561034Y-87806223D01*
X139559938Y-87800999D01*
X139473698Y-87582623D01*
X139351896Y-87381900D01*
X139198015Y-87204568D01*
X139187938Y-87196306D01*
X139020584Y-87059083D01*
X139020578Y-87059079D01*
X139016456Y-87055699D01*
X139011820Y-87053060D01*
X139011817Y-87053058D01*
X138817053Y-86942192D01*
X138812410Y-86939549D01*
X138591711Y-86859439D01*
X138586462Y-86858490D01*
X138586459Y-86858489D01*
X138505385Y-86843829D01*
X138360670Y-86817660D01*
X138356531Y-86817465D01*
X138356524Y-86817464D01*
X138337560Y-86816570D01*
X138337551Y-86816570D01*
X138336071Y-86816500D01*
X138171050Y-86816500D01*
X138089701Y-86823403D01*
X138001363Y-86830898D01*
X138001359Y-86830899D01*
X137996052Y-86831349D01*
X137990897Y-86832687D01*
X137990891Y-86832688D01*
X137813177Y-86878814D01*
X137768794Y-86890333D01*
X137763928Y-86892525D01*
X137763925Y-86892526D01*
X137559583Y-86984576D01*
X137559580Y-86984577D01*
X137554722Y-86986766D01*
X137359959Y-87117888D01*
X137190073Y-87279951D01*
X137049922Y-87468321D01*
X137047506Y-87473072D01*
X137047504Y-87473076D01*
X136981808Y-87602291D01*
X136943513Y-87677612D01*
X136941931Y-87682707D01*
X136877546Y-87890064D01*
X136873889Y-87901840D01*
X136873188Y-87907129D01*
X136856092Y-88036116D01*
X136843039Y-88134593D01*
X135652400Y-88134593D01*
X135652400Y-88042562D01*
X135612936Y-87730170D01*
X135534630Y-87425187D01*
X135418716Y-87132423D01*
X135412749Y-87121569D01*
X135268933Y-86859968D01*
X135268931Y-86859965D01*
X135267024Y-86856496D01*
X135135118Y-86674942D01*
X135084273Y-86604960D01*
X135084272Y-86604958D01*
X135081945Y-86601756D01*
X134866398Y-86372222D01*
X134623782Y-86171513D01*
X134357924Y-86002794D01*
X134354345Y-86001110D01*
X134354338Y-86001106D01*
X134076606Y-85870416D01*
X134076602Y-85870414D01*
X134073016Y-85868727D01*
X133773552Y-85771425D01*
X133464254Y-85712423D01*
X133370700Y-85706537D01*
X133230642Y-85697725D01*
X133230626Y-85697724D01*
X133228647Y-85697600D01*
X133071353Y-85697600D01*
X133069374Y-85697724D01*
X133069358Y-85697725D01*
X132929300Y-85706537D01*
X132835746Y-85712423D01*
X132526448Y-85771425D01*
X132226984Y-85868727D01*
X132223398Y-85870414D01*
X132223394Y-85870416D01*
X131945662Y-86001106D01*
X131945655Y-86001110D01*
X131942076Y-86002794D01*
X131676218Y-86171513D01*
X131673169Y-86174036D01*
X131673164Y-86174039D01*
X131667412Y-86178797D01*
X131602173Y-86206804D01*
X131532149Y-86195095D01*
X131479572Y-86147386D01*
X131461134Y-86078825D01*
X131464280Y-86053584D01*
X131476907Y-85998453D01*
X131482537Y-85935376D01*
X131502849Y-85707776D01*
X131502849Y-85707774D01*
X131503069Y-85705310D01*
X131503544Y-85660000D01*
X131502000Y-85637344D01*
X131483819Y-85370650D01*
X131483818Y-85370644D01*
X131483527Y-85366373D01*
X131423845Y-85078180D01*
X131325603Y-84800753D01*
X131190618Y-84539226D01*
X131176793Y-84519554D01*
X131023856Y-84301948D01*
X131023855Y-84301947D01*
X131021389Y-84298438D01*
X130821048Y-84082844D01*
X130798936Y-84064745D01*
X130596618Y-83899151D01*
X130593300Y-83896435D01*
X130342361Y-83742660D01*
X130323706Y-83734471D01*
X130076802Y-83626087D01*
X130076798Y-83626086D01*
X130072874Y-83624363D01*
X129789826Y-83543735D01*
X129785584Y-83543131D01*
X129785578Y-83543130D01*
X129502705Y-83502871D01*
X129498454Y-83502266D01*
X129343306Y-83501454D01*
X129208436Y-83500747D01*
X129208430Y-83500747D01*
X129204150Y-83500725D01*
X129199906Y-83501284D01*
X129199902Y-83501284D01*
X129071341Y-83518210D01*
X128912360Y-83539140D01*
X128908220Y-83540273D01*
X128908218Y-83540273D01*
X128891261Y-83544912D01*
X128628483Y-83616800D01*
X128624533Y-83618485D01*
X128361714Y-83730586D01*
X128361707Y-83730590D01*
X128357772Y-83732268D01*
X128205386Y-83823469D01*
X128108918Y-83881204D01*
X128108914Y-83881207D01*
X128105236Y-83883408D01*
X127875549Y-84067422D01*
X127872605Y-84070524D01*
X127872601Y-84070528D01*
X127726137Y-84224869D01*
X127672961Y-84280905D01*
X127501220Y-84519908D01*
X127363504Y-84780007D01*
X127331452Y-84867592D01*
X127269277Y-85037495D01*
X127262362Y-85056390D01*
X127199666Y-85343943D01*
X127176575Y-85637344D01*
X127193516Y-85931164D01*
X127194341Y-85935371D01*
X127194342Y-85935376D01*
X127207238Y-86001106D01*
X127250177Y-86219966D01*
X127251564Y-86224016D01*
X127251565Y-86224021D01*
X127326334Y-86442403D01*
X127345509Y-86498407D01*
X127347436Y-86502238D01*
X127469913Y-86745757D01*
X127477747Y-86761334D01*
X127480177Y-86764869D01*
X127490997Y-86780613D01*
X127513097Y-86848083D01*
X127495211Y-86916789D01*
X127438907Y-86966862D01*
X127399587Y-86984574D01*
X127399582Y-86984577D01*
X127394722Y-86986766D01*
X127199959Y-87117888D01*
X127030073Y-87279951D01*
X126889922Y-87468321D01*
X126887506Y-87473072D01*
X126887504Y-87473076D01*
X126821808Y-87602291D01*
X126783513Y-87677612D01*
X126781931Y-87682707D01*
X126717546Y-87890064D01*
X126713889Y-87901840D01*
X126713188Y-87907129D01*
X126696092Y-88036116D01*
X126683039Y-88134593D01*
X126691848Y-88369216D01*
X126692943Y-88374434D01*
X126717794Y-88492871D01*
X126740062Y-88599001D01*
X126826302Y-88817377D01*
X126948104Y-89018100D01*
X127101985Y-89195432D01*
X127106117Y-89198820D01*
X127279416Y-89340917D01*
X127279422Y-89340921D01*
X127283544Y-89344301D01*
X127288180Y-89346940D01*
X127288183Y-89346942D01*
X127447438Y-89437595D01*
X127487590Y-89460451D01*
X127708289Y-89540561D01*
X127713538Y-89541510D01*
X127713541Y-89541511D01*
X127794615Y-89556171D01*
X127939330Y-89582340D01*
X127943469Y-89582535D01*
X127943476Y-89582536D01*
X127962440Y-89583430D01*
X127962449Y-89583430D01*
X127963929Y-89583500D01*
X128128950Y-89583500D01*
X128210299Y-89576597D01*
X128298637Y-89569102D01*
X128298641Y-89569101D01*
X128303948Y-89568651D01*
X128309103Y-89567313D01*
X128309109Y-89567312D01*
X128454426Y-89529595D01*
X128531206Y-89509667D01*
X128536071Y-89507475D01*
X128538648Y-89506568D01*
X128609545Y-89502807D01*
X128671220Y-89537973D01*
X128704093Y-89600901D01*
X128706500Y-89625414D01*
X128706500Y-94861233D01*
X128705973Y-94872416D01*
X128704298Y-94879909D01*
X128704547Y-94887835D01*
X128704547Y-94887836D01*
X128706438Y-94947986D01*
X128706500Y-94951945D01*
X128706500Y-94979856D01*
X128706997Y-94983790D01*
X128706997Y-94983791D01*
X128707005Y-94983856D01*
X128707938Y-94995693D01*
X128709327Y-95039889D01*
X128714978Y-95059339D01*
X128718987Y-95078700D01*
X128721526Y-95098797D01*
X128724445Y-95106168D01*
X128724445Y-95106170D01*
X128737804Y-95139912D01*
X128741649Y-95151142D01*
X128745441Y-95164195D01*
X128753982Y-95193593D01*
X128758015Y-95200412D01*
X128758017Y-95200417D01*
X128764293Y-95211028D01*
X128772988Y-95228776D01*
X128780448Y-95247617D01*
X128785110Y-95254033D01*
X128785110Y-95254034D01*
X128806436Y-95283387D01*
X128812952Y-95293307D01*
X128828065Y-95318861D01*
X128835458Y-95331362D01*
X128849779Y-95345683D01*
X128862619Y-95360716D01*
X128874528Y-95377107D01*
X128880634Y-95382158D01*
X128908605Y-95405298D01*
X128917384Y-95413288D01*
X132019344Y-98515248D01*
X132053370Y-98577560D01*
X132048305Y-98648375D01*
X132005758Y-98705211D01*
X131939238Y-98730022D01*
X131900837Y-98726862D01*
X131871810Y-98719893D01*
X131816524Y-98706620D01*
X131816518Y-98706619D01*
X131811711Y-98705465D01*
X131575000Y-98686835D01*
X131338289Y-98705465D01*
X131333482Y-98706619D01*
X131333476Y-98706620D01*
X131187609Y-98741640D01*
X131107406Y-98760895D01*
X131102835Y-98762788D01*
X131102833Y-98762789D01*
X130892611Y-98849865D01*
X130892607Y-98849867D01*
X130888037Y-98851760D01*
X130883817Y-98854346D01*
X130689798Y-98973241D01*
X130689792Y-98973245D01*
X130685584Y-98975824D01*
X130505031Y-99130031D01*
X130350824Y-99310584D01*
X130348245Y-99314792D01*
X130348241Y-99314798D01*
X130230867Y-99506335D01*
X130178219Y-99553966D01*
X130123434Y-99566500D01*
X126526566Y-99566500D01*
X126458445Y-99546498D01*
X126419133Y-99506335D01*
X126301759Y-99314798D01*
X126301755Y-99314792D01*
X126299176Y-99310584D01*
X126144969Y-99130031D01*
X125964416Y-98975824D01*
X125960208Y-98973245D01*
X125960202Y-98973241D01*
X125766183Y-98854346D01*
X125761963Y-98851760D01*
X125757393Y-98849867D01*
X125757389Y-98849865D01*
X125547167Y-98762789D01*
X125547165Y-98762788D01*
X125542594Y-98760895D01*
X125462391Y-98741640D01*
X125316524Y-98706620D01*
X125316518Y-98706619D01*
X125311711Y-98705465D01*
X125075000Y-98686835D01*
X124838289Y-98705465D01*
X124833482Y-98706619D01*
X124833476Y-98706620D01*
X124667896Y-98746373D01*
X124615049Y-98759060D01*
X124544142Y-98755513D01*
X124496541Y-98725636D01*
X122978652Y-97207747D01*
X122971112Y-97199461D01*
X122967000Y-97192982D01*
X122917348Y-97146356D01*
X122914507Y-97143602D01*
X122894770Y-97123865D01*
X122891573Y-97121385D01*
X122882551Y-97113680D01*
X122873767Y-97105431D01*
X122850321Y-97083414D01*
X122843375Y-97079595D01*
X122843372Y-97079593D01*
X122832566Y-97073652D01*
X122816047Y-97062801D01*
X122810885Y-97058797D01*
X122800041Y-97050386D01*
X122792772Y-97047241D01*
X122792768Y-97047238D01*
X122759463Y-97032826D01*
X122748813Y-97027609D01*
X122710060Y-97006305D01*
X122702384Y-97004334D01*
X122695609Y-97001652D01*
X122639634Y-96957979D01*
X122616158Y-96890976D01*
X122632632Y-96821917D01*
X122683827Y-96772728D01*
X122741991Y-96758500D01*
X125588769Y-96758500D01*
X125656890Y-96778502D01*
X125670431Y-96788546D01*
X125721650Y-96832136D01*
X125894294Y-96928624D01*
X126082392Y-96989740D01*
X126278777Y-97013158D01*
X126284912Y-97012686D01*
X126284914Y-97012686D01*
X126469830Y-96998457D01*
X126469834Y-96998456D01*
X126475972Y-96997984D01*
X126666463Y-96944798D01*
X126671967Y-96942018D01*
X126671969Y-96942017D01*
X126837495Y-96858404D01*
X126837497Y-96858403D01*
X126842996Y-96855625D01*
X126998847Y-96733861D01*
X127128078Y-96584145D01*
X127225769Y-96412179D01*
X127288197Y-96224513D01*
X127312985Y-96028295D01*
X127313380Y-96000000D01*
X127294080Y-95803167D01*
X127236916Y-95613831D01*
X127144066Y-95439204D01*
X127050544Y-95324535D01*
X127022960Y-95290713D01*
X127022957Y-95290710D01*
X127019065Y-95285938D01*
X127012724Y-95280692D01*
X126871425Y-95163799D01*
X126871421Y-95163797D01*
X126866675Y-95159870D01*
X126692701Y-95065802D01*
X126503768Y-95007318D01*
X126497643Y-95006674D01*
X126497642Y-95006674D01*
X126313204Y-94987289D01*
X126313202Y-94987289D01*
X126307075Y-94986645D01*
X126224576Y-94994153D01*
X126116251Y-95004011D01*
X126116248Y-95004012D01*
X126110112Y-95004570D01*
X126104206Y-95006308D01*
X126104202Y-95006309D01*
X125999076Y-95037249D01*
X125920381Y-95060410D01*
X125914923Y-95063263D01*
X125914919Y-95063265D01*
X125862002Y-95090930D01*
X125745110Y-95152040D01*
X125740312Y-95155898D01*
X125740310Y-95155899D01*
X125668424Y-95213697D01*
X125602802Y-95240793D01*
X125589472Y-95241500D01*
X121410712Y-95241500D01*
X121342591Y-95221498D01*
X121330397Y-95212585D01*
X121298240Y-95185983D01*
X121266675Y-95159870D01*
X121092701Y-95065802D01*
X120903768Y-95007318D01*
X120897643Y-95006674D01*
X120897642Y-95006674D01*
X120713204Y-94987289D01*
X120713202Y-94987289D01*
X120707075Y-94986645D01*
X120624576Y-94994153D01*
X120516251Y-95004011D01*
X120516248Y-95004012D01*
X120510112Y-95004570D01*
X120504206Y-95006308D01*
X120504202Y-95006309D01*
X120399076Y-95037249D01*
X120320381Y-95060410D01*
X120314923Y-95063263D01*
X120314919Y-95063265D01*
X120262002Y-95090930D01*
X120145110Y-95152040D01*
X119990975Y-95275968D01*
X119863846Y-95427474D01*
X119860879Y-95432872D01*
X119860875Y-95432877D01*
X119800167Y-95543307D01*
X119768567Y-95600787D01*
X119766706Y-95606654D01*
X119766705Y-95606656D01*
X119762252Y-95620694D01*
X119708765Y-95789306D01*
X119686719Y-95985851D01*
X119703268Y-96182934D01*
X119757783Y-96373050D01*
X119848187Y-96548956D01*
X119971035Y-96703953D01*
X119975728Y-96707947D01*
X119975729Y-96707948D01*
X120018732Y-96744546D01*
X120057645Y-96803928D01*
X120058276Y-96874922D01*
X120020425Y-96934987D01*
X119956109Y-96965053D01*
X119937069Y-96966500D01*
X113014594Y-96966500D01*
X112946473Y-96946498D01*
X112925499Y-96929595D01*
X110960405Y-94964500D01*
X110926379Y-94902188D01*
X110923500Y-94875405D01*
X110923500Y-94331002D01*
X111792035Y-94331002D01*
X111793209Y-94515061D01*
X111794284Y-94520697D01*
X111794284Y-94520701D01*
X111819355Y-94652188D01*
X111827683Y-94695867D01*
X111894316Y-94867445D01*
X111897325Y-94872325D01*
X111897327Y-94872330D01*
X111987882Y-95019217D01*
X111990909Y-95024127D01*
X112114268Y-95160734D01*
X112118816Y-95164222D01*
X112118820Y-95164226D01*
X112183320Y-95213697D01*
X112260318Y-95272754D01*
X112424234Y-95356485D01*
X112457495Y-95366419D01*
X112595096Y-95407517D01*
X112595099Y-95407518D01*
X112600598Y-95409160D01*
X112644911Y-95413974D01*
X112777884Y-95428420D01*
X112777887Y-95428420D01*
X112783584Y-95429039D01*
X112868671Y-95422747D01*
X112961429Y-95415888D01*
X112961432Y-95415888D01*
X112967146Y-95415465D01*
X113145218Y-95368887D01*
X113150490Y-95366419D01*
X113270819Y-95310083D01*
X113279602Y-95306370D01*
X113301585Y-95298041D01*
X113301962Y-95299035D01*
X113349135Y-95288500D01*
X114845106Y-95288500D01*
X114864477Y-95289998D01*
X114879510Y-95292337D01*
X114913559Y-95302724D01*
X115054797Y-95368849D01*
X115232862Y-95415425D01*
X115238576Y-95415848D01*
X115238579Y-95415848D01*
X115331881Y-95422747D01*
X115416416Y-95428998D01*
X115422114Y-95428379D01*
X115422116Y-95428379D01*
X115554344Y-95414014D01*
X115599394Y-95409120D01*
X115604893Y-95407478D01*
X115604896Y-95407477D01*
X115706579Y-95377107D01*
X115775752Y-95356447D01*
X115896027Y-95295008D01*
X115934555Y-95275327D01*
X115934557Y-95275326D01*
X115939660Y-95272719D01*
X116085705Y-95160704D01*
X116171403Y-95065802D01*
X116205214Y-95028360D01*
X116209059Y-95024102D01*
X116274627Y-94917745D01*
X116302636Y-94872312D01*
X116302638Y-94872308D01*
X116305647Y-94867427D01*
X116308053Y-94861233D01*
X116365037Y-94714500D01*
X116372278Y-94695855D01*
X116385711Y-94625405D01*
X116405675Y-94520697D01*
X116405675Y-94520693D01*
X116406750Y-94515057D01*
X116407924Y-94331005D01*
X116398547Y-94278167D01*
X116376764Y-94155433D01*
X116376764Y-94155432D01*
X116375761Y-94149782D01*
X116327204Y-94019862D01*
X116324209Y-94010820D01*
X116319028Y-93992938D01*
X116317670Y-93988251D01*
X116316404Y-93985537D01*
X116309726Y-93958778D01*
X116309557Y-93957487D01*
X116308499Y-93941192D01*
X116308499Y-92626545D01*
X116310001Y-92607148D01*
X116313601Y-92584042D01*
X116320073Y-92559326D01*
X116373789Y-92415608D01*
X116373791Y-92415601D01*
X116375798Y-92410231D01*
X116377614Y-92400000D01*
X120286496Y-92400000D01*
X120287186Y-92406565D01*
X120305744Y-92583131D01*
X120306458Y-92589928D01*
X120365473Y-92771556D01*
X120460960Y-92936944D01*
X120588747Y-93078866D01*
X120687843Y-93150864D01*
X120731724Y-93182745D01*
X120743248Y-93191118D01*
X120749276Y-93193802D01*
X120749278Y-93193803D01*
X120911681Y-93266109D01*
X120917712Y-93268794D01*
X121004479Y-93287237D01*
X121098056Y-93307128D01*
X121098061Y-93307128D01*
X121104513Y-93308500D01*
X121295487Y-93308500D01*
X121301939Y-93307128D01*
X121301944Y-93307128D01*
X121395521Y-93287237D01*
X121482288Y-93268794D01*
X121488319Y-93266109D01*
X121650722Y-93193803D01*
X121650724Y-93193802D01*
X121656752Y-93191118D01*
X121668277Y-93182745D01*
X121789671Y-93094546D01*
X121811253Y-93078866D01*
X121815668Y-93073963D01*
X121820580Y-93069540D01*
X121821705Y-93070789D01*
X121875014Y-93037949D01*
X121908200Y-93033500D01*
X124491800Y-93033500D01*
X124559921Y-93053502D01*
X124579147Y-93069843D01*
X124579420Y-93069540D01*
X124584332Y-93073963D01*
X124588747Y-93078866D01*
X124610329Y-93094546D01*
X124731724Y-93182745D01*
X124743248Y-93191118D01*
X124749276Y-93193802D01*
X124749278Y-93193803D01*
X124911681Y-93266109D01*
X124917712Y-93268794D01*
X125004479Y-93287237D01*
X125098056Y-93307128D01*
X125098061Y-93307128D01*
X125104513Y-93308500D01*
X125295487Y-93308500D01*
X125301939Y-93307128D01*
X125301944Y-93307128D01*
X125395521Y-93287237D01*
X125482288Y-93268794D01*
X125488319Y-93266109D01*
X125650722Y-93193803D01*
X125650724Y-93193802D01*
X125656752Y-93191118D01*
X125668277Y-93182745D01*
X125712157Y-93150864D01*
X125811253Y-93078866D01*
X125939040Y-92936944D01*
X126034527Y-92771556D01*
X126093542Y-92589928D01*
X126094257Y-92583131D01*
X126112814Y-92406565D01*
X126113504Y-92400000D01*
X126104052Y-92310072D01*
X126094232Y-92216635D01*
X126094232Y-92216633D01*
X126093542Y-92210072D01*
X126034527Y-92028444D01*
X125939040Y-91863056D01*
X125909691Y-91830460D01*
X125815675Y-91726045D01*
X125815674Y-91726044D01*
X125811253Y-91721134D01*
X125656752Y-91608882D01*
X125650724Y-91606198D01*
X125650722Y-91606197D01*
X125488319Y-91533891D01*
X125488318Y-91533891D01*
X125482288Y-91531206D01*
X125388887Y-91511353D01*
X125301944Y-91492872D01*
X125301939Y-91492872D01*
X125295487Y-91491500D01*
X125104513Y-91491500D01*
X125098061Y-91492872D01*
X125098056Y-91492872D01*
X125011112Y-91511353D01*
X124917712Y-91531206D01*
X124911682Y-91533891D01*
X124911681Y-91533891D01*
X124749278Y-91606197D01*
X124749276Y-91606198D01*
X124743248Y-91608882D01*
X124737907Y-91612762D01*
X124737906Y-91612763D01*
X124628080Y-91692557D01*
X124588747Y-91721134D01*
X124584332Y-91726037D01*
X124579420Y-91730460D01*
X124578295Y-91729211D01*
X124524986Y-91762051D01*
X124491800Y-91766500D01*
X121908200Y-91766500D01*
X121840079Y-91746498D01*
X121820853Y-91730157D01*
X121820580Y-91730460D01*
X121815668Y-91726037D01*
X121811253Y-91721134D01*
X121771920Y-91692557D01*
X121662094Y-91612763D01*
X121662093Y-91612762D01*
X121656752Y-91608882D01*
X121650724Y-91606198D01*
X121650722Y-91606197D01*
X121488319Y-91533891D01*
X121488318Y-91533891D01*
X121482288Y-91531206D01*
X121388887Y-91511353D01*
X121301944Y-91492872D01*
X121301939Y-91492872D01*
X121295487Y-91491500D01*
X121104513Y-91491500D01*
X121098061Y-91492872D01*
X121098056Y-91492872D01*
X121011112Y-91511353D01*
X120917712Y-91531206D01*
X120911682Y-91533891D01*
X120911681Y-91533891D01*
X120749278Y-91606197D01*
X120749276Y-91606198D01*
X120743248Y-91608882D01*
X120588747Y-91721134D01*
X120584326Y-91726044D01*
X120584325Y-91726045D01*
X120490310Y-91830460D01*
X120460960Y-91863056D01*
X120365473Y-92028444D01*
X120306458Y-92210072D01*
X120305768Y-92216633D01*
X120305768Y-92216635D01*
X120295948Y-92310072D01*
X120286496Y-92400000D01*
X116377614Y-92400000D01*
X116397596Y-92287411D01*
X116406959Y-92234653D01*
X116406959Y-92234650D01*
X116407962Y-92229000D01*
X116406789Y-92044941D01*
X116372316Y-91864135D01*
X116354108Y-91817251D01*
X116307759Y-91697904D01*
X116307757Y-91697900D01*
X116305682Y-91692557D01*
X116209090Y-91535875D01*
X116085731Y-91399268D01*
X116081183Y-91395780D01*
X116081179Y-91395776D01*
X116008782Y-91340248D01*
X115939681Y-91287248D01*
X115775765Y-91203517D01*
X115703272Y-91181865D01*
X115604902Y-91152485D01*
X115604899Y-91152484D01*
X115599400Y-91150842D01*
X115537469Y-91144114D01*
X115422114Y-91131582D01*
X115422111Y-91131582D01*
X115416414Y-91130963D01*
X115359022Y-91135207D01*
X115238567Y-91144114D01*
X115238563Y-91144115D01*
X115232852Y-91144537D01*
X115202467Y-91152485D01*
X115060330Y-91189664D01*
X115060327Y-91189665D01*
X115054780Y-91191116D01*
X115049587Y-91193547D01*
X115049582Y-91193549D01*
X114929162Y-91249927D01*
X114920403Y-91253631D01*
X114898415Y-91261963D01*
X114898414Y-91261964D01*
X114898036Y-91260967D01*
X114850870Y-91271501D01*
X113354888Y-91271501D01*
X113335517Y-91270003D01*
X113320503Y-91267667D01*
X113286451Y-91257279D01*
X113145205Y-91191151D01*
X113139661Y-91189701D01*
X113139656Y-91189699D01*
X112997525Y-91152522D01*
X112967140Y-91144574D01*
X112961426Y-91144151D01*
X112961423Y-91144151D01*
X112860812Y-91136712D01*
X112783585Y-91131001D01*
X112777887Y-91131620D01*
X112777885Y-91131620D01*
X112662878Y-91144114D01*
X112600605Y-91150879D01*
X112595106Y-91152521D01*
X112595103Y-91152522D01*
X112498684Y-91181320D01*
X112424247Y-91203553D01*
X112260338Y-91287281D01*
X112114293Y-91399297D01*
X111990939Y-91535900D01*
X111955817Y-91592872D01*
X111897362Y-91687690D01*
X111897360Y-91687694D01*
X111894351Y-91692575D01*
X111827720Y-91864148D01*
X111793249Y-92044947D01*
X111792076Y-92228999D01*
X111824240Y-92410223D01*
X111826248Y-92415596D01*
X111826249Y-92415599D01*
X111872792Y-92540127D01*
X111875787Y-92549171D01*
X111882331Y-92571755D01*
X111883589Y-92574453D01*
X111890251Y-92601113D01*
X111890430Y-92602477D01*
X111891501Y-92618872D01*
X111891501Y-93933390D01*
X111889995Y-93952813D01*
X111886371Y-93976042D01*
X111879903Y-94000731D01*
X111872750Y-94019869D01*
X111824200Y-94149771D01*
X111823197Y-94155421D01*
X111823197Y-94155422D01*
X111796750Y-94304438D01*
X111792035Y-94331002D01*
X110923500Y-94331002D01*
X110923500Y-87818167D01*
X110943502Y-87750046D01*
X111001282Y-87701758D01*
X111134913Y-87646406D01*
X111251988Y-87597912D01*
X111484285Y-87462168D01*
X111553192Y-87445069D01*
X111620405Y-87467938D01*
X111664583Y-87523514D01*
X111671702Y-87594153D01*
X111669897Y-87602291D01*
X111638052Y-87726320D01*
X111638051Y-87726328D01*
X111637064Y-87730170D01*
X111597600Y-88042562D01*
X111597600Y-88357438D01*
X111637064Y-88669830D01*
X111715370Y-88974813D01*
X111831284Y-89267577D01*
X111833186Y-89271036D01*
X111833187Y-89271039D01*
X111965112Y-89511009D01*
X111982976Y-89543504D01*
X112168055Y-89798244D01*
X112383602Y-90027778D01*
X112626218Y-90228487D01*
X112892076Y-90397206D01*
X112895655Y-90398890D01*
X112895662Y-90398894D01*
X113173394Y-90529584D01*
X113173398Y-90529586D01*
X113176984Y-90531273D01*
X113476448Y-90628575D01*
X113785746Y-90687577D01*
X113879300Y-90693463D01*
X114019358Y-90702275D01*
X114019374Y-90702276D01*
X114021353Y-90702400D01*
X114178647Y-90702400D01*
X114180626Y-90702276D01*
X114180642Y-90702275D01*
X114320700Y-90693463D01*
X114414254Y-90687577D01*
X114723552Y-90628575D01*
X115023016Y-90531273D01*
X115026602Y-90529586D01*
X115026606Y-90529584D01*
X115304338Y-90398894D01*
X115304345Y-90398890D01*
X115307924Y-90397206D01*
X115573782Y-90228487D01*
X115816398Y-90027778D01*
X116031945Y-89798244D01*
X116217024Y-89543504D01*
X116234889Y-89511009D01*
X116366813Y-89271039D01*
X116366814Y-89271036D01*
X116368716Y-89267577D01*
X116484630Y-88974813D01*
X116562936Y-88669830D01*
X116602400Y-88357438D01*
X116602400Y-88134593D01*
X117793039Y-88134593D01*
X117801848Y-88369216D01*
X117802943Y-88374434D01*
X117827794Y-88492871D01*
X117850062Y-88599001D01*
X117936302Y-88817377D01*
X118058104Y-89018100D01*
X118211985Y-89195432D01*
X118216117Y-89198820D01*
X118389416Y-89340917D01*
X118389422Y-89340921D01*
X118393544Y-89344301D01*
X118398180Y-89346940D01*
X118398183Y-89346942D01*
X118557438Y-89437595D01*
X118597590Y-89460451D01*
X118818289Y-89540561D01*
X118823538Y-89541510D01*
X118823541Y-89541511D01*
X118904615Y-89556171D01*
X119049330Y-89582340D01*
X119053469Y-89582535D01*
X119053476Y-89582536D01*
X119072440Y-89583430D01*
X119072449Y-89583430D01*
X119073929Y-89583500D01*
X119238950Y-89583500D01*
X119320299Y-89576597D01*
X119408637Y-89569102D01*
X119408641Y-89569101D01*
X119413948Y-89568651D01*
X119419103Y-89567313D01*
X119419109Y-89567312D01*
X119636035Y-89511009D01*
X119636034Y-89511009D01*
X119641206Y-89509667D01*
X119646072Y-89507475D01*
X119646075Y-89507474D01*
X119850417Y-89415424D01*
X119850420Y-89415423D01*
X119855278Y-89413234D01*
X120050041Y-89282112D01*
X120219927Y-89120049D01*
X120360078Y-88931679D01*
X120420719Y-88812408D01*
X120464069Y-88727144D01*
X120464069Y-88727143D01*
X120466487Y-88722388D01*
X120536111Y-88498160D01*
X120553202Y-88369216D01*
X120566261Y-88270690D01*
X120566261Y-88270687D01*
X120566961Y-88265407D01*
X120558152Y-88030784D01*
X120534185Y-87916557D01*
X120511035Y-87806226D01*
X120511034Y-87806223D01*
X120509938Y-87800999D01*
X120423698Y-87582623D01*
X120301896Y-87381900D01*
X120148015Y-87204568D01*
X120137938Y-87196306D01*
X119970584Y-87059083D01*
X119970578Y-87059079D01*
X119966456Y-87055699D01*
X119961820Y-87053060D01*
X119961817Y-87053058D01*
X119767053Y-86942192D01*
X119762410Y-86939549D01*
X119541711Y-86859439D01*
X119536462Y-86858490D01*
X119536459Y-86858489D01*
X119455385Y-86843829D01*
X119310670Y-86817660D01*
X119306531Y-86817465D01*
X119306524Y-86817464D01*
X119287560Y-86816570D01*
X119287551Y-86816570D01*
X119286071Y-86816500D01*
X119121050Y-86816500D01*
X119039701Y-86823403D01*
X118951363Y-86830898D01*
X118951359Y-86830899D01*
X118946052Y-86831349D01*
X118940897Y-86832687D01*
X118940891Y-86832688D01*
X118763177Y-86878814D01*
X118718794Y-86890333D01*
X118713928Y-86892525D01*
X118713925Y-86892526D01*
X118509583Y-86984576D01*
X118509580Y-86984577D01*
X118504722Y-86986766D01*
X118309959Y-87117888D01*
X118140073Y-87279951D01*
X117999922Y-87468321D01*
X117997506Y-87473072D01*
X117997504Y-87473076D01*
X117931808Y-87602291D01*
X117893513Y-87677612D01*
X117891931Y-87682707D01*
X117827546Y-87890064D01*
X117823889Y-87901840D01*
X117823188Y-87907129D01*
X117806092Y-88036116D01*
X117793039Y-88134593D01*
X116602400Y-88134593D01*
X116602400Y-88042562D01*
X116562936Y-87730170D01*
X116484630Y-87425187D01*
X116368716Y-87132423D01*
X116362749Y-87121569D01*
X116218933Y-86859968D01*
X116218931Y-86859965D01*
X116217024Y-86856496D01*
X116085118Y-86674942D01*
X116034273Y-86604960D01*
X116034272Y-86604958D01*
X116031945Y-86601756D01*
X115816398Y-86372222D01*
X115573782Y-86171513D01*
X115307924Y-86002794D01*
X115304345Y-86001110D01*
X115304338Y-86001106D01*
X115026606Y-85870416D01*
X115026602Y-85870414D01*
X115023016Y-85868727D01*
X114723552Y-85771425D01*
X114414254Y-85712423D01*
X114320700Y-85706537D01*
X114180642Y-85697725D01*
X114180626Y-85697724D01*
X114178647Y-85697600D01*
X114021353Y-85697600D01*
X114019374Y-85697724D01*
X114019358Y-85697725D01*
X113879300Y-85706537D01*
X113785746Y-85712423D01*
X113476448Y-85771425D01*
X113176984Y-85868727D01*
X113173398Y-85870414D01*
X113173394Y-85870416D01*
X112895662Y-86001106D01*
X112895655Y-86001110D01*
X112892076Y-86002794D01*
X112626218Y-86171513D01*
X112623169Y-86174036D01*
X112623164Y-86174039D01*
X112617412Y-86178797D01*
X112552173Y-86206804D01*
X112482149Y-86195095D01*
X112429572Y-86147386D01*
X112411134Y-86078825D01*
X112414280Y-86053584D01*
X112426907Y-85998453D01*
X112432537Y-85935376D01*
X112452849Y-85707776D01*
X112452849Y-85707774D01*
X112453069Y-85705310D01*
X112453544Y-85660000D01*
X112452000Y-85637344D01*
X112433819Y-85370650D01*
X112433818Y-85370644D01*
X112433527Y-85366373D01*
X112373845Y-85078180D01*
X112275603Y-84800753D01*
X112140618Y-84539226D01*
X112126793Y-84519554D01*
X111973856Y-84301948D01*
X111973855Y-84301947D01*
X111971389Y-84298438D01*
X111771048Y-84082844D01*
X111748936Y-84064745D01*
X111546618Y-83899151D01*
X111543300Y-83896435D01*
X111292361Y-83742660D01*
X111273706Y-83734471D01*
X111026802Y-83626087D01*
X111026798Y-83626086D01*
X111022874Y-83624363D01*
X110739826Y-83543735D01*
X110735584Y-83543131D01*
X110735578Y-83543130D01*
X110452705Y-83502871D01*
X110448454Y-83502266D01*
X110293306Y-83501454D01*
X110158436Y-83500747D01*
X110158430Y-83500747D01*
X110154150Y-83500725D01*
X110149906Y-83501284D01*
X110149902Y-83501284D01*
X110021341Y-83518210D01*
X109862360Y-83539140D01*
X109858220Y-83540273D01*
X109858218Y-83540273D01*
X109841261Y-83544912D01*
X109578483Y-83616800D01*
X109574533Y-83618485D01*
X109311714Y-83730586D01*
X109311707Y-83730590D01*
X109307772Y-83732268D01*
X109155386Y-83823469D01*
X109058918Y-83881204D01*
X109058914Y-83881207D01*
X109055236Y-83883408D01*
X108825549Y-84067422D01*
X108822605Y-84070524D01*
X108822601Y-84070528D01*
X108676137Y-84224869D01*
X108622961Y-84280905D01*
X108451220Y-84519908D01*
X108313504Y-84780007D01*
X108281452Y-84867592D01*
X108219277Y-85037495D01*
X108212362Y-85056390D01*
X108149666Y-85343943D01*
X108126575Y-85637344D01*
X108143516Y-85931164D01*
X108144341Y-85935371D01*
X108144342Y-85935376D01*
X108157238Y-86001106D01*
X108200177Y-86219966D01*
X108201564Y-86224016D01*
X108201565Y-86224021D01*
X108276334Y-86442403D01*
X108295509Y-86498407D01*
X108297436Y-86502238D01*
X108419913Y-86745757D01*
X108427747Y-86761334D01*
X108430177Y-86764869D01*
X108440997Y-86780613D01*
X108463097Y-86848083D01*
X108445211Y-86916789D01*
X108388907Y-86966862D01*
X108349587Y-86984574D01*
X108349582Y-86984577D01*
X108344722Y-86986766D01*
X108149959Y-87117888D01*
X107980073Y-87279951D01*
X107839922Y-87468321D01*
X107837506Y-87473072D01*
X107837504Y-87473076D01*
X107771808Y-87602291D01*
X107733513Y-87677612D01*
X107731931Y-87682707D01*
X107667546Y-87890064D01*
X107663889Y-87901840D01*
X107663188Y-87907129D01*
X107646092Y-88036116D01*
X107633039Y-88134593D01*
X107641848Y-88369216D01*
X107642943Y-88374434D01*
X107667794Y-88492871D01*
X107690062Y-88599001D01*
X107776302Y-88817377D01*
X107898104Y-89018100D01*
X108051985Y-89195432D01*
X108056117Y-89198820D01*
X108229416Y-89340917D01*
X108229422Y-89340921D01*
X108233544Y-89344301D01*
X108238180Y-89346940D01*
X108238183Y-89346942D01*
X108397438Y-89437595D01*
X108437590Y-89460451D01*
X108658289Y-89540561D01*
X108663538Y-89541510D01*
X108663541Y-89541511D01*
X108744615Y-89556171D01*
X108889330Y-89582340D01*
X108893469Y-89582535D01*
X108893476Y-89582536D01*
X108912440Y-89583430D01*
X108912449Y-89583430D01*
X108913929Y-89583500D01*
X109078950Y-89583500D01*
X109160299Y-89576597D01*
X109248637Y-89569102D01*
X109248641Y-89569101D01*
X109253948Y-89568651D01*
X109259103Y-89567313D01*
X109259109Y-89567312D01*
X109404426Y-89529595D01*
X109481206Y-89509667D01*
X109486071Y-89507475D01*
X109488648Y-89506568D01*
X109559545Y-89502807D01*
X109621220Y-89537973D01*
X109654093Y-89600901D01*
X109656500Y-89625414D01*
X109656500Y-93381873D01*
X109636498Y-93449994D01*
X109582842Y-93496487D01*
X109512568Y-93506591D01*
X109447988Y-93477097D01*
X109413348Y-93428257D01*
X109402197Y-93400092D01*
X109398355Y-93388870D01*
X109396322Y-93381873D01*
X109386018Y-93346407D01*
X109375707Y-93328972D01*
X109367012Y-93311224D01*
X109359552Y-93292383D01*
X109333564Y-93256613D01*
X109327048Y-93246693D01*
X109308580Y-93215465D01*
X109308578Y-93215462D01*
X109304542Y-93208638D01*
X109290221Y-93194317D01*
X109277380Y-93179283D01*
X109270131Y-93169306D01*
X109265472Y-93162893D01*
X109231395Y-93134702D01*
X109222616Y-93126712D01*
X105903652Y-89807747D01*
X105896112Y-89799461D01*
X105892000Y-89792982D01*
X105842348Y-89746356D01*
X105839507Y-89743602D01*
X105819770Y-89723865D01*
X105816573Y-89721385D01*
X105807551Y-89713680D01*
X105775321Y-89683414D01*
X105768375Y-89679595D01*
X105768372Y-89679593D01*
X105757566Y-89673652D01*
X105741047Y-89662801D01*
X105740583Y-89662441D01*
X105725041Y-89650386D01*
X105717772Y-89647241D01*
X105717768Y-89647238D01*
X105684463Y-89632826D01*
X105673813Y-89627609D01*
X105635060Y-89606305D01*
X105615437Y-89601267D01*
X105596734Y-89594863D01*
X105585420Y-89589967D01*
X105585419Y-89589967D01*
X105578145Y-89586819D01*
X105570322Y-89585580D01*
X105570312Y-89585577D01*
X105534476Y-89579901D01*
X105522856Y-89577495D01*
X105487711Y-89568472D01*
X105487710Y-89568472D01*
X105480030Y-89566500D01*
X105459776Y-89566500D01*
X105440065Y-89564949D01*
X105427886Y-89563020D01*
X105420057Y-89561780D01*
X105412165Y-89562526D01*
X105376039Y-89565941D01*
X105364181Y-89566500D01*
X103414595Y-89566500D01*
X103346474Y-89546498D01*
X103325499Y-89529595D01*
X103270404Y-89474499D01*
X103236379Y-89412186D01*
X103233500Y-89385404D01*
X103233500Y-87978763D01*
X103234027Y-87967579D01*
X103235701Y-87960091D01*
X103233562Y-87892032D01*
X103233500Y-87888075D01*
X103233500Y-87860144D01*
X103232994Y-87856138D01*
X103232061Y-87844292D01*
X103231724Y-87833544D01*
X103230673Y-87800110D01*
X103225022Y-87780658D01*
X103221014Y-87761306D01*
X103219468Y-87749068D01*
X103219467Y-87749066D01*
X103218474Y-87741203D01*
X103202194Y-87700086D01*
X103198359Y-87688885D01*
X103186018Y-87646406D01*
X103181985Y-87639587D01*
X103181983Y-87639582D01*
X103175707Y-87628971D01*
X103167010Y-87611221D01*
X103159552Y-87592383D01*
X103133571Y-87556623D01*
X103127053Y-87546701D01*
X103108578Y-87515460D01*
X103108574Y-87515455D01*
X103104542Y-87508637D01*
X103090218Y-87494313D01*
X103077376Y-87479278D01*
X103072870Y-87473076D01*
X103065472Y-87462893D01*
X103031406Y-87434711D01*
X103022627Y-87426722D01*
X100863652Y-85267747D01*
X100856112Y-85259461D01*
X100852000Y-85252982D01*
X100802348Y-85206356D01*
X100799507Y-85203602D01*
X100779770Y-85183865D01*
X100776573Y-85181385D01*
X100767551Y-85173680D01*
X100741100Y-85148841D01*
X100735321Y-85143414D01*
X100728375Y-85139595D01*
X100728372Y-85139593D01*
X100717566Y-85133652D01*
X100701047Y-85122801D01*
X100700583Y-85122441D01*
X100685041Y-85110386D01*
X100677772Y-85107241D01*
X100677768Y-85107238D01*
X100644463Y-85092826D01*
X100633813Y-85087609D01*
X100595060Y-85066305D01*
X100575437Y-85061267D01*
X100556734Y-85054863D01*
X100545420Y-85049967D01*
X100545419Y-85049967D01*
X100538145Y-85046819D01*
X100530322Y-85045580D01*
X100530312Y-85045577D01*
X100494476Y-85039901D01*
X100482856Y-85037495D01*
X100447711Y-85028472D01*
X100447710Y-85028472D01*
X100440030Y-85026500D01*
X100419776Y-85026500D01*
X100400065Y-85024949D01*
X100396953Y-85024456D01*
X100380057Y-85021780D01*
X100372165Y-85022526D01*
X100336039Y-85025941D01*
X100324181Y-85026500D01*
X99021677Y-85026500D01*
X98953556Y-85006498D01*
X98907063Y-84952842D01*
X98896959Y-84882568D01*
X98926453Y-84817988D01*
X98943931Y-84801346D01*
X99034313Y-84730478D01*
X99037694Y-84727827D01*
X99085605Y-84678387D01*
X99168652Y-84592688D01*
X99242506Y-84516476D01*
X99416741Y-84279285D01*
X99557172Y-84020642D01*
X99661203Y-83745333D01*
X99707375Y-83543735D01*
X99725949Y-83462637D01*
X99725950Y-83462633D01*
X99726907Y-83458453D01*
X99732537Y-83395376D01*
X99752849Y-83167776D01*
X99752849Y-83167774D01*
X99753069Y-83165310D01*
X99753544Y-83120000D01*
X99752000Y-83097344D01*
X114476575Y-83097344D01*
X114493516Y-83391164D01*
X114494341Y-83395371D01*
X114494342Y-83395376D01*
X114515011Y-83500725D01*
X114550177Y-83679966D01*
X114551564Y-83684016D01*
X114551565Y-83684021D01*
X114624291Y-83896435D01*
X114645509Y-83958407D01*
X114777747Y-84221334D01*
X114780173Y-84224863D01*
X114780176Y-84224869D01*
X114828580Y-84295297D01*
X114944445Y-84463881D01*
X115142518Y-84681560D01*
X115145807Y-84684310D01*
X115365009Y-84867592D01*
X115365014Y-84867596D01*
X115368301Y-84870344D01*
X115434051Y-84911589D01*
X115613976Y-85024456D01*
X115613980Y-85024458D01*
X115617616Y-85026739D01*
X115722602Y-85074142D01*
X115881937Y-85146085D01*
X115881941Y-85146087D01*
X115885849Y-85147851D01*
X115889968Y-85149071D01*
X116163924Y-85230221D01*
X116163929Y-85230222D01*
X116168037Y-85231439D01*
X116172271Y-85232087D01*
X116172276Y-85232088D01*
X116454717Y-85275307D01*
X116454719Y-85275307D01*
X116458959Y-85275956D01*
X116608772Y-85278310D01*
X116748940Y-85280512D01*
X116748946Y-85280512D01*
X116753231Y-85280579D01*
X117045408Y-85245222D01*
X117268598Y-85186669D01*
X117325939Y-85171626D01*
X117325940Y-85171626D01*
X117330082Y-85170539D01*
X117601988Y-85057912D01*
X117856092Y-84909425D01*
X118087694Y-84727827D01*
X118135605Y-84678387D01*
X118218652Y-84592688D01*
X118292506Y-84516476D01*
X118466741Y-84279285D01*
X118607172Y-84020642D01*
X118711203Y-83745333D01*
X118757375Y-83543735D01*
X118775949Y-83462637D01*
X118775950Y-83462633D01*
X118776907Y-83458453D01*
X118782537Y-83395376D01*
X118802849Y-83167776D01*
X118802849Y-83167774D01*
X118803069Y-83165310D01*
X118803544Y-83120000D01*
X118802000Y-83097344D01*
X133526575Y-83097344D01*
X133543516Y-83391164D01*
X133544341Y-83395371D01*
X133544342Y-83395376D01*
X133565011Y-83500725D01*
X133600177Y-83679966D01*
X133601564Y-83684016D01*
X133601565Y-83684021D01*
X133674291Y-83896435D01*
X133695509Y-83958407D01*
X133827747Y-84221334D01*
X133830173Y-84224863D01*
X133830176Y-84224869D01*
X133878580Y-84295297D01*
X133994445Y-84463881D01*
X134192518Y-84681560D01*
X134195807Y-84684310D01*
X134415009Y-84867592D01*
X134415014Y-84867596D01*
X134418301Y-84870344D01*
X134484051Y-84911589D01*
X134663976Y-85024456D01*
X134663980Y-85024458D01*
X134667616Y-85026739D01*
X134772602Y-85074142D01*
X134931937Y-85146085D01*
X134931941Y-85146087D01*
X134935849Y-85147851D01*
X134939968Y-85149071D01*
X135213924Y-85230221D01*
X135213929Y-85230222D01*
X135218037Y-85231439D01*
X135222271Y-85232087D01*
X135222276Y-85232088D01*
X135504717Y-85275307D01*
X135504719Y-85275307D01*
X135508959Y-85275956D01*
X135658772Y-85278310D01*
X135798940Y-85280512D01*
X135798946Y-85280512D01*
X135803231Y-85280579D01*
X136095408Y-85245222D01*
X136318598Y-85186669D01*
X136375939Y-85171626D01*
X136375940Y-85171626D01*
X136380082Y-85170539D01*
X136651988Y-85057912D01*
X136906092Y-84909425D01*
X137137694Y-84727827D01*
X137185605Y-84678387D01*
X137268652Y-84592688D01*
X137342506Y-84516476D01*
X137516741Y-84279285D01*
X137657172Y-84020642D01*
X137761203Y-83745333D01*
X137807375Y-83543735D01*
X137825949Y-83462637D01*
X137825950Y-83462633D01*
X137826907Y-83458453D01*
X137832537Y-83395376D01*
X137852849Y-83167776D01*
X137852849Y-83167774D01*
X137853069Y-83165310D01*
X137853544Y-83120000D01*
X137852000Y-83097344D01*
X137833819Y-82830650D01*
X137833818Y-82830644D01*
X137833527Y-82826373D01*
X137773845Y-82538180D01*
X137675603Y-82260753D01*
X137540618Y-81999226D01*
X137524589Y-81976418D01*
X137373856Y-81761948D01*
X137373855Y-81761947D01*
X137371389Y-81758438D01*
X137171048Y-81542844D01*
X137148936Y-81524745D01*
X136946618Y-81359151D01*
X136943300Y-81356435D01*
X136692361Y-81202660D01*
X136673706Y-81194471D01*
X136426802Y-81086087D01*
X136426798Y-81086086D01*
X136422874Y-81084363D01*
X136139826Y-81003735D01*
X136135584Y-81003131D01*
X136135578Y-81003130D01*
X135852705Y-80962871D01*
X135848454Y-80962266D01*
X135693306Y-80961454D01*
X135558436Y-80960747D01*
X135558430Y-80960747D01*
X135554150Y-80960725D01*
X135549906Y-80961284D01*
X135549902Y-80961284D01*
X135421341Y-80978210D01*
X135262360Y-80999140D01*
X135258220Y-81000273D01*
X135258218Y-81000273D01*
X135241261Y-81004912D01*
X134978483Y-81076800D01*
X134974533Y-81078485D01*
X134711714Y-81190586D01*
X134711707Y-81190590D01*
X134707772Y-81192268D01*
X134555386Y-81283469D01*
X134458918Y-81341204D01*
X134458914Y-81341207D01*
X134455236Y-81343408D01*
X134225549Y-81527422D01*
X134222605Y-81530524D01*
X134222601Y-81530528D01*
X134213491Y-81540128D01*
X134022961Y-81740905D01*
X133851220Y-81979908D01*
X133713504Y-82240007D01*
X133612362Y-82516390D01*
X133549666Y-82803943D01*
X133526575Y-83097344D01*
X118802000Y-83097344D01*
X118783819Y-82830650D01*
X118783818Y-82830644D01*
X118783527Y-82826373D01*
X118723845Y-82538180D01*
X118625603Y-82260753D01*
X118490618Y-81999226D01*
X118474589Y-81976418D01*
X118323856Y-81761948D01*
X118323855Y-81761947D01*
X118321389Y-81758438D01*
X118121048Y-81542844D01*
X118098936Y-81524745D01*
X117896618Y-81359151D01*
X117893300Y-81356435D01*
X117642361Y-81202660D01*
X117623706Y-81194471D01*
X117376802Y-81086087D01*
X117376798Y-81086086D01*
X117372874Y-81084363D01*
X117089826Y-81003735D01*
X117085584Y-81003131D01*
X117085578Y-81003130D01*
X116802705Y-80962871D01*
X116798454Y-80962266D01*
X116643306Y-80961454D01*
X116508436Y-80960747D01*
X116508430Y-80960747D01*
X116504150Y-80960725D01*
X116499906Y-80961284D01*
X116499902Y-80961284D01*
X116371341Y-80978210D01*
X116212360Y-80999140D01*
X116208220Y-81000273D01*
X116208218Y-81000273D01*
X116191261Y-81004912D01*
X115928483Y-81076800D01*
X115924533Y-81078485D01*
X115661714Y-81190586D01*
X115661707Y-81190590D01*
X115657772Y-81192268D01*
X115505386Y-81283469D01*
X115408918Y-81341204D01*
X115408914Y-81341207D01*
X115405236Y-81343408D01*
X115175549Y-81527422D01*
X115172605Y-81530524D01*
X115172601Y-81530528D01*
X115163491Y-81540128D01*
X114972961Y-81740905D01*
X114801220Y-81979908D01*
X114663504Y-82240007D01*
X114562362Y-82516390D01*
X114499666Y-82803943D01*
X114476575Y-83097344D01*
X99752000Y-83097344D01*
X99733819Y-82830650D01*
X99733818Y-82830644D01*
X99733527Y-82826373D01*
X99673845Y-82538180D01*
X99575603Y-82260753D01*
X99440618Y-81999226D01*
X99424589Y-81976418D01*
X99273856Y-81761948D01*
X99273855Y-81761947D01*
X99271389Y-81758438D01*
X99071048Y-81542844D01*
X99048936Y-81524745D01*
X98846618Y-81359151D01*
X98843300Y-81356435D01*
X98592361Y-81202660D01*
X98573706Y-81194471D01*
X98326802Y-81086087D01*
X98326798Y-81086086D01*
X98322874Y-81084363D01*
X98039826Y-81003735D01*
X98035584Y-81003131D01*
X98035578Y-81003130D01*
X97752705Y-80962871D01*
X97748454Y-80962266D01*
X97593306Y-80961454D01*
X97458436Y-80960747D01*
X97458430Y-80960747D01*
X97454150Y-80960725D01*
X97449906Y-80961284D01*
X97449902Y-80961284D01*
X97321341Y-80978210D01*
X97162360Y-80999140D01*
X97158220Y-81000273D01*
X97158218Y-81000273D01*
X97141261Y-81004912D01*
X96878483Y-81076800D01*
X96874533Y-81078485D01*
X96611714Y-81190586D01*
X96611707Y-81190590D01*
X96607772Y-81192268D01*
X96455386Y-81283469D01*
X96358918Y-81341204D01*
X96358914Y-81341207D01*
X96355236Y-81343408D01*
X96125549Y-81527422D01*
X96122605Y-81530524D01*
X96122601Y-81530528D01*
X96113491Y-81540128D01*
X95922961Y-81740905D01*
X95751220Y-81979908D01*
X95613504Y-82240007D01*
X95512362Y-82516390D01*
X95449666Y-82803943D01*
X95426575Y-83097344D01*
X95443516Y-83391164D01*
X95444341Y-83395371D01*
X95444342Y-83395376D01*
X95465011Y-83500725D01*
X95500177Y-83679966D01*
X95501564Y-83684016D01*
X95501565Y-83684021D01*
X95574291Y-83896435D01*
X95595509Y-83958407D01*
X95727747Y-84221334D01*
X95730173Y-84224863D01*
X95730176Y-84224869D01*
X95778580Y-84295297D01*
X95894445Y-84463881D01*
X96092518Y-84681560D01*
X96235781Y-84801346D01*
X96238760Y-84803837D01*
X96278189Y-84862878D01*
X96279440Y-84933864D01*
X96242114Y-84994256D01*
X96178062Y-85024882D01*
X96157937Y-85026500D01*
X93394592Y-85026500D01*
X93326471Y-85006498D01*
X93279978Y-84952842D01*
X93275819Y-84942559D01*
X93227036Y-84804798D01*
X93227033Y-84804790D01*
X93225603Y-84800753D01*
X93090618Y-84539226D01*
X93076793Y-84519554D01*
X92923856Y-84301948D01*
X92923855Y-84301947D01*
X92921389Y-84298438D01*
X92721048Y-84082844D01*
X92698936Y-84064745D01*
X92496618Y-83899151D01*
X92493300Y-83896435D01*
X92242361Y-83742660D01*
X92223706Y-83734471D01*
X91976802Y-83626087D01*
X91976798Y-83626086D01*
X91972874Y-83624363D01*
X91689826Y-83543735D01*
X91685584Y-83543131D01*
X91685578Y-83543130D01*
X91402705Y-83502871D01*
X91398454Y-83502266D01*
X91243306Y-83501454D01*
X91108436Y-83500747D01*
X91108430Y-83500747D01*
X91104150Y-83500725D01*
X91099906Y-83501284D01*
X91099902Y-83501284D01*
X90971341Y-83518210D01*
X90812360Y-83539140D01*
X90808220Y-83540273D01*
X90808218Y-83540273D01*
X90791261Y-83544912D01*
X90528483Y-83616800D01*
X90524533Y-83618485D01*
X90261714Y-83730586D01*
X90261707Y-83730590D01*
X90257772Y-83732268D01*
X90105386Y-83823469D01*
X90008918Y-83881204D01*
X90008914Y-83881207D01*
X90005236Y-83883408D01*
X89775549Y-84067422D01*
X89772605Y-84070524D01*
X89772601Y-84070528D01*
X89626137Y-84224869D01*
X89572961Y-84280905D01*
X89401220Y-84519908D01*
X89263504Y-84780007D01*
X89231452Y-84867592D01*
X89169277Y-85037495D01*
X89162362Y-85056390D01*
X89099666Y-85343943D01*
X89076575Y-85637344D01*
X89093516Y-85931164D01*
X89094341Y-85935371D01*
X89094342Y-85935376D01*
X89107238Y-86001106D01*
X89150177Y-86219966D01*
X89151564Y-86224016D01*
X89151565Y-86224021D01*
X89226334Y-86442403D01*
X89245509Y-86498407D01*
X89247436Y-86502238D01*
X89369913Y-86745757D01*
X89377747Y-86761334D01*
X89380177Y-86764869D01*
X89390997Y-86780613D01*
X89413097Y-86848083D01*
X89395211Y-86916789D01*
X89338907Y-86966862D01*
X89299587Y-86984574D01*
X89299582Y-86984577D01*
X89294722Y-86986766D01*
X89099959Y-87117888D01*
X88930073Y-87279951D01*
X88789922Y-87468321D01*
X88787506Y-87473072D01*
X88787504Y-87473076D01*
X88721808Y-87602291D01*
X88683513Y-87677612D01*
X88681931Y-87682707D01*
X88617546Y-87890064D01*
X88613889Y-87901840D01*
X88613188Y-87907129D01*
X88596092Y-88036116D01*
X88583039Y-88134593D01*
X74508500Y-88134593D01*
X74508500Y-79200000D01*
X103486496Y-79200000D01*
X103506458Y-79389928D01*
X103565473Y-79571556D01*
X103660960Y-79736944D01*
X103788747Y-79878866D01*
X103943248Y-79991118D01*
X103949276Y-79993802D01*
X103949278Y-79993803D01*
X104111681Y-80066109D01*
X104117712Y-80068794D01*
X104211112Y-80088647D01*
X104298056Y-80107128D01*
X104298061Y-80107128D01*
X104304513Y-80108500D01*
X104495487Y-80108500D01*
X104501939Y-80107128D01*
X104501944Y-80107128D01*
X104588888Y-80088647D01*
X104682288Y-80068794D01*
X104688319Y-80066109D01*
X104850722Y-79993803D01*
X104850724Y-79993802D01*
X104856752Y-79991118D01*
X105011253Y-79878866D01*
X105015668Y-79873963D01*
X105020580Y-79869540D01*
X105021705Y-79870789D01*
X105075014Y-79837949D01*
X105108200Y-79833500D01*
X109591800Y-79833500D01*
X109659921Y-79853502D01*
X109679147Y-79869843D01*
X109679420Y-79869540D01*
X109684332Y-79873963D01*
X109688747Y-79878866D01*
X109843248Y-79991118D01*
X109849276Y-79993802D01*
X109849278Y-79993803D01*
X110011681Y-80066109D01*
X110017712Y-80068794D01*
X110111112Y-80088647D01*
X110198056Y-80107128D01*
X110198061Y-80107128D01*
X110204513Y-80108500D01*
X110395487Y-80108500D01*
X110401939Y-80107128D01*
X110401944Y-80107128D01*
X110488888Y-80088647D01*
X110582288Y-80068794D01*
X110588319Y-80066109D01*
X110750722Y-79993803D01*
X110750724Y-79993802D01*
X110756752Y-79991118D01*
X110911253Y-79878866D01*
X111039040Y-79736944D01*
X111134527Y-79571556D01*
X111193542Y-79389928D01*
X111213504Y-79200000D01*
X113586496Y-79200000D01*
X113606458Y-79389928D01*
X113665473Y-79571556D01*
X113760960Y-79736944D01*
X113888747Y-79878866D01*
X114043248Y-79991118D01*
X114049276Y-79993802D01*
X114049278Y-79993803D01*
X114211681Y-80066109D01*
X114217712Y-80068794D01*
X114311112Y-80088647D01*
X114398056Y-80107128D01*
X114398061Y-80107128D01*
X114404513Y-80108500D01*
X114595487Y-80108500D01*
X114601939Y-80107128D01*
X114601944Y-80107128D01*
X114688888Y-80088647D01*
X114782288Y-80068794D01*
X114788319Y-80066109D01*
X114950722Y-79993803D01*
X114950724Y-79993802D01*
X114956752Y-79991118D01*
X115111253Y-79878866D01*
X115115668Y-79873963D01*
X115120580Y-79869540D01*
X115121705Y-79870789D01*
X115175014Y-79837949D01*
X115208200Y-79833500D01*
X123791800Y-79833500D01*
X123859921Y-79853502D01*
X123879147Y-79869843D01*
X123879420Y-79869540D01*
X123884332Y-79873963D01*
X123888747Y-79878866D01*
X124043248Y-79991118D01*
X124049276Y-79993802D01*
X124049278Y-79993803D01*
X124211681Y-80066109D01*
X124217712Y-80068794D01*
X124311112Y-80088647D01*
X124398056Y-80107128D01*
X124398061Y-80107128D01*
X124404513Y-80108500D01*
X124595487Y-80108500D01*
X124601939Y-80107128D01*
X124601944Y-80107128D01*
X124688888Y-80088647D01*
X124782288Y-80068794D01*
X124788319Y-80066109D01*
X124950722Y-79993803D01*
X124950724Y-79993802D01*
X124956752Y-79991118D01*
X125111253Y-79878866D01*
X125239040Y-79736944D01*
X125334527Y-79571556D01*
X125393542Y-79389928D01*
X125413504Y-79200000D01*
X125393542Y-79010072D01*
X125334527Y-78828444D01*
X125239040Y-78663056D01*
X125150549Y-78564776D01*
X125115675Y-78526045D01*
X125115674Y-78526044D01*
X125111253Y-78521134D01*
X124956752Y-78408882D01*
X124950724Y-78406198D01*
X124950722Y-78406197D01*
X124788319Y-78333891D01*
X124788318Y-78333891D01*
X124782288Y-78331206D01*
X124688887Y-78311353D01*
X124601944Y-78292872D01*
X124601939Y-78292872D01*
X124595487Y-78291500D01*
X124404513Y-78291500D01*
X124398061Y-78292872D01*
X124398056Y-78292872D01*
X124311113Y-78311353D01*
X124217712Y-78331206D01*
X124211682Y-78333891D01*
X124211681Y-78333891D01*
X124049278Y-78406197D01*
X124049276Y-78406198D01*
X124043248Y-78408882D01*
X123888747Y-78521134D01*
X123884332Y-78526037D01*
X123879420Y-78530460D01*
X123878295Y-78529211D01*
X123824986Y-78562051D01*
X123791800Y-78566500D01*
X115208200Y-78566500D01*
X115140079Y-78546498D01*
X115120853Y-78530157D01*
X115120580Y-78530460D01*
X115115668Y-78526037D01*
X115111253Y-78521134D01*
X114956752Y-78408882D01*
X114950724Y-78406198D01*
X114950722Y-78406197D01*
X114788319Y-78333891D01*
X114788318Y-78333891D01*
X114782288Y-78331206D01*
X114688887Y-78311353D01*
X114601944Y-78292872D01*
X114601939Y-78292872D01*
X114595487Y-78291500D01*
X114404513Y-78291500D01*
X114398061Y-78292872D01*
X114398056Y-78292872D01*
X114311113Y-78311353D01*
X114217712Y-78331206D01*
X114211682Y-78333891D01*
X114211681Y-78333891D01*
X114049278Y-78406197D01*
X114049276Y-78406198D01*
X114043248Y-78408882D01*
X113888747Y-78521134D01*
X113884326Y-78526044D01*
X113884325Y-78526045D01*
X113849452Y-78564776D01*
X113760960Y-78663056D01*
X113665473Y-78828444D01*
X113606458Y-79010072D01*
X113586496Y-79200000D01*
X111213504Y-79200000D01*
X111193542Y-79010072D01*
X111134527Y-78828444D01*
X111039040Y-78663056D01*
X110950549Y-78564776D01*
X110915675Y-78526045D01*
X110915674Y-78526044D01*
X110911253Y-78521134D01*
X110756752Y-78408882D01*
X110750724Y-78406198D01*
X110750722Y-78406197D01*
X110588319Y-78333891D01*
X110588318Y-78333891D01*
X110582288Y-78331206D01*
X110488887Y-78311353D01*
X110401944Y-78292872D01*
X110401939Y-78292872D01*
X110395487Y-78291500D01*
X110204513Y-78291500D01*
X110198061Y-78292872D01*
X110198056Y-78292872D01*
X110111113Y-78311353D01*
X110017712Y-78331206D01*
X110011682Y-78333891D01*
X110011681Y-78333891D01*
X109849278Y-78406197D01*
X109849276Y-78406198D01*
X109843248Y-78408882D01*
X109688747Y-78521134D01*
X109684332Y-78526037D01*
X109679420Y-78530460D01*
X109678295Y-78529211D01*
X109624986Y-78562051D01*
X109591800Y-78566500D01*
X105108200Y-78566500D01*
X105040079Y-78546498D01*
X105020853Y-78530157D01*
X105020580Y-78530460D01*
X105015668Y-78526037D01*
X105011253Y-78521134D01*
X104856752Y-78408882D01*
X104850724Y-78406198D01*
X104850722Y-78406197D01*
X104688319Y-78333891D01*
X104688318Y-78333891D01*
X104682288Y-78331206D01*
X104588887Y-78311353D01*
X104501944Y-78292872D01*
X104501939Y-78292872D01*
X104495487Y-78291500D01*
X104304513Y-78291500D01*
X104298061Y-78292872D01*
X104298056Y-78292872D01*
X104211113Y-78311353D01*
X104117712Y-78331206D01*
X104111682Y-78333891D01*
X104111681Y-78333891D01*
X103949278Y-78406197D01*
X103949276Y-78406198D01*
X103943248Y-78408882D01*
X103788747Y-78521134D01*
X103784326Y-78526044D01*
X103784325Y-78526045D01*
X103749452Y-78564776D01*
X103660960Y-78663056D01*
X103565473Y-78828444D01*
X103506458Y-79010072D01*
X103486496Y-79200000D01*
X74508500Y-79200000D01*
X74508500Y-77651110D01*
X92291500Y-77651110D01*
X92291823Y-77657486D01*
X92332853Y-77860973D01*
X92412626Y-78052615D01*
X92528104Y-78225113D01*
X92674887Y-78371896D01*
X92847385Y-78487374D01*
X93039027Y-78567147D01*
X93045071Y-78568366D01*
X93045072Y-78568366D01*
X93237926Y-78607252D01*
X93242514Y-78608177D01*
X93247178Y-78608413D01*
X93247184Y-78608414D01*
X93247302Y-78608420D01*
X93247319Y-78608420D01*
X93248890Y-78608500D01*
X95751110Y-78608500D01*
X95752681Y-78608420D01*
X95752698Y-78608420D01*
X95752816Y-78608414D01*
X95752822Y-78608413D01*
X95757486Y-78608177D01*
X95762074Y-78607252D01*
X95954928Y-78568366D01*
X95954929Y-78568366D01*
X95960973Y-78567147D01*
X96152615Y-78487374D01*
X96325113Y-78371896D01*
X96471896Y-78225113D01*
X96587374Y-78052615D01*
X96667147Y-77860973D01*
X96708177Y-77657486D01*
X96708500Y-77651110D01*
X96708500Y-76348890D01*
X96708177Y-76342514D01*
X96667147Y-76139027D01*
X96587374Y-75947385D01*
X96471896Y-75774887D01*
X96325113Y-75628104D01*
X96152615Y-75512626D01*
X95960973Y-75432853D01*
X95954929Y-75431634D01*
X95954928Y-75431634D01*
X95762074Y-75392748D01*
X95762073Y-75392748D01*
X95757486Y-75391823D01*
X95752822Y-75391587D01*
X95752816Y-75391586D01*
X95752698Y-75391580D01*
X95752681Y-75391580D01*
X95751110Y-75391500D01*
X93248890Y-75391500D01*
X93247319Y-75391580D01*
X93247302Y-75391580D01*
X93247184Y-75391586D01*
X93247178Y-75391587D01*
X93242514Y-75391823D01*
X93237927Y-75392748D01*
X93237926Y-75392748D01*
X93045072Y-75431634D01*
X93045071Y-75431634D01*
X93039027Y-75432853D01*
X92847385Y-75512626D01*
X92674887Y-75628104D01*
X92528104Y-75774887D01*
X92412626Y-75947385D01*
X92332853Y-76139027D01*
X92291823Y-76342514D01*
X92291500Y-76348890D01*
X92291500Y-77651110D01*
X74508500Y-77651110D01*
X74508500Y-73900000D01*
X85486835Y-73900000D01*
X85505465Y-74136711D01*
X85560895Y-74367594D01*
X85651760Y-74586963D01*
X85654346Y-74591183D01*
X85773241Y-74785202D01*
X85773245Y-74785208D01*
X85775824Y-74789416D01*
X85930031Y-74969969D01*
X86110584Y-75124176D01*
X86114792Y-75126755D01*
X86114798Y-75126759D01*
X86308817Y-75245654D01*
X86313037Y-75248240D01*
X86317607Y-75250133D01*
X86317611Y-75250135D01*
X86527833Y-75337211D01*
X86532406Y-75339105D01*
X86612609Y-75358360D01*
X86758476Y-75393380D01*
X86758482Y-75393381D01*
X86763289Y-75394535D01*
X87000000Y-75413165D01*
X87236711Y-75394535D01*
X87241518Y-75393381D01*
X87241524Y-75393380D01*
X87387391Y-75358360D01*
X87467594Y-75339105D01*
X87472167Y-75337211D01*
X87682389Y-75250135D01*
X87682393Y-75250133D01*
X87686963Y-75248240D01*
X87691183Y-75245654D01*
X87885202Y-75126759D01*
X87885208Y-75126755D01*
X87889416Y-75124176D01*
X88069969Y-74969969D01*
X88224176Y-74789416D01*
X88226755Y-74785208D01*
X88226759Y-74785202D01*
X88345654Y-74591183D01*
X88348240Y-74586963D01*
X88439105Y-74367594D01*
X88494535Y-74136711D01*
X88513165Y-73900000D01*
X99986835Y-73900000D01*
X100005465Y-74136711D01*
X100060895Y-74367594D01*
X100151760Y-74586963D01*
X100154346Y-74591183D01*
X100273241Y-74785202D01*
X100273245Y-74785208D01*
X100275824Y-74789416D01*
X100430031Y-74969969D01*
X100610584Y-75124176D01*
X100614792Y-75126755D01*
X100614798Y-75126759D01*
X100808817Y-75245654D01*
X100813037Y-75248240D01*
X100817607Y-75250133D01*
X100817611Y-75250135D01*
X101027833Y-75337211D01*
X101032406Y-75339105D01*
X101112609Y-75358360D01*
X101258476Y-75393380D01*
X101258482Y-75393381D01*
X101263289Y-75394535D01*
X101500000Y-75413165D01*
X101736711Y-75394535D01*
X101741518Y-75393381D01*
X101741524Y-75393380D01*
X101887391Y-75358360D01*
X101967594Y-75339105D01*
X101972167Y-75337211D01*
X102182389Y-75250135D01*
X102182393Y-75250133D01*
X102186963Y-75248240D01*
X102191183Y-75245654D01*
X102385202Y-75126759D01*
X102385208Y-75126755D01*
X102389416Y-75124176D01*
X102569969Y-74969969D01*
X102724176Y-74789416D01*
X102726755Y-74785208D01*
X102726759Y-74785202D01*
X102845654Y-74591183D01*
X102848240Y-74586963D01*
X102939105Y-74367594D01*
X102994535Y-74136711D01*
X103013165Y-73900000D01*
X102994535Y-73663289D01*
X102939105Y-73432406D01*
X102848240Y-73213037D01*
X102845654Y-73208817D01*
X102726759Y-73014798D01*
X102726755Y-73014792D01*
X102724176Y-73010584D01*
X102569969Y-72830031D01*
X102389416Y-72675824D01*
X102385208Y-72673245D01*
X102385202Y-72673241D01*
X102191183Y-72554346D01*
X102186963Y-72551760D01*
X102182393Y-72549867D01*
X102182389Y-72549865D01*
X101972167Y-72462789D01*
X101972165Y-72462788D01*
X101967594Y-72460895D01*
X101887391Y-72441640D01*
X101741524Y-72406620D01*
X101741518Y-72406619D01*
X101736711Y-72405465D01*
X101500000Y-72386835D01*
X101263289Y-72405465D01*
X101258482Y-72406619D01*
X101258476Y-72406620D01*
X101112609Y-72441640D01*
X101032406Y-72460895D01*
X101027835Y-72462788D01*
X101027833Y-72462789D01*
X100817611Y-72549865D01*
X100817607Y-72549867D01*
X100813037Y-72551760D01*
X100808817Y-72554346D01*
X100614798Y-72673241D01*
X100614792Y-72673245D01*
X100610584Y-72675824D01*
X100430031Y-72830031D01*
X100275824Y-73010584D01*
X100273245Y-73014792D01*
X100273241Y-73014798D01*
X100154346Y-73208817D01*
X100151760Y-73213037D01*
X100060895Y-73432406D01*
X100005465Y-73663289D01*
X99986835Y-73900000D01*
X88513165Y-73900000D01*
X88494535Y-73663289D01*
X88439105Y-73432406D01*
X88348240Y-73213037D01*
X88345654Y-73208817D01*
X88226759Y-73014798D01*
X88226755Y-73014792D01*
X88224176Y-73010584D01*
X88220960Y-73006818D01*
X88108440Y-72875073D01*
X88079409Y-72810283D01*
X88090014Y-72740083D01*
X88134157Y-72688539D01*
X88137784Y-72686111D01*
X88147266Y-72678322D01*
X88278322Y-72547266D01*
X88286115Y-72537779D01*
X88389222Y-72383759D01*
X88395022Y-72372943D01*
X88466248Y-72201833D01*
X88469838Y-72190091D01*
X88506767Y-72006945D01*
X88507923Y-71997733D01*
X88508000Y-71994681D01*
X88508000Y-71672115D01*
X88503525Y-71656876D01*
X88502135Y-71655671D01*
X88494452Y-71654000D01*
X85510115Y-71654000D01*
X85494876Y-71658475D01*
X85493671Y-71659865D01*
X85492000Y-71667548D01*
X85492000Y-71994681D01*
X85492077Y-71997733D01*
X85493233Y-72006945D01*
X85530162Y-72190091D01*
X85533752Y-72201833D01*
X85604978Y-72372943D01*
X85610778Y-72383759D01*
X85713885Y-72537779D01*
X85721678Y-72547266D01*
X85852734Y-72678322D01*
X85862216Y-72686111D01*
X85865843Y-72688539D01*
X85911323Y-72743056D01*
X85920109Y-72813507D01*
X85891560Y-72875073D01*
X85779040Y-73006818D01*
X85775824Y-73010584D01*
X85773245Y-73014792D01*
X85773241Y-73014798D01*
X85654346Y-73208817D01*
X85651760Y-73213037D01*
X85560895Y-73432406D01*
X85505465Y-73663289D01*
X85486835Y-73900000D01*
X74508500Y-73900000D01*
X74508500Y-68532703D01*
X78390743Y-68532703D01*
X78428268Y-68817734D01*
X78504129Y-69095036D01*
X78616923Y-69359476D01*
X78628693Y-69379142D01*
X78750334Y-69582389D01*
X78764561Y-69606161D01*
X78944313Y-69830528D01*
X79152851Y-70028423D01*
X79386317Y-70196186D01*
X79390112Y-70198195D01*
X79390113Y-70198196D01*
X79411869Y-70209715D01*
X79640392Y-70330712D01*
X79663327Y-70339105D01*
X79814797Y-70394535D01*
X79910373Y-70429511D01*
X80191264Y-70490755D01*
X80219841Y-70493004D01*
X80414282Y-70508307D01*
X80414291Y-70508307D01*
X80416739Y-70508500D01*
X80572271Y-70508500D01*
X80574407Y-70508354D01*
X80574418Y-70508354D01*
X80782548Y-70494165D01*
X80782554Y-70494164D01*
X80786825Y-70493873D01*
X80791020Y-70493004D01*
X80791022Y-70493004D01*
X80927584Y-70464723D01*
X81068342Y-70435574D01*
X81339343Y-70339607D01*
X81594812Y-70207750D01*
X81598313Y-70205289D01*
X81598317Y-70205287D01*
X81809387Y-70056944D01*
X81830023Y-70042441D01*
X82040622Y-69846740D01*
X82222713Y-69624268D01*
X82372927Y-69379142D01*
X82488483Y-69115898D01*
X82549983Y-68900000D01*
X85486835Y-68900000D01*
X85505465Y-69136711D01*
X85560895Y-69367594D01*
X85651760Y-69586963D01*
X85654346Y-69591183D01*
X85773241Y-69785202D01*
X85773245Y-69785208D01*
X85775824Y-69789416D01*
X85779037Y-69793178D01*
X85779040Y-69793182D01*
X85891560Y-69924927D01*
X85920591Y-69989717D01*
X85909986Y-70059917D01*
X85865843Y-70111461D01*
X85862216Y-70113889D01*
X85852734Y-70121678D01*
X85721678Y-70252734D01*
X85713885Y-70262221D01*
X85610778Y-70416241D01*
X85604978Y-70427057D01*
X85533752Y-70598167D01*
X85530162Y-70609909D01*
X85493233Y-70793055D01*
X85492077Y-70802267D01*
X85492000Y-70805319D01*
X85492000Y-71127885D01*
X85496475Y-71143124D01*
X85497865Y-71144329D01*
X85505548Y-71146000D01*
X88489885Y-71146000D01*
X88505124Y-71141525D01*
X88506329Y-71140135D01*
X88508000Y-71132452D01*
X88508000Y-70805319D01*
X88507923Y-70802267D01*
X88506767Y-70793055D01*
X88469838Y-70609909D01*
X88466248Y-70598167D01*
X88395022Y-70427057D01*
X88389222Y-70416241D01*
X88286115Y-70262221D01*
X88278322Y-70252734D01*
X88147266Y-70121678D01*
X88137784Y-70113889D01*
X88134157Y-70111461D01*
X88088677Y-70056944D01*
X88079891Y-69986493D01*
X88108440Y-69924927D01*
X88220960Y-69793182D01*
X88220963Y-69793178D01*
X88224176Y-69789416D01*
X88226755Y-69785208D01*
X88226759Y-69785202D01*
X88345654Y-69591183D01*
X88348240Y-69586963D01*
X88439105Y-69367594D01*
X88494535Y-69136711D01*
X88513165Y-68900000D01*
X99986835Y-68900000D01*
X100005465Y-69136711D01*
X100060895Y-69367594D01*
X100151760Y-69586963D01*
X100154346Y-69591183D01*
X100273241Y-69785202D01*
X100273245Y-69785208D01*
X100275824Y-69789416D01*
X100430031Y-69969969D01*
X100610584Y-70124176D01*
X100614792Y-70126755D01*
X100614798Y-70126759D01*
X100750170Y-70209715D01*
X100813037Y-70248240D01*
X100817607Y-70250133D01*
X100817611Y-70250135D01*
X101007288Y-70328701D01*
X101032406Y-70339105D01*
X101112609Y-70358360D01*
X101258476Y-70393380D01*
X101258482Y-70393381D01*
X101263289Y-70394535D01*
X101500000Y-70413165D01*
X101736711Y-70394535D01*
X101741518Y-70393381D01*
X101741524Y-70393380D01*
X101887391Y-70358360D01*
X101967594Y-70339105D01*
X101992712Y-70328701D01*
X102182389Y-70250135D01*
X102182393Y-70250133D01*
X102186963Y-70248240D01*
X102249830Y-70209715D01*
X102385202Y-70126759D01*
X102385208Y-70126755D01*
X102389416Y-70124176D01*
X102569969Y-69969969D01*
X102724176Y-69789416D01*
X102726755Y-69785208D01*
X102726759Y-69785202D01*
X102845654Y-69591183D01*
X102848240Y-69586963D01*
X102939105Y-69367594D01*
X102994535Y-69136711D01*
X103013165Y-68900000D01*
X102994535Y-68663289D01*
X102963184Y-68532703D01*
X145590743Y-68532703D01*
X145628268Y-68817734D01*
X145704129Y-69095036D01*
X145816923Y-69359476D01*
X145828693Y-69379142D01*
X145950334Y-69582389D01*
X145964561Y-69606161D01*
X146144313Y-69830528D01*
X146352851Y-70028423D01*
X146586317Y-70196186D01*
X146590112Y-70198195D01*
X146590113Y-70198196D01*
X146611869Y-70209715D01*
X146840392Y-70330712D01*
X146863327Y-70339105D01*
X147014797Y-70394535D01*
X147110373Y-70429511D01*
X147391264Y-70490755D01*
X147419841Y-70493004D01*
X147614282Y-70508307D01*
X147614291Y-70508307D01*
X147616739Y-70508500D01*
X147772271Y-70508500D01*
X147774407Y-70508354D01*
X147774418Y-70508354D01*
X147982548Y-70494165D01*
X147982554Y-70494164D01*
X147986825Y-70493873D01*
X147991020Y-70493004D01*
X147991022Y-70493004D01*
X148127584Y-70464723D01*
X148268342Y-70435574D01*
X148539343Y-70339607D01*
X148794812Y-70207750D01*
X148798313Y-70205289D01*
X148798317Y-70205287D01*
X149009387Y-70056944D01*
X149030023Y-70042441D01*
X149240622Y-69846740D01*
X149422713Y-69624268D01*
X149572927Y-69379142D01*
X149688483Y-69115898D01*
X149767244Y-68839406D01*
X149807751Y-68554784D01*
X149807845Y-68536951D01*
X149809235Y-68271583D01*
X149809235Y-68271576D01*
X149809257Y-68267297D01*
X149771732Y-67982266D01*
X149695871Y-67704964D01*
X149591766Y-67460895D01*
X149584763Y-67444476D01*
X149584761Y-67444472D01*
X149583077Y-67440524D01*
X149435439Y-67193839D01*
X149255687Y-66969472D01*
X149047149Y-66771577D01*
X148813683Y-66603814D01*
X148791843Y-66592250D01*
X148768654Y-66579972D01*
X148559608Y-66469288D01*
X148289627Y-66370489D01*
X148008736Y-66309245D01*
X147977685Y-66306801D01*
X147785718Y-66291693D01*
X147785709Y-66291693D01*
X147783261Y-66291500D01*
X147627729Y-66291500D01*
X147625593Y-66291646D01*
X147625582Y-66291646D01*
X147417452Y-66305835D01*
X147417446Y-66305836D01*
X147413175Y-66306127D01*
X147408980Y-66306996D01*
X147408978Y-66306996D01*
X147272417Y-66335276D01*
X147131658Y-66364426D01*
X146860657Y-66460393D01*
X146605188Y-66592250D01*
X146601687Y-66594711D01*
X146601683Y-66594713D01*
X146591594Y-66601804D01*
X146369977Y-66757559D01*
X146159378Y-66953260D01*
X145977287Y-67175732D01*
X145827073Y-67420858D01*
X145825347Y-67424791D01*
X145825346Y-67424792D01*
X145770443Y-67549865D01*
X145711517Y-67684102D01*
X145632756Y-67960594D01*
X145592249Y-68245216D01*
X145592227Y-68249505D01*
X145592226Y-68249512D01*
X145591292Y-68427833D01*
X145590743Y-68532703D01*
X102963184Y-68532703D01*
X102939105Y-68432406D01*
X102937211Y-68427833D01*
X102850135Y-68217611D01*
X102850133Y-68217607D01*
X102848240Y-68213037D01*
X102845654Y-68208817D01*
X102726759Y-68014798D01*
X102726755Y-68014792D01*
X102724176Y-68010584D01*
X102569969Y-67830031D01*
X102389416Y-67675824D01*
X102385208Y-67673245D01*
X102385202Y-67673241D01*
X102191183Y-67554346D01*
X102186963Y-67551760D01*
X102182393Y-67549867D01*
X102182389Y-67549865D01*
X101972167Y-67462789D01*
X101972165Y-67462788D01*
X101967594Y-67460895D01*
X101867385Y-67436837D01*
X101741524Y-67406620D01*
X101741518Y-67406619D01*
X101736711Y-67405465D01*
X101500000Y-67386835D01*
X101263289Y-67405465D01*
X101258482Y-67406619D01*
X101258476Y-67406620D01*
X101132615Y-67436837D01*
X101032406Y-67460895D01*
X101027835Y-67462788D01*
X101027833Y-67462789D01*
X100817611Y-67549865D01*
X100817607Y-67549867D01*
X100813037Y-67551760D01*
X100808817Y-67554346D01*
X100614798Y-67673241D01*
X100614792Y-67673245D01*
X100610584Y-67675824D01*
X100430031Y-67830031D01*
X100275824Y-68010584D01*
X100273245Y-68014792D01*
X100273241Y-68014798D01*
X100154346Y-68208817D01*
X100151760Y-68213037D01*
X100149867Y-68217607D01*
X100149865Y-68217611D01*
X100062789Y-68427833D01*
X100060895Y-68432406D01*
X100005465Y-68663289D01*
X99986835Y-68900000D01*
X88513165Y-68900000D01*
X88494535Y-68663289D01*
X88439105Y-68432406D01*
X88437211Y-68427833D01*
X88350135Y-68217611D01*
X88350133Y-68217607D01*
X88348240Y-68213037D01*
X88345654Y-68208817D01*
X88226759Y-68014798D01*
X88226755Y-68014792D01*
X88224176Y-68010584D01*
X88069969Y-67830031D01*
X87889416Y-67675824D01*
X87885208Y-67673245D01*
X87885202Y-67673241D01*
X87691183Y-67554346D01*
X87686963Y-67551760D01*
X87682393Y-67549867D01*
X87682389Y-67549865D01*
X87472167Y-67462789D01*
X87472165Y-67462788D01*
X87467594Y-67460895D01*
X87367385Y-67436837D01*
X87241524Y-67406620D01*
X87241518Y-67406619D01*
X87236711Y-67405465D01*
X87000000Y-67386835D01*
X86763289Y-67405465D01*
X86758482Y-67406619D01*
X86758476Y-67406620D01*
X86632615Y-67436837D01*
X86532406Y-67460895D01*
X86527835Y-67462788D01*
X86527833Y-67462789D01*
X86317611Y-67549865D01*
X86317607Y-67549867D01*
X86313037Y-67551760D01*
X86308817Y-67554346D01*
X86114798Y-67673241D01*
X86114792Y-67673245D01*
X86110584Y-67675824D01*
X85930031Y-67830031D01*
X85775824Y-68010584D01*
X85773245Y-68014792D01*
X85773241Y-68014798D01*
X85654346Y-68208817D01*
X85651760Y-68213037D01*
X85649867Y-68217607D01*
X85649865Y-68217611D01*
X85562789Y-68427833D01*
X85560895Y-68432406D01*
X85505465Y-68663289D01*
X85486835Y-68900000D01*
X82549983Y-68900000D01*
X82567244Y-68839406D01*
X82607751Y-68554784D01*
X82607845Y-68536951D01*
X82609235Y-68271583D01*
X82609235Y-68271576D01*
X82609257Y-68267297D01*
X82571732Y-67982266D01*
X82495871Y-67704964D01*
X82391766Y-67460895D01*
X82384763Y-67444476D01*
X82384761Y-67444472D01*
X82383077Y-67440524D01*
X82235439Y-67193839D01*
X82055687Y-66969472D01*
X81847149Y-66771577D01*
X81613683Y-66603814D01*
X81591843Y-66592250D01*
X81568654Y-66579972D01*
X81359608Y-66469288D01*
X81309934Y-66451110D01*
X92291500Y-66451110D01*
X92291823Y-66457486D01*
X92292748Y-66462073D01*
X92292748Y-66462074D01*
X92292806Y-66462359D01*
X92332853Y-66660973D01*
X92412626Y-66852615D01*
X92528104Y-67025113D01*
X92674887Y-67171896D01*
X92847385Y-67287374D01*
X93039027Y-67367147D01*
X93045071Y-67368366D01*
X93045072Y-67368366D01*
X93234792Y-67406620D01*
X93242514Y-67408177D01*
X93247178Y-67408413D01*
X93247184Y-67408414D01*
X93247302Y-67408420D01*
X93247319Y-67408420D01*
X93248890Y-67408500D01*
X95751110Y-67408500D01*
X95752681Y-67408420D01*
X95752698Y-67408420D01*
X95752816Y-67408414D01*
X95752822Y-67408413D01*
X95757486Y-67408177D01*
X95765208Y-67406620D01*
X95954928Y-67368366D01*
X95954929Y-67368366D01*
X95960973Y-67367147D01*
X96152615Y-67287374D01*
X96325113Y-67171896D01*
X96471896Y-67025113D01*
X96587374Y-66852615D01*
X96667147Y-66660973D01*
X96707195Y-66462359D01*
X96707252Y-66462074D01*
X96707252Y-66462073D01*
X96708177Y-66457486D01*
X96708500Y-66451110D01*
X96708500Y-65148890D01*
X96708177Y-65142514D01*
X96667147Y-64939027D01*
X96587374Y-64747385D01*
X96471896Y-64574887D01*
X96325113Y-64428104D01*
X96152615Y-64312626D01*
X95960973Y-64232853D01*
X95954929Y-64231634D01*
X95954928Y-64231634D01*
X95762074Y-64192748D01*
X95762073Y-64192748D01*
X95757486Y-64191823D01*
X95752822Y-64191587D01*
X95752816Y-64191586D01*
X95752698Y-64191580D01*
X95752681Y-64191580D01*
X95751110Y-64191500D01*
X93248890Y-64191500D01*
X93247319Y-64191580D01*
X93247302Y-64191580D01*
X93247184Y-64191586D01*
X93247178Y-64191587D01*
X93242514Y-64191823D01*
X93237927Y-64192748D01*
X93237926Y-64192748D01*
X93045072Y-64231634D01*
X93045071Y-64231634D01*
X93039027Y-64232853D01*
X92847385Y-64312626D01*
X92674887Y-64428104D01*
X92528104Y-64574887D01*
X92412626Y-64747385D01*
X92332853Y-64939027D01*
X92291823Y-65142514D01*
X92291500Y-65148890D01*
X92291500Y-66451110D01*
X81309934Y-66451110D01*
X81089627Y-66370489D01*
X80808736Y-66309245D01*
X80777685Y-66306801D01*
X80585718Y-66291693D01*
X80585709Y-66291693D01*
X80583261Y-66291500D01*
X80427729Y-66291500D01*
X80425593Y-66291646D01*
X80425582Y-66291646D01*
X80217452Y-66305835D01*
X80217446Y-66305836D01*
X80213175Y-66306127D01*
X80208980Y-66306996D01*
X80208978Y-66306996D01*
X80072417Y-66335276D01*
X79931658Y-66364426D01*
X79660657Y-66460393D01*
X79405188Y-66592250D01*
X79401687Y-66594711D01*
X79401683Y-66594713D01*
X79391594Y-66601804D01*
X79169977Y-66757559D01*
X78959378Y-66953260D01*
X78777287Y-67175732D01*
X78627073Y-67420858D01*
X78625347Y-67424791D01*
X78625346Y-67424792D01*
X78570443Y-67549865D01*
X78511517Y-67684102D01*
X78432756Y-67960594D01*
X78392249Y-68245216D01*
X78392227Y-68249505D01*
X78392226Y-68249512D01*
X78391292Y-68427833D01*
X78390743Y-68532703D01*
X74508500Y-68532703D01*
X74508500Y-63953250D01*
X74510246Y-63932345D01*
X74512770Y-63917344D01*
X74512770Y-63917341D01*
X74513576Y-63912552D01*
X74513729Y-63900000D01*
X74513040Y-63895186D01*
X74513039Y-63895176D01*
X74512157Y-63889017D01*
X74511206Y-63862172D01*
X74523038Y-63696723D01*
X74525596Y-63678934D01*
X74566999Y-63488607D01*
X74572063Y-63471359D01*
X74640136Y-63288850D01*
X74647604Y-63272498D01*
X74740952Y-63101542D01*
X74750672Y-63086418D01*
X74867402Y-62930486D01*
X74879175Y-62916900D01*
X75016900Y-62779175D01*
X75030486Y-62767402D01*
X75186418Y-62650672D01*
X75201542Y-62640952D01*
X75372498Y-62547604D01*
X75388850Y-62540136D01*
X75571359Y-62472063D01*
X75588608Y-62466999D01*
X75778936Y-62425596D01*
X75796715Y-62423039D01*
X75958605Y-62411460D01*
X75976565Y-62412207D01*
X75984845Y-62412308D01*
X75993724Y-62413691D01*
X76025286Y-62409564D01*
X76041621Y-62408500D01*
X106146750Y-62408500D01*
X106167655Y-62410246D01*
X106182656Y-62412770D01*
X106182659Y-62412770D01*
X106187448Y-62413576D01*
X106193724Y-62413653D01*
X106195141Y-62413670D01*
X106195144Y-62413670D01*
X106200000Y-62413729D01*
X106204810Y-62413040D01*
X106207237Y-62412882D01*
X106212933Y-62412303D01*
X106499122Y-62394992D01*
X106499127Y-62394991D01*
X106502919Y-62394762D01*
X106801421Y-62340059D01*
X106834443Y-62329769D01*
X108771500Y-62329769D01*
X108771800Y-62332825D01*
X108771800Y-62332832D01*
X108772398Y-62338927D01*
X108785920Y-62476833D01*
X108843084Y-62666169D01*
X108935934Y-62840796D01*
X108998003Y-62916900D01*
X109057040Y-62989287D01*
X109057043Y-62989290D01*
X109060935Y-62994062D01*
X109065682Y-62997989D01*
X109065684Y-62997991D01*
X109208575Y-63116201D01*
X109208579Y-63116203D01*
X109213325Y-63120130D01*
X109387299Y-63214198D01*
X109576232Y-63272682D01*
X109582357Y-63273326D01*
X109582358Y-63273326D01*
X109766796Y-63292711D01*
X109766798Y-63292711D01*
X109772925Y-63293355D01*
X109855424Y-63285847D01*
X109963749Y-63275989D01*
X109963752Y-63275988D01*
X109969888Y-63275430D01*
X109975794Y-63273692D01*
X109975798Y-63273691D01*
X110080924Y-63242751D01*
X110159619Y-63219590D01*
X110165077Y-63216737D01*
X110165081Y-63216735D01*
X110255853Y-63169280D01*
X110334890Y-63127960D01*
X110489025Y-63004032D01*
X110616154Y-62852526D01*
X110619121Y-62847128D01*
X110619125Y-62847123D01*
X110708467Y-62684608D01*
X110711433Y-62679213D01*
X110713846Y-62671608D01*
X110769373Y-62496564D01*
X110769373Y-62496563D01*
X110771235Y-62490694D01*
X110788500Y-62336773D01*
X110788500Y-62117138D01*
X110808502Y-62049017D01*
X110862158Y-62002524D01*
X110932432Y-61992420D01*
X110941986Y-61994172D01*
X110946460Y-61995172D01*
X111116543Y-62033190D01*
X111122088Y-62033500D01*
X111255244Y-62033500D01*
X111390037Y-62018857D01*
X111508190Y-61979094D01*
X111555204Y-61963272D01*
X111555206Y-61963271D01*
X111561675Y-61961094D01*
X111716905Y-61867823D01*
X111721862Y-61863135D01*
X111721865Y-61863133D01*
X111843527Y-61748082D01*
X111843529Y-61748080D01*
X111848485Y-61743393D01*
X111852317Y-61737755D01*
X111852320Y-61737751D01*
X111946442Y-61599255D01*
X111950277Y-61593612D01*
X112017530Y-61425466D01*
X112018644Y-61418738D01*
X112018645Y-61418734D01*
X112045993Y-61253539D01*
X112045993Y-61253536D01*
X112047108Y-61246802D01*
X112042203Y-61153198D01*
X116152892Y-61153198D01*
X116153249Y-61160015D01*
X116153249Y-61160019D01*
X116158151Y-61253539D01*
X116162370Y-61334047D01*
X116164181Y-61340620D01*
X116164181Y-61340623D01*
X116187551Y-61425466D01*
X116210461Y-61508641D01*
X116294922Y-61668836D01*
X116299327Y-61674049D01*
X116299330Y-61674053D01*
X116407406Y-61801943D01*
X116407410Y-61801947D01*
X116411813Y-61807157D01*
X116417237Y-61811304D01*
X116417238Y-61811305D01*
X116550257Y-61913006D01*
X116550261Y-61913009D01*
X116555678Y-61917150D01*
X116642372Y-61957576D01*
X116713631Y-61990805D01*
X116713634Y-61990806D01*
X116719808Y-61993685D01*
X116726456Y-61995171D01*
X116726459Y-61995172D01*
X116822686Y-62016681D01*
X116896543Y-62033190D01*
X116902088Y-62033500D01*
X117035244Y-62033500D01*
X117170037Y-62018857D01*
X117245312Y-61993524D01*
X117316253Y-61990754D01*
X117377432Y-62026777D01*
X117409423Y-62090158D01*
X117411500Y-62112943D01*
X117411500Y-62329769D01*
X117411800Y-62332825D01*
X117411800Y-62332832D01*
X117412398Y-62338927D01*
X117425920Y-62476833D01*
X117483084Y-62666169D01*
X117575934Y-62840796D01*
X117638003Y-62916900D01*
X117697040Y-62989287D01*
X117697043Y-62989290D01*
X117700935Y-62994062D01*
X117705682Y-62997989D01*
X117705684Y-62997991D01*
X117848575Y-63116201D01*
X117848579Y-63116203D01*
X117853325Y-63120130D01*
X118027299Y-63214198D01*
X118216232Y-63272682D01*
X118222357Y-63273326D01*
X118222358Y-63273326D01*
X118406796Y-63292711D01*
X118406798Y-63292711D01*
X118412925Y-63293355D01*
X118495424Y-63285847D01*
X118603749Y-63275989D01*
X118603752Y-63275988D01*
X118609888Y-63275430D01*
X118615794Y-63273692D01*
X118615798Y-63273691D01*
X118720924Y-63242751D01*
X118799619Y-63219590D01*
X118805077Y-63216737D01*
X118805081Y-63216735D01*
X118895853Y-63169280D01*
X118974890Y-63127960D01*
X119129025Y-63004032D01*
X119256154Y-62852526D01*
X119259121Y-62847128D01*
X119259125Y-62847123D01*
X119348467Y-62684608D01*
X119351433Y-62679213D01*
X119353846Y-62671608D01*
X119409373Y-62496564D01*
X119409373Y-62496563D01*
X119411235Y-62490694D01*
X119428500Y-62336773D01*
X119428500Y-61130231D01*
X119427814Y-61123227D01*
X119421553Y-61059377D01*
X119414080Y-60983167D01*
X119356916Y-60793831D01*
X119264066Y-60619204D01*
X119190219Y-60528659D01*
X119142960Y-60470713D01*
X119142957Y-60470710D01*
X119139065Y-60465938D01*
X119132718Y-60460687D01*
X118991425Y-60343799D01*
X118991421Y-60343797D01*
X118986675Y-60339870D01*
X118812701Y-60245802D01*
X118623768Y-60187318D01*
X118617643Y-60186674D01*
X118617642Y-60186674D01*
X118433204Y-60167289D01*
X118433202Y-60167289D01*
X118427075Y-60166645D01*
X118344576Y-60174153D01*
X118236251Y-60184011D01*
X118236248Y-60184012D01*
X118230112Y-60184570D01*
X118224206Y-60186308D01*
X118224202Y-60186309D01*
X118167766Y-60202919D01*
X118040381Y-60240410D01*
X118034923Y-60243263D01*
X118034919Y-60243265D01*
X117944147Y-60290720D01*
X117865110Y-60332040D01*
X117710975Y-60455968D01*
X117662600Y-60513619D01*
X117603493Y-60552944D01*
X117532506Y-60554070D01*
X117489552Y-60532722D01*
X117429743Y-60486994D01*
X117429739Y-60486991D01*
X117424322Y-60482850D01*
X117319186Y-60433825D01*
X117266369Y-60409195D01*
X117266366Y-60409194D01*
X117260192Y-60406315D01*
X117253544Y-60404829D01*
X117253541Y-60404828D01*
X117088494Y-60367936D01*
X117088495Y-60367936D01*
X117083457Y-60366810D01*
X117077912Y-60366500D01*
X116944756Y-60366500D01*
X116809963Y-60381143D01*
X116726609Y-60409195D01*
X116644796Y-60436728D01*
X116644794Y-60436729D01*
X116638325Y-60438906D01*
X116483095Y-60532177D01*
X116478138Y-60536865D01*
X116478135Y-60536867D01*
X116356473Y-60651918D01*
X116351515Y-60656607D01*
X116347683Y-60662245D01*
X116347680Y-60662249D01*
X116261953Y-60788392D01*
X116249723Y-60806388D01*
X116182470Y-60974534D01*
X116181356Y-60981262D01*
X116181355Y-60981266D01*
X116157270Y-61126751D01*
X116152892Y-61153198D01*
X112042203Y-61153198D01*
X112037987Y-61072766D01*
X112037630Y-61065953D01*
X112014304Y-60981266D01*
X111991352Y-60897941D01*
X111989539Y-60891359D01*
X111905078Y-60731164D01*
X111900673Y-60725951D01*
X111900670Y-60725947D01*
X111792594Y-60598057D01*
X111792590Y-60598053D01*
X111788187Y-60592843D01*
X111782762Y-60588695D01*
X111649743Y-60486994D01*
X111649739Y-60486991D01*
X111644322Y-60482850D01*
X111539186Y-60433825D01*
X111486369Y-60409195D01*
X111486366Y-60409194D01*
X111480192Y-60406315D01*
X111473544Y-60404829D01*
X111473541Y-60404828D01*
X111308494Y-60367936D01*
X111308495Y-60367936D01*
X111303457Y-60366810D01*
X111297912Y-60366500D01*
X111164756Y-60366500D01*
X111029963Y-60381143D01*
X110946609Y-60409195D01*
X110864796Y-60436728D01*
X110864794Y-60436729D01*
X110858325Y-60438906D01*
X110703095Y-60532177D01*
X110702671Y-60531472D01*
X110641480Y-60554762D01*
X110572007Y-60540135D01*
X110534008Y-60508782D01*
X110512858Y-60482850D01*
X110499065Y-60465938D01*
X110492718Y-60460687D01*
X110351425Y-60343799D01*
X110351421Y-60343797D01*
X110346675Y-60339870D01*
X110172701Y-60245802D01*
X109983768Y-60187318D01*
X109977643Y-60186674D01*
X109977642Y-60186674D01*
X109793204Y-60167289D01*
X109793202Y-60167289D01*
X109787075Y-60166645D01*
X109704576Y-60174153D01*
X109596251Y-60184011D01*
X109596248Y-60184012D01*
X109590112Y-60184570D01*
X109584206Y-60186308D01*
X109584202Y-60186309D01*
X109527766Y-60202919D01*
X109400381Y-60240410D01*
X109394923Y-60243263D01*
X109394919Y-60243265D01*
X109304147Y-60290720D01*
X109225110Y-60332040D01*
X109070975Y-60455968D01*
X108943846Y-60607474D01*
X108940879Y-60612872D01*
X108940875Y-60612877D01*
X108916835Y-60656607D01*
X108848567Y-60780787D01*
X108846706Y-60786654D01*
X108846705Y-60786656D01*
X108815407Y-60885320D01*
X108788765Y-60969306D01*
X108771500Y-61123227D01*
X108771500Y-62329769D01*
X106834443Y-62329769D01*
X107091152Y-62249775D01*
X107094622Y-62248213D01*
X107094628Y-62248211D01*
X107229521Y-62187500D01*
X107367889Y-62125226D01*
X107371146Y-62123257D01*
X107371150Y-62123255D01*
X107519736Y-62033431D01*
X107627595Y-61968228D01*
X107641192Y-61957576D01*
X107761739Y-61863133D01*
X107866484Y-61781071D01*
X108081071Y-61566484D01*
X108219372Y-61389955D01*
X108265874Y-61330600D01*
X108265876Y-61330597D01*
X108268228Y-61327595D01*
X108375531Y-61150094D01*
X108423255Y-61071150D01*
X108423257Y-61071146D01*
X108425226Y-61067889D01*
X108504676Y-60891359D01*
X108548211Y-60794628D01*
X108548213Y-60794622D01*
X108549775Y-60791152D01*
X108605519Y-60612264D01*
X108638927Y-60505054D01*
X108638927Y-60505053D01*
X108640059Y-60501421D01*
X108694762Y-60202919D01*
X108695596Y-60189140D01*
X108711219Y-59930846D01*
X108712735Y-59917554D01*
X108713576Y-59912552D01*
X108713729Y-59900000D01*
X108709773Y-59872376D01*
X108708500Y-59854514D01*
X108708500Y-58484726D01*
X108728502Y-58416605D01*
X108782158Y-58370112D01*
X108852432Y-58360008D01*
X108917012Y-58389502D01*
X108935827Y-58410883D01*
X108935934Y-58410796D01*
X108945501Y-58422526D01*
X109057040Y-58559287D01*
X109057043Y-58559290D01*
X109060935Y-58564062D01*
X109065682Y-58567989D01*
X109065684Y-58567991D01*
X109208575Y-58686201D01*
X109208579Y-58686203D01*
X109213325Y-58690130D01*
X109387299Y-58784198D01*
X109576232Y-58842682D01*
X109582357Y-58843326D01*
X109582358Y-58843326D01*
X109766796Y-58862711D01*
X109766798Y-58862711D01*
X109772925Y-58863355D01*
X109855424Y-58855847D01*
X109963749Y-58845989D01*
X109963752Y-58845988D01*
X109969888Y-58845430D01*
X109975794Y-58843692D01*
X109975798Y-58843691D01*
X110080924Y-58812751D01*
X110159619Y-58789590D01*
X110165077Y-58786737D01*
X110165081Y-58786735D01*
X110255853Y-58739280D01*
X110334890Y-58697960D01*
X110489025Y-58574032D01*
X110616154Y-58422526D01*
X110619121Y-58417128D01*
X110619125Y-58417123D01*
X110708467Y-58254608D01*
X110711433Y-58249213D01*
X110713846Y-58241608D01*
X110769373Y-58066564D01*
X110769373Y-58066563D01*
X110771235Y-58060694D01*
X110788500Y-57906773D01*
X110788500Y-57200231D01*
X110787814Y-57193227D01*
X110774681Y-57059301D01*
X110774080Y-57053167D01*
X110716916Y-56863831D01*
X110624066Y-56689204D01*
X110562842Y-56614136D01*
X110535288Y-56548704D01*
X110547483Y-56478763D01*
X110595556Y-56426518D01*
X110660485Y-56408500D01*
X117539335Y-56408500D01*
X117607456Y-56428502D01*
G37*
%TD.AperFunction*%
%TA.AperFunction,Conductor*%
G36*
X109642012Y-95312904D02*
G01*
X109676652Y-95361745D01*
X109687804Y-95389912D01*
X109691649Y-95401142D01*
X109695933Y-95415888D01*
X109703982Y-95443593D01*
X109708015Y-95450412D01*
X109708017Y-95450417D01*
X109714293Y-95461028D01*
X109722988Y-95478776D01*
X109730448Y-95497617D01*
X109735110Y-95504033D01*
X109735110Y-95504034D01*
X109756436Y-95533387D01*
X109762952Y-95543307D01*
X109785458Y-95581362D01*
X109799779Y-95595683D01*
X109812619Y-95610716D01*
X109824528Y-95627107D01*
X109830634Y-95632158D01*
X109858605Y-95655298D01*
X109867384Y-95663288D01*
X112196343Y-97992247D01*
X112203887Y-98000537D01*
X112208000Y-98007018D01*
X112213777Y-98012443D01*
X112257667Y-98053658D01*
X112260509Y-98056413D01*
X112280231Y-98076135D01*
X112283373Y-98078572D01*
X112283433Y-98078619D01*
X112292445Y-98086317D01*
X112318036Y-98110347D01*
X112324679Y-98116586D01*
X112331622Y-98120403D01*
X112342431Y-98126345D01*
X112358953Y-98137198D01*
X112374959Y-98149614D01*
X112382237Y-98152764D01*
X112382238Y-98152764D01*
X112415537Y-98167174D01*
X112426187Y-98172391D01*
X112464940Y-98193695D01*
X112472615Y-98195666D01*
X112472616Y-98195666D01*
X112484562Y-98198733D01*
X112503267Y-98205137D01*
X112521855Y-98213181D01*
X112529678Y-98214420D01*
X112529688Y-98214423D01*
X112565524Y-98220099D01*
X112577144Y-98222505D01*
X112612289Y-98231528D01*
X112619970Y-98233500D01*
X112640224Y-98233500D01*
X112659934Y-98235051D01*
X112679943Y-98238220D01*
X112687835Y-98237474D01*
X112723961Y-98234059D01*
X112735819Y-98233500D01*
X122160406Y-98233500D01*
X122228527Y-98253502D01*
X122249501Y-98270405D01*
X122494344Y-98515248D01*
X122528370Y-98577560D01*
X122523305Y-98648375D01*
X122480758Y-98705211D01*
X122414238Y-98730022D01*
X122375837Y-98726862D01*
X122346810Y-98719893D01*
X122291524Y-98706620D01*
X122291518Y-98706619D01*
X122286711Y-98705465D01*
X122050000Y-98686835D01*
X121813289Y-98705465D01*
X121808482Y-98706619D01*
X121808476Y-98706620D01*
X121662609Y-98741640D01*
X121582406Y-98760895D01*
X121577835Y-98762788D01*
X121577833Y-98762789D01*
X121367611Y-98849865D01*
X121367607Y-98849867D01*
X121363037Y-98851760D01*
X121358817Y-98854346D01*
X121164798Y-98973241D01*
X121164792Y-98973245D01*
X121160584Y-98975824D01*
X120980031Y-99130031D01*
X120825824Y-99310584D01*
X120823245Y-99314792D01*
X120823241Y-99314798D01*
X120705867Y-99506335D01*
X120653219Y-99553966D01*
X120598434Y-99566500D01*
X117001566Y-99566500D01*
X116933445Y-99546498D01*
X116894133Y-99506335D01*
X116776759Y-99314798D01*
X116776755Y-99314792D01*
X116774176Y-99310584D01*
X116619969Y-99130031D01*
X116439416Y-98975824D01*
X116435208Y-98973245D01*
X116435202Y-98973241D01*
X116241183Y-98854346D01*
X116236963Y-98851760D01*
X116232393Y-98849867D01*
X116232389Y-98849865D01*
X116022167Y-98762789D01*
X116022165Y-98762788D01*
X116017594Y-98760895D01*
X115937391Y-98741640D01*
X115791524Y-98706620D01*
X115791518Y-98706619D01*
X115786711Y-98705465D01*
X115550000Y-98686835D01*
X115313289Y-98705465D01*
X115308482Y-98706619D01*
X115308476Y-98706620D01*
X115162609Y-98741640D01*
X115082406Y-98760895D01*
X115077835Y-98762788D01*
X115077833Y-98762789D01*
X114867611Y-98849865D01*
X114867607Y-98849867D01*
X114863037Y-98851760D01*
X114858817Y-98854346D01*
X114664798Y-98973241D01*
X114664792Y-98973245D01*
X114660584Y-98975824D01*
X114480031Y-99130031D01*
X114325824Y-99310584D01*
X114323245Y-99314792D01*
X114323241Y-99314798D01*
X114205867Y-99506335D01*
X114153219Y-99553966D01*
X114098434Y-99566500D01*
X112414594Y-99566500D01*
X112346473Y-99546498D01*
X112325499Y-99529595D01*
X109470405Y-96674500D01*
X109436379Y-96612188D01*
X109433500Y-96585405D01*
X109433500Y-95408128D01*
X109453502Y-95340007D01*
X109507158Y-95293514D01*
X109577432Y-95283410D01*
X109642012Y-95312904D01*
G37*
%TD.AperFunction*%
%TD*%
M02*
