%TF.GenerationSoftware,KiCad,Pcbnew,(6.0.9)*%
%TF.CreationDate,2022-12-02T19:50:30+08:00*%
%TF.ProjectId,sharkpad rev2,73686172-6b70-4616-9420-726576322e6b,rev?*%
%TF.SameCoordinates,Original*%
%TF.FileFunction,Legend,Bot*%
%TF.FilePolarity,Positive*%
%FSLAX46Y46*%
G04 Gerber Fmt 4.6, Leading zero omitted, Abs format (unit mm)*
G04 Created by KiCad (PCBNEW (6.0.9)) date 2022-12-02 19:50:30*
%MOMM*%
%LPD*%
G01*
G04 APERTURE LIST*
G04 Aperture macros list*
%AMRoundRect*
0 Rectangle with rounded corners*
0 $1 Rounding radius*
0 $2 $3 $4 $5 $6 $7 $8 $9 X,Y pos of 4 corners*
0 Add a 4 corners polygon primitive as box body*
4,1,4,$2,$3,$4,$5,$6,$7,$8,$9,$2,$3,0*
0 Add four circle primitives for the rounded corners*
1,1,$1+$1,$2,$3*
1,1,$1+$1,$4,$5*
1,1,$1+$1,$6,$7*
1,1,$1+$1,$8,$9*
0 Add four rect primitives between the rounded corners*
20,1,$1+$1,$2,$3,$4,$5,0*
20,1,$1+$1,$4,$5,$6,$7,0*
20,1,$1+$1,$6,$7,$8,$9,0*
20,1,$1+$1,$8,$9,$2,$3,0*%
%AMRotRect*
0 Rectangle, with rotation*
0 The origin of the aperture is its center*
0 $1 length*
0 $2 width*
0 $3 Rotation angle, in degrees counterclockwise*
0 Add horizontal line*
21,1,$1,$2,0,0,$3*%
%AMFreePoly0*
4,1,18,-0.410000,0.593000,-0.403758,0.624380,-0.385983,0.650983,-0.359380,0.668758,-0.328000,0.675000,0.328000,0.675000,0.359380,0.668758,0.385983,0.650983,0.403758,0.624380,0.410000,0.593000,0.410000,-0.593000,0.403758,-0.624380,0.385983,-0.650983,0.359380,-0.668758,0.328000,-0.675000,0.000000,-0.675000,-0.410000,-0.265000,-0.410000,0.593000,-0.410000,0.593000,$1*%
G04 Aperture macros list end*
%ADD10C,0.120000*%
%ADD11C,0.150000*%
%ADD12C,3.200000*%
%ADD13C,2.000000*%
%ADD14RoundRect,0.500000X-0.500000X-0.500000X0.500000X-0.500000X0.500000X0.500000X-0.500000X0.500000X0*%
%ADD15RoundRect,0.550000X-1.150000X-0.550000X1.150000X-0.550000X1.150000X0.550000X-1.150000X0.550000X0*%
%ADD16RoundRect,0.082000X-0.593000X0.328000X-0.593000X-0.328000X0.593000X-0.328000X0.593000X0.328000X0*%
%ADD17FreePoly0,270.000000*%
%ADD18RoundRect,0.150000X0.150000X-0.587500X0.150000X0.587500X-0.150000X0.587500X-0.150000X-0.587500X0*%
%ADD19R,0.900000X1.200000*%
%ADD20RoundRect,0.140000X-0.170000X0.140000X-0.170000X-0.140000X0.170000X-0.140000X0.170000X0.140000X0*%
%ADD21RoundRect,0.135000X-0.135000X-0.185000X0.135000X-0.185000X0.135000X0.185000X-0.135000X0.185000X0*%
%ADD22C,0.650000*%
%ADD23R,0.600000X1.450000*%
%ADD24R,0.300000X1.450000*%
%ADD25O,1.000000X1.600000*%
%ADD26O,1.000000X2.100000*%
%ADD27RoundRect,0.140000X-0.021213X0.219203X-0.219203X0.021213X0.021213X-0.219203X0.219203X-0.021213X0*%
%ADD28RoundRect,0.150000X-0.475000X-0.150000X0.475000X-0.150000X0.475000X0.150000X-0.475000X0.150000X0*%
%ADD29RoundRect,0.140000X0.170000X-0.140000X0.170000X0.140000X-0.170000X0.140000X-0.170000X-0.140000X0*%
%ADD30RoundRect,0.135000X0.135000X0.185000X-0.135000X0.185000X-0.135000X-0.185000X0.135000X-0.185000X0*%
%ADD31RoundRect,0.135000X0.185000X-0.135000X0.185000X0.135000X-0.185000X0.135000X-0.185000X-0.135000X0*%
%ADD32RoundRect,0.250000X-0.475000X0.250000X-0.475000X-0.250000X0.475000X-0.250000X0.475000X0.250000X0*%
%ADD33R,1.200000X0.900000*%
%ADD34RotRect,1.400000X1.200000X225.000000*%
%ADD35RoundRect,0.135000X-0.185000X0.135000X-0.185000X-0.135000X0.185000X-0.135000X0.185000X0.135000X0*%
%ADD36C,3.987800*%
%ADD37C,1.750000*%
%ADD38RoundRect,0.250000X1.025000X1.000000X-1.025000X1.000000X-1.025000X-1.000000X1.025000X-1.000000X0*%
%ADD39C,3.300000*%
%ADD40RoundRect,0.150000X0.150000X-0.650000X0.150000X0.650000X-0.150000X0.650000X-0.150000X-0.650000X0*%
%ADD41RoundRect,0.140000X0.021213X-0.219203X0.219203X-0.021213X-0.021213X0.219203X-0.219203X0.021213X0*%
%ADD42RoundRect,0.140000X-0.140000X-0.170000X0.140000X-0.170000X0.140000X0.170000X-0.140000X0.170000X0*%
%ADD43RoundRect,0.140000X0.140000X0.170000X-0.140000X0.170000X-0.140000X-0.170000X0.140000X-0.170000X0*%
%ADD44RoundRect,0.218750X0.256250X-0.218750X0.256250X0.218750X-0.256250X0.218750X-0.256250X-0.218750X0*%
%ADD45R,1.500000X1.000000*%
%ADD46RoundRect,0.050000X0.387500X0.050000X-0.387500X0.050000X-0.387500X-0.050000X0.387500X-0.050000X0*%
%ADD47RoundRect,0.050000X0.050000X0.387500X-0.050000X0.387500X-0.050000X-0.387500X0.050000X-0.387500X0*%
%ADD48R,3.200000X3.200000*%
%ADD49RoundRect,0.250000X-0.375000X-0.625000X0.375000X-0.625000X0.375000X0.625000X-0.375000X0.625000X0*%
G04 APERTURE END LIST*
D10*
%TO.C,LED2*%
X110300000Y-92780000D02*
X110300000Y-91780000D01*
X110300000Y-91780000D02*
X111200000Y-91780000D01*
%TO.C,U2*%
X121872500Y-72662500D02*
X121872500Y-72012500D01*
X118752500Y-72662500D02*
X118752500Y-73312500D01*
X118752500Y-72662500D02*
X118752500Y-72012500D01*
X121872500Y-72662500D02*
X121872500Y-74337500D01*
%TO.C,D9*%
X134450000Y-78200000D02*
X138350000Y-78200000D01*
X134450000Y-80200000D02*
X134450000Y-78200000D01*
X134450000Y-80200000D02*
X138350000Y-80200000D01*
%TO.C,C15*%
X113346000Y-124092164D02*
X113346000Y-124307836D01*
X114066000Y-124092164D02*
X114066000Y-124307836D01*
%TO.C,R8*%
X89971359Y-94417500D02*
X90278641Y-94417500D01*
X89971359Y-93657500D02*
X90278641Y-93657500D01*
%TO.C,J1*%
X118800000Y-60500000D02*
X118800000Y-58500000D01*
X109400000Y-60500000D02*
X109400000Y-58500000D01*
%TO.C,LED3*%
X129350000Y-91780000D02*
X130250000Y-91780000D01*
X129350000Y-92780000D02*
X129350000Y-91780000D01*
%TO.C,C16*%
X129243000Y-109172164D02*
X129243000Y-109387836D01*
X128523000Y-109172164D02*
X128523000Y-109387836D01*
%TO.C,C1*%
X119330810Y-124078307D02*
X119178307Y-124230810D01*
X118821693Y-123569190D02*
X118669190Y-123721693D01*
%TO.C,U3*%
X114100000Y-66702500D02*
X113300000Y-66702500D01*
X112000000Y-69212500D02*
X112000000Y-69822500D01*
X112000000Y-69822500D02*
X114900000Y-69822500D01*
X114100000Y-66702500D02*
X114900000Y-66702500D01*
%TO.C,C3*%
X111860000Y-112607836D02*
X111860000Y-112392164D01*
X111140000Y-112607836D02*
X111140000Y-112392164D01*
%TO.C,R4*%
X112543641Y-65380000D02*
X112236359Y-65380000D01*
X112543641Y-64620000D02*
X112236359Y-64620000D01*
%TO.C,R1*%
X108920000Y-124353641D02*
X108920000Y-124046359D01*
X109680000Y-124353641D02*
X109680000Y-124046359D01*
%TO.C,D2*%
X101550000Y-78200000D02*
X101550000Y-80200000D01*
X101550000Y-80200000D02*
X97650000Y-80200000D01*
X101550000Y-78200000D02*
X97650000Y-78200000D01*
%TO.C,C17*%
X140335000Y-92038748D02*
X140335000Y-92561252D01*
X138865000Y-92038748D02*
X138865000Y-92561252D01*
%TO.C,LED1*%
X91250000Y-92780000D02*
X91250000Y-91780000D01*
X91250000Y-91780000D02*
X92150000Y-91780000D01*
%TO.C,D7*%
X127425000Y-100200000D02*
X129425000Y-100200000D01*
X129425000Y-100200000D02*
X129425000Y-104100000D01*
X127425000Y-100200000D02*
X127425000Y-104100000D01*
%TO.C,C12*%
X108960000Y-115207836D02*
X108960000Y-114992164D01*
X108240000Y-115207836D02*
X108240000Y-114992164D01*
%TO.C,Y1*%
X117647487Y-124219060D02*
X119980940Y-126552513D01*
X119980940Y-126552513D02*
X117152513Y-129380940D01*
%TO.C,D11*%
X105500000Y-78250000D02*
X103500000Y-78250000D01*
X103500000Y-78250000D02*
X103500000Y-74350000D01*
X105500000Y-78250000D02*
X105500000Y-74350000D01*
%TO.C,R3*%
X112020000Y-109046359D02*
X112020000Y-109353641D01*
X112780000Y-109046359D02*
X112780000Y-109353641D01*
%TO.C,C8*%
X119160000Y-115007836D02*
X119160000Y-114792164D01*
X118440000Y-115007836D02*
X118440000Y-114792164D01*
%TO.C,D3*%
X136962500Y-100200000D02*
X138962500Y-100200000D01*
X138962500Y-100200000D02*
X138962500Y-104100000D01*
X136962500Y-100200000D02*
X136962500Y-104100000D01*
D11*
%TO.C,SW3*%
X108014824Y-84249780D02*
X108014824Y-83449780D01*
X118464824Y-85499780D02*
X113900000Y-85499780D01*
X117414824Y-81449780D02*
X118964824Y-81449780D01*
X118964824Y-81449780D02*
X118964824Y-81679780D01*
X110014824Y-81449780D02*
X115914824Y-81449780D01*
X108014824Y-87099780D02*
X108014824Y-87339780D01*
X118964824Y-84529780D02*
X118964824Y-84999780D01*
X113900000Y-85499780D02*
G75*
G03*
X111605678Y-87339780I-866J-2349332D01*
G01*
X118464824Y-85499780D02*
G75*
G03*
X118964824Y-84999780I-1J500001D01*
G01*
X110014824Y-81449780D02*
G75*
G03*
X108014824Y-83449780I-15J-1999985D01*
G01*
D10*
%TO.C,U4*%
X127925000Y-112300000D02*
X127925000Y-115025000D01*
X122475000Y-115025000D02*
X122735000Y-115025000D01*
X127925000Y-112300000D02*
X127925000Y-109575000D01*
X122475000Y-109575000D02*
X122735000Y-109575000D01*
X122475000Y-112300000D02*
X122475000Y-115025000D01*
X122475000Y-112300000D02*
X122475000Y-109575000D01*
X127665000Y-115025000D02*
X127665000Y-116700000D01*
X127925000Y-115025000D02*
X127665000Y-115025000D01*
X127925000Y-109575000D02*
X127665000Y-109575000D01*
D11*
%TO.C,SW1*%
X88964824Y-87099780D02*
X88964824Y-87339780D01*
X99414824Y-85499780D02*
X94850000Y-85499780D01*
X99914824Y-81449780D02*
X99914824Y-81679780D01*
X98364824Y-81449780D02*
X99914824Y-81449780D01*
X90964824Y-81449780D02*
X96864824Y-81449780D01*
X88964824Y-84249780D02*
X88964824Y-83449780D01*
X99914824Y-84529780D02*
X99914824Y-84999780D01*
X90964824Y-81449780D02*
G75*
G03*
X88964824Y-83449780I-15J-1999985D01*
G01*
X94850000Y-85499780D02*
G75*
G03*
X92555678Y-87339780I-866J-2349332D01*
G01*
X99414824Y-85499780D02*
G75*
G03*
X99914824Y-84999780I-1J500001D01*
G01*
D10*
%TO.C,C4*%
X115469190Y-110821693D02*
X115621693Y-110669190D01*
X115978307Y-111330810D02*
X116130810Y-111178307D01*
%TO.C,D6*%
X115450000Y-78200000D02*
X119350000Y-78200000D01*
X115450000Y-80200000D02*
X115450000Y-78200000D01*
X115450000Y-80200000D02*
X119350000Y-80200000D01*
%TO.C,R5*%
X115020000Y-64846359D02*
X115020000Y-65153641D01*
X115780000Y-64846359D02*
X115780000Y-65153641D01*
%TO.C,C9*%
X115178307Y-110630810D02*
X115330810Y-110478307D01*
X114669190Y-110121693D02*
X114821693Y-109969190D01*
%TO.C,C2*%
X115630810Y-125578307D02*
X115478307Y-125730810D01*
X115121693Y-125069190D02*
X114969190Y-125221693D01*
%TO.C,C14*%
X119724664Y-74765000D02*
X119940336Y-74765000D01*
X119724664Y-75485000D02*
X119940336Y-75485000D01*
%TO.C,C13*%
X107707836Y-119560000D02*
X107492164Y-119560000D01*
X107707836Y-118840000D02*
X107492164Y-118840000D01*
%TO.C,R7*%
X118311250Y-73399891D02*
X118311250Y-73092609D01*
X117551250Y-73399891D02*
X117551250Y-73092609D01*
D11*
%TO.C,SW5*%
X137514824Y-85499780D02*
X132950000Y-85499780D01*
X127064824Y-84249780D02*
X127064824Y-83449780D01*
X127064824Y-87099780D02*
X127064824Y-87339780D01*
X136464824Y-81449780D02*
X138014824Y-81449780D01*
X129064824Y-81449780D02*
X134964824Y-81449780D01*
X138014824Y-84529780D02*
X138014824Y-84999780D01*
X138014824Y-81449780D02*
X138014824Y-81679780D01*
X137514824Y-85499780D02*
G75*
G03*
X138014824Y-84999780I-1J500001D01*
G01*
X129064824Y-81449780D02*
G75*
G03*
X127064824Y-83449780I-15J-1999985D01*
G01*
X132950000Y-85499780D02*
G75*
G03*
X130655678Y-87339780I-866J-2349332D01*
G01*
D10*
%TO.C,C5*%
X111840000Y-124092164D02*
X111840000Y-124307836D01*
X112560000Y-124092164D02*
X112560000Y-124307836D01*
%TO.C,D10*%
X117900000Y-100200000D02*
X117900000Y-104100000D01*
X119900000Y-100200000D02*
X119900000Y-104100000D01*
X117900000Y-100200000D02*
X119900000Y-100200000D01*
%TO.C,D1*%
X115465000Y-74985000D02*
X115465000Y-72700000D01*
X116935000Y-74985000D02*
X115465000Y-74985000D01*
X116935000Y-72700000D02*
X116935000Y-74985000D01*
%TO.C,R6*%
X127953641Y-117320000D02*
X127646359Y-117320000D01*
X127953641Y-118080000D02*
X127646359Y-118080000D01*
%TO.C,R2*%
X113780000Y-109046359D02*
X113780000Y-109353641D01*
X113020000Y-109046359D02*
X113020000Y-109353641D01*
%TO.C,JP1*%
X130600000Y-113900000D02*
X128600000Y-113900000D01*
X128600000Y-116700000D02*
X130600000Y-116700000D01*
X130600000Y-116700000D02*
X130600000Y-113900000D01*
X128600000Y-113900000D02*
X128600000Y-116700000D01*
%TO.C,C10*%
X109085000Y-112607836D02*
X109085000Y-112392164D01*
X109805000Y-112607836D02*
X109805000Y-112392164D01*
%TO.C,C7*%
X119492164Y-119560000D02*
X119707836Y-119560000D01*
X119492164Y-118840000D02*
X119707836Y-118840000D01*
%TO.C,C6*%
X110085000Y-112607836D02*
X110085000Y-112392164D01*
X110805000Y-112607836D02*
X110805000Y-112392164D01*
%TO.C,U1*%
X117060000Y-121810000D02*
X117710000Y-121810000D01*
X117710000Y-121810000D02*
X117710000Y-121160000D01*
X111140000Y-114590000D02*
X110490000Y-114590000D01*
X110490000Y-114590000D02*
X110490000Y-115240000D01*
X110490000Y-121810000D02*
X110490000Y-121160000D01*
X111140000Y-121810000D02*
X110490000Y-121810000D01*
X117060000Y-114590000D02*
X117710000Y-114590000D01*
%TO.C,F1*%
X118297936Y-69110000D02*
X119502064Y-69110000D01*
X118297936Y-67290000D02*
X119502064Y-67290000D01*
%TO.C,C11*%
X120684664Y-69802500D02*
X120900336Y-69802500D01*
X120684664Y-70522500D02*
X120900336Y-70522500D01*
%TD*%
%LPC*%
D12*
%TO.C,REF\u002A\u002A*%
X80500000Y-68400000D03*
%TD*%
D13*
%TO.C,SW7*%
X87000000Y-68900000D03*
X87000000Y-73900000D03*
D14*
X87000000Y-71400000D03*
D15*
X94500000Y-65800000D03*
X94500000Y-77000000D03*
D13*
X101500000Y-73900000D03*
X101500000Y-68900000D03*
%TD*%
%TO.C,SW6*%
X141100000Y-100200000D03*
X134600000Y-100200000D03*
X141100000Y-104700000D03*
X134600000Y-104700000D03*
%TD*%
D12*
%TO.C,REF\u002A\u002A*%
X147700000Y-68400000D03*
%TD*%
%TO.C,REF\u002A\u002A*%
X80500000Y-127400000D03*
%TD*%
%TO.C,REF\u002A\u002A*%
X147700000Y-127400000D03*
%TD*%
D13*
%TO.C,SW2*%
X115550000Y-100200000D03*
X122050000Y-100200000D03*
X122050000Y-104700000D03*
X115550000Y-104700000D03*
%TD*%
%TO.C,SW4*%
X131575000Y-100200000D03*
X125075000Y-100200000D03*
X125075000Y-104700000D03*
X131575000Y-104700000D03*
%TD*%
D16*
%TO.C,LED2*%
X116825000Y-94030000D03*
X116825000Y-92530000D03*
X111375000Y-94030000D03*
D17*
X111375000Y-92530000D03*
%TD*%
D18*
%TO.C,U2*%
X121262500Y-73600000D03*
X119362500Y-73600000D03*
X120312500Y-71725000D03*
%TD*%
D19*
%TO.C,D9*%
X135050000Y-79200000D03*
X138350000Y-79200000D03*
%TD*%
D20*
%TO.C,C15*%
X113706000Y-123720000D03*
X113706000Y-124680000D03*
%TD*%
D21*
%TO.C,R8*%
X89615000Y-94037500D03*
X90635000Y-94037500D03*
%TD*%
D22*
%TO.C,J1*%
X116990000Y-61200000D03*
X111210000Y-61200000D03*
D23*
X110850000Y-62645000D03*
X111650000Y-62645000D03*
D24*
X112850000Y-62645000D03*
X113850000Y-62645000D03*
X114350000Y-62645000D03*
X115350000Y-62645000D03*
D23*
X116550000Y-62645000D03*
X117350000Y-62645000D03*
X117350000Y-62645000D03*
X116550000Y-62645000D03*
D24*
X115850000Y-62645000D03*
X114850000Y-62645000D03*
X113350000Y-62645000D03*
X112350000Y-62645000D03*
D23*
X111650000Y-62645000D03*
X110850000Y-62645000D03*
D25*
X109780000Y-57550000D03*
D26*
X118420000Y-61730000D03*
X109780000Y-61730000D03*
D25*
X118420000Y-57550000D03*
%TD*%
D16*
%TO.C,LED3*%
X135875000Y-94030000D03*
X135875000Y-92530000D03*
X130425000Y-94030000D03*
D17*
X130425000Y-92530000D03*
%TD*%
D20*
%TO.C,C16*%
X128883000Y-108800000D03*
X128883000Y-109760000D03*
%TD*%
D27*
%TO.C,C1*%
X119339411Y-123560589D03*
X118660589Y-124239411D03*
%TD*%
D28*
%TO.C,U3*%
X112925000Y-69212500D03*
X112925000Y-68262500D03*
X112925000Y-67312500D03*
X115275000Y-67312500D03*
X115275000Y-68262500D03*
X115275000Y-69212500D03*
%TD*%
D29*
%TO.C,C3*%
X111500000Y-112980000D03*
X111500000Y-112020000D03*
%TD*%
D30*
%TO.C,R4*%
X112900000Y-65000000D03*
X111880000Y-65000000D03*
%TD*%
D31*
%TO.C,R1*%
X109300000Y-124710000D03*
X109300000Y-123690000D03*
%TD*%
D19*
%TO.C,D2*%
X100950000Y-79200000D03*
X97650000Y-79200000D03*
%TD*%
D32*
%TO.C,C17*%
X139600000Y-91350000D03*
X139600000Y-93250000D03*
%TD*%
D16*
%TO.C,LED1*%
X97775000Y-94030000D03*
X97775000Y-92530000D03*
X92325000Y-94030000D03*
D17*
X92325000Y-92530000D03*
%TD*%
D33*
%TO.C,D7*%
X128425000Y-100800000D03*
X128425000Y-104100000D03*
%TD*%
D29*
%TO.C,C12*%
X108600000Y-115580000D03*
X108600000Y-114620000D03*
%TD*%
D34*
%TO.C,Y1*%
X118778858Y-126623223D03*
X117223223Y-128178858D03*
X116021142Y-126976777D03*
X117576777Y-125421142D03*
%TD*%
D33*
%TO.C,D11*%
X104500000Y-77650000D03*
X104500000Y-74350000D03*
%TD*%
D35*
%TO.C,R3*%
X112400000Y-108690000D03*
X112400000Y-109710000D03*
%TD*%
D29*
%TO.C,C8*%
X118800000Y-115380000D03*
X118800000Y-114420000D03*
%TD*%
D33*
%TO.C,D3*%
X137962500Y-100800000D03*
X137962500Y-104100000D03*
%TD*%
D36*
%TO.C,SW3*%
X114100000Y-88200000D03*
D37*
X119180000Y-88200000D03*
X109020000Y-88200000D03*
D38*
X106740000Y-85660000D03*
D39*
X110290000Y-85660000D03*
D38*
X120190000Y-83120000D03*
D39*
X116640000Y-83120000D03*
%TD*%
D40*
%TO.C,U4*%
X127105000Y-115900000D03*
X125835000Y-115900000D03*
X124565000Y-115900000D03*
X123295000Y-115900000D03*
X123295000Y-108700000D03*
X124565000Y-108700000D03*
X125835000Y-108700000D03*
X127105000Y-108700000D03*
%TD*%
D36*
%TO.C,SW1*%
X95050000Y-88200000D03*
D37*
X100130000Y-88200000D03*
X89970000Y-88200000D03*
D38*
X87690000Y-85660000D03*
D39*
X91240000Y-85660000D03*
D38*
X101140000Y-83120000D03*
D39*
X97590000Y-83120000D03*
%TD*%
D41*
%TO.C,C4*%
X115460589Y-111339411D03*
X116139411Y-110660589D03*
%TD*%
D19*
%TO.C,D6*%
X116050000Y-79200000D03*
X119350000Y-79200000D03*
%TD*%
D35*
%TO.C,R5*%
X115400000Y-64490000D03*
X115400000Y-65510000D03*
%TD*%
D41*
%TO.C,C9*%
X114660589Y-110639411D03*
X115339411Y-109960589D03*
%TD*%
D27*
%TO.C,C2*%
X115639411Y-125060589D03*
X114960589Y-125739411D03*
%TD*%
D42*
%TO.C,C14*%
X119352500Y-75125000D03*
X120312500Y-75125000D03*
%TD*%
D43*
%TO.C,C13*%
X108080000Y-119200000D03*
X107120000Y-119200000D03*
%TD*%
D31*
%TO.C,R7*%
X117931250Y-73756250D03*
X117931250Y-72736250D03*
%TD*%
D37*
%TO.C,SW5*%
X128070000Y-88200000D03*
D36*
X133150000Y-88200000D03*
D37*
X138230000Y-88200000D03*
D38*
X125790000Y-85660000D03*
D39*
X129340000Y-85660000D03*
X135690000Y-83120000D03*
D38*
X139240000Y-83120000D03*
%TD*%
D20*
%TO.C,C5*%
X112200000Y-123720000D03*
X112200000Y-124680000D03*
%TD*%
D33*
%TO.C,D10*%
X118900000Y-100800000D03*
X118900000Y-104100000D03*
%TD*%
D44*
%TO.C,D1*%
X116200000Y-74287500D03*
X116200000Y-72712500D03*
%TD*%
D30*
%TO.C,R6*%
X128310000Y-117700000D03*
X127290000Y-117700000D03*
%TD*%
D35*
%TO.C,R2*%
X113400000Y-108690000D03*
X113400000Y-109710000D03*
%TD*%
D45*
%TO.C,JP1*%
X129600000Y-114650000D03*
X129600000Y-115950000D03*
%TD*%
D29*
%TO.C,C10*%
X109445000Y-112980000D03*
X109445000Y-112020000D03*
%TD*%
D42*
%TO.C,C7*%
X119120000Y-119200000D03*
X120080000Y-119200000D03*
%TD*%
D29*
%TO.C,C6*%
X110445000Y-112980000D03*
X110445000Y-112020000D03*
%TD*%
D46*
%TO.C,U1*%
X117537500Y-115600000D03*
X117537500Y-116000000D03*
X117537500Y-116400000D03*
X117537500Y-116800000D03*
X117537500Y-117200000D03*
X117537500Y-117600000D03*
X117537500Y-118000000D03*
X117537500Y-118400000D03*
X117537500Y-118800000D03*
X117537500Y-119200000D03*
X117537500Y-119600000D03*
X117537500Y-120000000D03*
X117537500Y-120400000D03*
X117537500Y-120800000D03*
D47*
X116700000Y-121637500D03*
X116300000Y-121637500D03*
X115900000Y-121637500D03*
X115500000Y-121637500D03*
X115100000Y-121637500D03*
X114700000Y-121637500D03*
X114300000Y-121637500D03*
X113900000Y-121637500D03*
X113500000Y-121637500D03*
X113100000Y-121637500D03*
X112700000Y-121637500D03*
X112300000Y-121637500D03*
X111900000Y-121637500D03*
X111500000Y-121637500D03*
D46*
X110662500Y-120800000D03*
X110662500Y-120400000D03*
X110662500Y-120000000D03*
X110662500Y-119600000D03*
X110662500Y-119200000D03*
X110662500Y-118800000D03*
X110662500Y-118400000D03*
X110662500Y-118000000D03*
X110662500Y-117600000D03*
X110662500Y-117200000D03*
X110662500Y-116800000D03*
X110662500Y-116400000D03*
X110662500Y-116000000D03*
X110662500Y-115600000D03*
D47*
X111500000Y-114762500D03*
X111900000Y-114762500D03*
X112300000Y-114762500D03*
X112700000Y-114762500D03*
X113100000Y-114762500D03*
X113500000Y-114762500D03*
X113900000Y-114762500D03*
X114300000Y-114762500D03*
X114700000Y-114762500D03*
X115100000Y-114762500D03*
X115500000Y-114762500D03*
X115900000Y-114762500D03*
X116300000Y-114762500D03*
X116700000Y-114762500D03*
D48*
X114100000Y-118200000D03*
%TD*%
D49*
%TO.C,F1*%
X117500000Y-68200000D03*
X120300000Y-68200000D03*
%TD*%
D42*
%TO.C,C11*%
X120312500Y-70162500D03*
X121272500Y-70162500D03*
%TD*%
M02*
