M48
; DRILL file {KiCad (6.0.9)} date Tue Dec  6 02:01:01 2022
; FORMAT={-:-/ absolute / inch / decimal}
; #@! TF.CreationDate,2022-12-06T02:01:01+08:00
; #@! TF.GenerationSoftware,Kicad,Pcbnew,(6.0.9)
; #@! TF.FileFunction,Plated,1,2,PTH
FMAT,2
INCH
; #@! TA.AperFunction,Plated,PTH,ComponentDrill
T1C0.0079
; #@! TA.AperFunction,Plated,PTH,ViaDrill
T2C0.0157
; #@! TA.AperFunction,Plated,PTH,ViaDrill
T3C0.0236
; #@! TA.AperFunction,Plated,PTH,ComponentDrill
T4C0.0236
; #@! TA.AperFunction,Plated,PTH,ComponentDrill
T5C0.0394
; #@! TA.AperFunction,Plated,PTH,ComponentDrill
T6C0.0433
; #@! TA.AperFunction,Plated,PTH,ComponentDrill
T7C0.0591
; #@! TA.AperFunction,Plated,PTH,ComponentDrill
T8C0.1181
%
G90
G05
T1
X4.439Y-4.6004
X4.439Y-4.7067
X4.5453Y-4.6004
X4.5453Y-4.7067
T2
X3.8504Y-3.9291
X4.0394Y-3.6417
X4.1102Y-3.1181
X4.1496Y-4.1772
X4.1732Y-3.6417
X4.3071Y-4.6929
X4.3425Y-3.1181
X4.3898Y-4.3622
X4.4488Y-3.8937
X4.5079Y-3.1181
X4.5157Y-4.4134
X4.5551Y-2.6142
X4.7717Y-3.6378
X4.9016Y-3.1181
X4.9173Y-4.0354
X4.9291Y-3.6378
X5.0787Y-3.2047
X5.0827Y-4.7087
X5.0827Y-4.752
X5.0827Y-4.7913
X5.1181Y-4.6339
X5.185Y-4.0315
X5.2402Y-4.0669
X5.2402Y-4.6614
X5.2638Y-4.7126
X5.2677Y-4.7913
X5.315Y-4.2569
X5.4488Y-4.4774
X5.4764Y-4.6339
T3
X3.5197Y-2.811
X3.5472Y-3.6417
X4.0354Y-3.7795
X4.1772Y-4.6929
X4.2165Y-4.4843
X4.2402Y-3.7795
X4.2992Y-2.5285
X4.2992Y-2.5728
X4.2992Y-3.6417
X4.2992Y-4.3661
X4.3031Y-4.9646
X4.3189Y-4.5118
X4.3386Y-4.2126
X4.3465Y-2.5276
X4.3465Y-2.5719
X4.3465Y-4.3661
X4.3701Y-4.8701
X4.3858Y-2.685
X4.4016Y-4.9567
X4.4882Y-4.9764
X4.5118Y-4.2087
X4.5591Y-4.2874
X4.5591Y-5.1024
X4.5866Y-4.8898
X4.6024Y-4.3189
X4.6299Y-2.5285
X4.6299Y-2.5728
X4.6339Y-4.5118
X4.6772Y-2.5276
X4.6772Y-2.5719
X4.7323Y-4.8307
X4.752Y-3.7795
X4.7612Y-4.6903
X4.7756Y-2.9961
X4.8071Y-4.563
X4.8268Y-2.7598
X4.8268Y-2.8976
X4.9724Y-3.7795
X5.0551Y-3.6417
X5.0787Y-4.378
X5.4921Y-3.7362
T5
X3.4252Y-2.7126
X3.4252Y-2.811
X3.4252Y-2.9094
X3.9961Y-2.7126
X3.9961Y-2.9094
T6
X4.5492Y-3.9449
X4.5492Y-4.122
X4.8051Y-3.9449
X4.8051Y-4.122
X4.9242Y-3.9449
X4.9242Y-4.122
X5.1801Y-3.9449
X5.1801Y-4.122
X5.2992Y-3.9449
X5.2992Y-4.122
X5.5551Y-3.9449
X5.5551Y-4.122
T8
X3.5921Y-3.3724
X3.8421Y-3.2724
X4.3421Y-3.3724
X4.5921Y-3.2724
X5.0921Y-3.3724
X5.3421Y-3.2724
T4
G00X4.322Y-2.2539
M15
G01X4.322Y-2.2776
M16
G05
G00X4.322Y-2.4087
M15
G01X4.322Y-2.452
M16
G05
G00X4.6622Y-2.2539
M15
G01X4.6622Y-2.2776
M16
G05
G00X4.6622Y-2.4087
M15
G01X4.6622Y-2.452
M16
G05
T7
G00X3.6949Y-2.5906
M15
G01X3.7461Y-2.5906
M16
G05
G00X3.6949Y-3.0315
M15
G01X3.7461Y-3.0315
M16
G05
T0
M30
