%TF.GenerationSoftware,KiCad,Pcbnew,(6.0.9)*%
%TF.CreationDate,2022-12-04T03:05:57+08:00*%
%TF.ProjectId,sharkpad rev2,73686172-6b70-4616-9420-726576322e6b,rev?*%
%TF.SameCoordinates,Original*%
%TF.FileFunction,Legend,Top*%
%TF.FilePolarity,Positive*%
%FSLAX46Y46*%
G04 Gerber Fmt 4.6, Leading zero omitted, Abs format (unit mm)*
G04 Created by KiCad (PCBNEW (6.0.9)) date 2022-12-04 03:05:57*
%MOMM*%
%LPD*%
G01*
G04 APERTURE LIST*
%ADD10C,0.120000*%
%ADD11R,1.700000X1.700000*%
%ADD12O,1.700000X1.700000*%
%ADD13C,3.200000*%
%ADD14C,2.000000*%
%ADD15C,0.650000*%
%ADD16O,1.000000X1.600000*%
%ADD17O,1.000000X2.100000*%
%ADD18C,3.987800*%
%ADD19C,1.750000*%
%ADD20C,3.300000*%
G04 APERTURE END LIST*
D10*
%TO.C,SW1*%
X100600000Y-70100000D02*
X100600000Y-72700000D01*
X88400000Y-65500000D02*
X88400000Y-77300000D01*
X100600000Y-77300000D02*
X96500000Y-77300000D01*
X89000000Y-71700000D02*
X88700000Y-71400000D01*
X96500000Y-65500000D02*
X100600000Y-65500000D01*
X89000000Y-71100000D02*
X89000000Y-71700000D01*
X88700000Y-71400000D02*
X89000000Y-71100000D01*
X92500000Y-65500000D02*
X88400000Y-65500000D01*
X100600000Y-74900000D02*
X100600000Y-77300000D01*
X100600000Y-65500000D02*
X100600000Y-67900000D01*
X92500000Y-77300000D02*
X88400000Y-77300000D01*
X96500000Y-71400000D02*
G75*
G03*
X96500000Y-71400000I-2000000J0D01*
G01*
%TO.C,SW2*%
X141350000Y-103200000D02*
X141350000Y-101700000D01*
X135600000Y-105700000D02*
X140100000Y-105700000D01*
X140100000Y-99200000D02*
X135600000Y-99200000D01*
X134350000Y-101700000D02*
X134350000Y-103200000D01*
%TO.C,SW4*%
X116550000Y-105700000D02*
X121050000Y-105700000D01*
X122300000Y-103200000D02*
X122300000Y-101700000D01*
X115300000Y-101700000D02*
X115300000Y-103200000D01*
X121050000Y-99200000D02*
X116550000Y-99200000D01*
%TO.C,SW3*%
X130575000Y-99200000D02*
X126075000Y-99200000D01*
X124825000Y-101700000D02*
X124825000Y-103200000D01*
X126075000Y-105700000D02*
X130575000Y-105700000D01*
X131825000Y-103200000D02*
X131825000Y-101700000D01*
%TD*%
%LPC*%
D11*
%TO.C,JP1*%
X148675000Y-115325000D03*
D12*
X146135000Y-115325000D03*
%TD*%
D13*
%TO.C,REF\u002A\u002A*%
X80500000Y-68400000D03*
%TD*%
D14*
%TO.C,SW2*%
X141100000Y-100200000D03*
X134600000Y-100200000D03*
X134600000Y-104700000D03*
X141100000Y-104700000D03*
%TD*%
D13*
%TO.C,REF\u002A\u002A*%
X147700000Y-68400000D03*
%TD*%
%TO.C,REF\u002A\u002A*%
X80500000Y-127400000D03*
%TD*%
%TO.C,REF\u002A\u002A*%
X147700000Y-127400000D03*
%TD*%
D14*
%TO.C,SW4*%
X115550000Y-100200000D03*
X122050000Y-100200000D03*
X115550000Y-104700000D03*
X122050000Y-104700000D03*
%TD*%
%TO.C,SW3*%
X125075000Y-100200000D03*
X131575000Y-100200000D03*
X131575000Y-104700000D03*
X125075000Y-104700000D03*
%TD*%
D15*
%TO.C,J1*%
X116990000Y-61200000D03*
X111210000Y-61200000D03*
D16*
X109780000Y-57550000D03*
D17*
X118420000Y-61730000D03*
X109780000Y-61730000D03*
D16*
X118420000Y-57550000D03*
%TD*%
D18*
%TO.C,SW6*%
X114100000Y-88200000D03*
D19*
X119180000Y-88200000D03*
X109020000Y-88200000D03*
D20*
X110290000Y-85660000D03*
X116640000Y-83120000D03*
%TD*%
D18*
%TO.C,SW7*%
X95050000Y-88200000D03*
D19*
X100130000Y-88200000D03*
X89970000Y-88200000D03*
D20*
X91240000Y-85660000D03*
X97590000Y-83120000D03*
%TD*%
D19*
%TO.C,SW5*%
X128070000Y-88200000D03*
D18*
X133150000Y-88200000D03*
D19*
X138230000Y-88200000D03*
D20*
X129340000Y-85660000D03*
X135690000Y-83120000D03*
%TD*%
M02*
