%TF.GenerationSoftware,KiCad,Pcbnew,(6.0.9)*%
%TF.CreationDate,2022-12-04T03:05:57+08:00*%
%TF.ProjectId,sharkpad rev2,73686172-6b70-4616-9420-726576322e6b,rev?*%
%TF.SameCoordinates,Original*%
%TF.FileFunction,Paste,Bot*%
%TF.FilePolarity,Positive*%
%FSLAX46Y46*%
G04 Gerber Fmt 4.6, Leading zero omitted, Abs format (unit mm)*
G04 Created by KiCad (PCBNEW (6.0.9)) date 2022-12-04 03:05:57*
%MOMM*%
%LPD*%
G01*
G04 APERTURE LIST*
G04 Aperture macros list*
%AMRoundRect*
0 Rectangle with rounded corners*
0 $1 Rounding radius*
0 $2 $3 $4 $5 $6 $7 $8 $9 X,Y pos of 4 corners*
0 Add a 4 corners polygon primitive as box body*
4,1,4,$2,$3,$4,$5,$6,$7,$8,$9,$2,$3,0*
0 Add four circle primitives for the rounded corners*
1,1,$1+$1,$2,$3*
1,1,$1+$1,$4,$5*
1,1,$1+$1,$6,$7*
1,1,$1+$1,$8,$9*
0 Add four rect primitives between the rounded corners*
20,1,$1+$1,$2,$3,$4,$5,0*
20,1,$1+$1,$4,$5,$6,$7,0*
20,1,$1+$1,$6,$7,$8,$9,0*
20,1,$1+$1,$8,$9,$2,$3,0*%
%AMRotRect*
0 Rectangle, with rotation*
0 The origin of the aperture is its center*
0 $1 length*
0 $2 width*
0 $3 Rotation angle, in degrees counterclockwise*
0 Add horizontal line*
21,1,$1,$2,0,0,$3*%
%AMFreePoly0*
4,1,18,-0.410000,0.593000,-0.403758,0.624380,-0.385983,0.650983,-0.359380,0.668758,-0.328000,0.675000,0.328000,0.675000,0.359380,0.668758,0.385983,0.650983,0.403758,0.624380,0.410000,0.593000,0.410000,-0.593000,0.403758,-0.624380,0.385983,-0.650983,0.359380,-0.668758,0.328000,-0.675000,0.000000,-0.675000,-0.410000,-0.265000,-0.410000,0.593000,-0.410000,0.593000,$1*%
%AMFreePoly1*
4,1,51,0.532497,0.614663,0.539892,0.609888,0.548602,0.608625,0.568241,0.591583,0.590088,0.577477,0.593731,0.569465,0.600379,0.563696,0.607700,0.538741,0.618462,0.515071,0.617199,0.506361,0.619677,0.497915,0.619677,-0.497915,0.614663,-0.532497,0.609888,-0.539892,0.608625,-0.548602,0.591583,-0.568241,0.577477,-0.590088,0.569465,-0.593731,0.563696,-0.600379,0.538741,-0.607700,
0.515071,-0.618462,0.506361,-0.617199,0.497915,-0.619677,-0.497915,-0.619677,-0.532497,-0.614663,-0.539892,-0.609888,-0.548602,-0.608625,-0.568241,-0.591583,-0.590088,-0.577477,-0.593731,-0.569465,-0.600379,-0.563696,-0.607700,-0.538741,-0.618462,-0.515071,-0.617199,-0.506361,-0.619677,-0.497915,-0.619677,0.397045,-0.616565,0.418508,-0.616882,0.422984,-0.615567,0.425391,-0.614663,0.431627,
-0.598395,0.456822,-0.584014,0.483144,-0.483144,0.584014,-0.465766,0.596991,-0.462826,0.600379,-0.460195,0.601151,-0.455145,0.604922,-0.425821,0.611235,-0.397045,0.619677,0.497915,0.619677,0.532497,0.614663,0.532497,0.614663,$1*%
%AMFreePoly2*
4,1,51,0.532497,0.614663,0.539892,0.609888,0.548602,0.608625,0.568241,0.591583,0.590088,0.577477,0.593731,0.569465,0.600379,0.563696,0.607700,0.538741,0.618462,0.515071,0.617199,0.506361,0.619677,0.497915,0.619677,-0.497915,0.614663,-0.532497,0.609888,-0.539892,0.608625,-0.548602,0.591583,-0.568241,0.577477,-0.590088,0.569465,-0.593731,0.563696,-0.600379,0.538741,-0.607700,
0.515071,-0.618462,0.506361,-0.617199,0.497915,-0.619677,-0.397045,-0.619677,-0.418508,-0.616565,-0.422984,-0.616882,-0.425391,-0.615567,-0.431627,-0.614663,-0.456822,-0.598395,-0.483144,-0.584014,-0.584014,-0.483144,-0.596989,-0.465768,-0.600379,-0.462826,-0.601151,-0.460193,-0.604921,-0.455145,-0.611233,-0.425827,-0.619677,-0.397045,-0.619677,0.497915,-0.614663,0.532497,-0.609888,0.539892,
-0.608625,0.548602,-0.591583,0.568241,-0.577477,0.590088,-0.569465,0.593731,-0.563696,0.600379,-0.538741,0.607700,-0.515071,0.618462,-0.506361,0.617199,-0.497915,0.619677,0.497915,0.619677,0.532497,0.614663,0.532497,0.614663,$1*%
%AMFreePoly3*
4,1,51,0.418508,0.616565,0.422984,0.616882,0.425391,0.615567,0.431627,0.614663,0.456822,0.598395,0.483144,0.584014,0.584014,0.483144,0.596991,0.465766,0.600379,0.462826,0.601151,0.460195,0.604922,0.455145,0.611235,0.425821,0.619677,0.397045,0.619677,-0.497915,0.614663,-0.532497,0.609888,-0.539892,0.608625,-0.548602,0.591583,-0.568241,0.577477,-0.590088,0.569465,-0.593731,
0.563696,-0.600379,0.538741,-0.607700,0.515071,-0.618462,0.506361,-0.617199,0.497915,-0.619677,-0.497915,-0.619677,-0.532497,-0.614663,-0.539892,-0.609888,-0.548602,-0.608625,-0.568241,-0.591583,-0.590088,-0.577477,-0.593731,-0.569465,-0.600379,-0.563696,-0.607700,-0.538741,-0.618462,-0.515071,-0.617199,-0.506361,-0.619677,-0.497915,-0.619677,0.497915,-0.614663,0.532497,-0.609888,0.539892,
-0.608625,0.548602,-0.591583,0.568241,-0.577477,0.590088,-0.569465,0.593731,-0.563696,0.600379,-0.538741,0.607700,-0.515071,0.618462,-0.506361,0.617199,-0.497915,0.619677,0.397045,0.619677,0.418508,0.616565,0.418508,0.616565,$1*%
%AMFreePoly4*
4,1,51,0.532497,0.614663,0.539892,0.609888,0.548602,0.608625,0.568241,0.591583,0.590088,0.577477,0.593731,0.569465,0.600379,0.563696,0.607700,0.538741,0.618462,0.515071,0.617199,0.506361,0.619677,0.497915,0.619677,-0.397045,0.616565,-0.418508,0.616882,-0.422984,0.615567,-0.425391,0.614663,-0.431627,0.598395,-0.456822,0.584014,-0.483144,0.483144,-0.584014,0.465768,-0.596989,
0.462826,-0.600379,0.460193,-0.601151,0.455145,-0.604921,0.425827,-0.611233,0.397045,-0.619677,-0.497915,-0.619677,-0.532497,-0.614663,-0.539892,-0.609888,-0.548602,-0.608625,-0.568241,-0.591583,-0.590088,-0.577477,-0.593731,-0.569465,-0.600379,-0.563696,-0.607700,-0.538741,-0.618462,-0.515071,-0.617199,-0.506361,-0.619677,-0.497915,-0.619677,0.497915,-0.614663,0.532497,-0.609888,0.539892,
-0.608625,0.548602,-0.591583,0.568241,-0.577477,0.590088,-0.569465,0.593731,-0.563696,0.600379,-0.538741,0.607700,-0.515071,0.618462,-0.506361,0.617199,-0.497915,0.619677,0.497915,0.619677,0.532497,0.614663,0.532497,0.614663,$1*%
G04 Aperture macros list end*
%ADD10RoundRect,0.082000X-0.593000X0.328000X-0.593000X-0.328000X0.593000X-0.328000X0.593000X0.328000X0*%
%ADD11FreePoly0,270.000000*%
%ADD12RoundRect,0.150000X0.150000X-0.587500X0.150000X0.587500X-0.150000X0.587500X-0.150000X-0.587500X0*%
%ADD13R,0.900000X1.200000*%
%ADD14RoundRect,0.140000X-0.170000X0.140000X-0.170000X-0.140000X0.170000X-0.140000X0.170000X0.140000X0*%
%ADD15RoundRect,0.135000X-0.135000X-0.185000X0.135000X-0.185000X0.135000X0.185000X-0.135000X0.185000X0*%
%ADD16R,0.600000X1.450000*%
%ADD17R,0.300000X1.450000*%
%ADD18RoundRect,0.140000X-0.021213X0.219203X-0.219203X0.021213X0.021213X-0.219203X0.219203X-0.021213X0*%
%ADD19RoundRect,0.150000X-0.475000X-0.150000X0.475000X-0.150000X0.475000X0.150000X-0.475000X0.150000X0*%
%ADD20RoundRect,0.140000X0.170000X-0.140000X0.170000X0.140000X-0.170000X0.140000X-0.170000X-0.140000X0*%
%ADD21RoundRect,0.135000X0.135000X0.185000X-0.135000X0.185000X-0.135000X-0.185000X0.135000X-0.185000X0*%
%ADD22RoundRect,0.135000X0.185000X-0.135000X0.185000X0.135000X-0.185000X0.135000X-0.185000X-0.135000X0*%
%ADD23RoundRect,0.250000X-0.475000X0.250000X-0.475000X-0.250000X0.475000X-0.250000X0.475000X0.250000X0*%
%ADD24R,1.200000X0.900000*%
%ADD25RotRect,1.400000X1.200000X225.000000*%
%ADD26RoundRect,0.135000X-0.185000X0.135000X-0.185000X-0.135000X0.185000X-0.135000X0.185000X0.135000X0*%
%ADD27RoundRect,0.250000X1.025000X1.000000X-1.025000X1.000000X-1.025000X-1.000000X1.025000X-1.000000X0*%
%ADD28RoundRect,0.150000X0.150000X-0.650000X0.150000X0.650000X-0.150000X0.650000X-0.150000X-0.650000X0*%
%ADD29RoundRect,0.140000X0.021213X-0.219203X0.219203X-0.021213X-0.021213X0.219203X-0.219203X0.021213X0*%
%ADD30RoundRect,0.140000X-0.140000X-0.170000X0.140000X-0.170000X0.140000X0.170000X-0.140000X0.170000X0*%
%ADD31RoundRect,0.140000X0.140000X0.170000X-0.140000X0.170000X-0.140000X-0.170000X0.140000X-0.170000X0*%
%ADD32FreePoly1,180.000000*%
%ADD33FreePoly2,180.000000*%
%ADD34FreePoly3,180.000000*%
%ADD35FreePoly4,180.000000*%
%ADD36RoundRect,0.050000X0.387500X0.050000X-0.387500X0.050000X-0.387500X-0.050000X0.387500X-0.050000X0*%
%ADD37RoundRect,0.050000X0.050000X0.387500X-0.050000X0.387500X-0.050000X-0.387500X0.050000X-0.387500X0*%
%ADD38RoundRect,0.250000X-0.375000X-0.625000X0.375000X-0.625000X0.375000X0.625000X-0.375000X0.625000X0*%
G04 APERTURE END LIST*
D10*
%TO.C,LED2*%
X116825000Y-94030000D03*
X116825000Y-92530000D03*
X111375000Y-94030000D03*
D11*
X111375000Y-92530000D03*
%TD*%
D12*
%TO.C,U1*%
X121262500Y-73600000D03*
X119362500Y-73600000D03*
X120312500Y-71725000D03*
%TD*%
D13*
%TO.C,D1*%
X135050000Y-79200000D03*
X138350000Y-79200000D03*
%TD*%
D14*
%TO.C,C16*%
X113706000Y-123720000D03*
X113706000Y-124680000D03*
%TD*%
D15*
%TO.C,R7*%
X89615000Y-94037500D03*
X90635000Y-94037500D03*
%TD*%
D16*
%TO.C,J1*%
X110850000Y-62645000D03*
X111650000Y-62645000D03*
D17*
X112850000Y-62645000D03*
X113850000Y-62645000D03*
X114350000Y-62645000D03*
X115350000Y-62645000D03*
D16*
X116550000Y-62645000D03*
X117350000Y-62645000D03*
X117350000Y-62645000D03*
X116550000Y-62645000D03*
D17*
X115850000Y-62645000D03*
X114850000Y-62645000D03*
X113350000Y-62645000D03*
X112350000Y-62645000D03*
D16*
X111650000Y-62645000D03*
X110850000Y-62645000D03*
%TD*%
D10*
%TO.C,LED1*%
X135875000Y-94030000D03*
X135875000Y-92530000D03*
X130425000Y-94030000D03*
D11*
X130425000Y-92530000D03*
%TD*%
D14*
%TO.C,C3*%
X128883000Y-108800000D03*
X128883000Y-109760000D03*
%TD*%
D18*
%TO.C,C7*%
X119339411Y-123560589D03*
X118660589Y-124239411D03*
%TD*%
D19*
%TO.C,U3*%
X112925000Y-69212500D03*
X112925000Y-68262500D03*
X112925000Y-67312500D03*
X115275000Y-67312500D03*
X115275000Y-68262500D03*
X115275000Y-69212500D03*
%TD*%
D20*
%TO.C,C11*%
X111500000Y-112980000D03*
X111500000Y-112020000D03*
%TD*%
D21*
%TO.C,R4*%
X112900000Y-65000000D03*
X111880000Y-65000000D03*
%TD*%
D22*
%TO.C,R8*%
X109300000Y-124710000D03*
X109300000Y-123690000D03*
%TD*%
D13*
%TO.C,D7*%
X100950000Y-79200000D03*
X97650000Y-79200000D03*
%TD*%
D23*
%TO.C,C5*%
X139600000Y-91350000D03*
X139600000Y-93250000D03*
%TD*%
D10*
%TO.C,LED3*%
X97775000Y-94030000D03*
X97775000Y-92530000D03*
X92325000Y-94030000D03*
D11*
X92325000Y-92530000D03*
%TD*%
D24*
%TO.C,D4*%
X128425000Y-100800000D03*
X128425000Y-104100000D03*
%TD*%
D20*
%TO.C,C15*%
X108600000Y-115580000D03*
X108600000Y-114620000D03*
%TD*%
D25*
%TO.C,Y1*%
X118778858Y-126623223D03*
X117223223Y-128178858D03*
X116021142Y-126976777D03*
X117576777Y-125421142D03*
%TD*%
D24*
%TO.C,D8*%
X104500000Y-77650000D03*
X104500000Y-74350000D03*
%TD*%
D26*
%TO.C,R5*%
X112400000Y-108690000D03*
X112400000Y-109710000D03*
%TD*%
D20*
%TO.C,C9*%
X118800000Y-115380000D03*
X118800000Y-114420000D03*
%TD*%
D24*
%TO.C,D5*%
X137962500Y-100800000D03*
X137962500Y-104100000D03*
%TD*%
D27*
%TO.C,SW6*%
X106740000Y-85660000D03*
X120190000Y-83120000D03*
%TD*%
D28*
%TO.C,U2*%
X127105000Y-115900000D03*
X125835000Y-115900000D03*
X124565000Y-115900000D03*
X123295000Y-115900000D03*
X123295000Y-108700000D03*
X124565000Y-108700000D03*
X125835000Y-108700000D03*
X127105000Y-108700000D03*
%TD*%
D27*
%TO.C,SW7*%
X87690000Y-85660000D03*
X101140000Y-83120000D03*
%TD*%
D29*
%TO.C,C6*%
X115460589Y-111339411D03*
X116139411Y-110660589D03*
%TD*%
D13*
%TO.C,D2*%
X116050000Y-79200000D03*
X119350000Y-79200000D03*
%TD*%
D26*
%TO.C,R2*%
X115400000Y-64490000D03*
X115400000Y-65510000D03*
%TD*%
D29*
%TO.C,C4*%
X114660589Y-110639411D03*
X115339411Y-109960589D03*
%TD*%
D18*
%TO.C,C8*%
X115639411Y-125060589D03*
X114960589Y-125739411D03*
%TD*%
D30*
%TO.C,C1*%
X119352500Y-75125000D03*
X120312500Y-75125000D03*
%TD*%
D31*
%TO.C,C17*%
X108080000Y-119200000D03*
X107120000Y-119200000D03*
%TD*%
D27*
%TO.C,SW5*%
X125790000Y-85660000D03*
X139240000Y-83120000D03*
%TD*%
D14*
%TO.C,C14*%
X112200000Y-123720000D03*
X112200000Y-124680000D03*
%TD*%
D24*
%TO.C,D6*%
X118900000Y-100800000D03*
X118900000Y-104100000D03*
%TD*%
D21*
%TO.C,R3*%
X128310000Y-117700000D03*
X127290000Y-117700000D03*
%TD*%
D26*
%TO.C,R6*%
X113400000Y-108690000D03*
X113400000Y-109710000D03*
%TD*%
D20*
%TO.C,C13*%
X109445000Y-112980000D03*
X109445000Y-112020000D03*
%TD*%
D30*
%TO.C,C10*%
X119120000Y-119200000D03*
X120080000Y-119200000D03*
%TD*%
D20*
%TO.C,C12*%
X110445000Y-112980000D03*
X110445000Y-112020000D03*
%TD*%
D32*
%TO.C,U4*%
X114775000Y-118875000D03*
D33*
X114775000Y-117525000D03*
D34*
X113425000Y-118875000D03*
D35*
X113425000Y-117525000D03*
D36*
X117537500Y-115600000D03*
X117537500Y-116000000D03*
X117537500Y-116400000D03*
X117537500Y-116800000D03*
X117537500Y-117200000D03*
X117537500Y-117600000D03*
X117537500Y-118000000D03*
X117537500Y-118400000D03*
X117537500Y-118800000D03*
X117537500Y-119200000D03*
X117537500Y-119600000D03*
X117537500Y-120000000D03*
X117537500Y-120400000D03*
X117537500Y-120800000D03*
D37*
X116700000Y-121637500D03*
X116300000Y-121637500D03*
X115900000Y-121637500D03*
X115500000Y-121637500D03*
X115100000Y-121637500D03*
X114700000Y-121637500D03*
X114300000Y-121637500D03*
X113900000Y-121637500D03*
X113500000Y-121637500D03*
X113100000Y-121637500D03*
X112700000Y-121637500D03*
X112300000Y-121637500D03*
X111900000Y-121637500D03*
X111500000Y-121637500D03*
D36*
X110662500Y-120800000D03*
X110662500Y-120400000D03*
X110662500Y-120000000D03*
X110662500Y-119600000D03*
X110662500Y-119200000D03*
X110662500Y-118800000D03*
X110662500Y-118400000D03*
X110662500Y-118000000D03*
X110662500Y-117600000D03*
X110662500Y-117200000D03*
X110662500Y-116800000D03*
X110662500Y-116400000D03*
X110662500Y-116000000D03*
X110662500Y-115600000D03*
D37*
X111500000Y-114762500D03*
X111900000Y-114762500D03*
X112300000Y-114762500D03*
X112700000Y-114762500D03*
X113100000Y-114762500D03*
X113500000Y-114762500D03*
X113900000Y-114762500D03*
X114300000Y-114762500D03*
X114700000Y-114762500D03*
X115100000Y-114762500D03*
X115500000Y-114762500D03*
X115900000Y-114762500D03*
X116300000Y-114762500D03*
X116700000Y-114762500D03*
%TD*%
D38*
%TO.C,F1*%
X117500000Y-68200000D03*
X120300000Y-68200000D03*
%TD*%
D30*
%TO.C,C2*%
X120312500Y-70162500D03*
X121272500Y-70162500D03*
%TD*%
M02*
