%TF.GenerationSoftware,KiCad,Pcbnew,(6.0.9)*%
%TF.CreationDate,2022-12-06T02:01:01+08:00*%
%TF.ProjectId,sharkpad rev2,73686172-6b70-4616-9420-726576322e6b,rev?*%
%TF.SameCoordinates,Original*%
%TF.FileFunction,Other,Comment*%
%FSLAX46Y46*%
G04 Gerber Fmt 4.6, Leading zero omitted, Abs format (unit mm)*
G04 Created by KiCad (PCBNEW (6.0.9)) date 2022-12-06 02:01:01*
%MOMM*%
%LPD*%
G01*
G04 APERTURE LIST*
%ADD10C,0.030000*%
%ADD11C,0.150000*%
%ADD12C,0.120000*%
G04 APERTURE END LIST*
D10*
%TO.C,JP1*%
X148790476Y-110739285D02*
X148590476Y-110739285D01*
X148790476Y-110625000D02*
X148676190Y-110710714D01*
X148590476Y-110625000D02*
X148704761Y-110739285D01*
X148685714Y-110539285D02*
X148685714Y-110472619D01*
X148790476Y-110444047D02*
X148790476Y-110539285D01*
X148590476Y-110539285D01*
X148590476Y-110444047D01*
X148685714Y-110358333D02*
X148685714Y-110291666D01*
X148790476Y-110263095D02*
X148790476Y-110358333D01*
X148590476Y-110358333D01*
X148590476Y-110263095D01*
X148790476Y-110177380D02*
X148590476Y-110177380D01*
X148590476Y-110101190D01*
X148600000Y-110082142D01*
X148609523Y-110072619D01*
X148628571Y-110063095D01*
X148657142Y-110063095D01*
X148676190Y-110072619D01*
X148685714Y-110082142D01*
X148695238Y-110101190D01*
X148695238Y-110177380D01*
X148714285Y-109977380D02*
X148714285Y-109825000D01*
X148590476Y-109691666D02*
X148590476Y-109653571D01*
X148600000Y-109634523D01*
X148619047Y-109615476D01*
X148657142Y-109605952D01*
X148723809Y-109605952D01*
X148761904Y-109615476D01*
X148780952Y-109634523D01*
X148790476Y-109653571D01*
X148790476Y-109691666D01*
X148780952Y-109710714D01*
X148761904Y-109729761D01*
X148723809Y-109739285D01*
X148657142Y-109739285D01*
X148619047Y-109729761D01*
X148600000Y-109710714D01*
X148590476Y-109691666D01*
X148590476Y-109520238D02*
X148752380Y-109520238D01*
X148771428Y-109510714D01*
X148780952Y-109501190D01*
X148790476Y-109482142D01*
X148790476Y-109444047D01*
X148780952Y-109425000D01*
X148771428Y-109415476D01*
X148752380Y-109405952D01*
X148590476Y-109405952D01*
X148590476Y-109339285D02*
X148590476Y-109225000D01*
X148790476Y-109282142D02*
X148590476Y-109282142D01*
X148590476Y-109025000D02*
X148590476Y-108891666D01*
X148790476Y-109025000D01*
X148790476Y-108891666D01*
X148590476Y-108777380D02*
X148590476Y-108739285D01*
X148600000Y-108720238D01*
X148619047Y-108701190D01*
X148657142Y-108691666D01*
X148723809Y-108691666D01*
X148761904Y-108701190D01*
X148780952Y-108720238D01*
X148790476Y-108739285D01*
X148790476Y-108777380D01*
X148780952Y-108796428D01*
X148761904Y-108815476D01*
X148723809Y-108825000D01*
X148657142Y-108825000D01*
X148619047Y-108815476D01*
X148600000Y-108796428D01*
X148590476Y-108777380D01*
X148790476Y-108605952D02*
X148590476Y-108605952D01*
X148790476Y-108491666D01*
X148590476Y-108491666D01*
X148685714Y-108396428D02*
X148685714Y-108329761D01*
X148790476Y-108301190D02*
X148790476Y-108396428D01*
X148590476Y-108396428D01*
X148590476Y-108301190D01*
X148790476Y-115739285D02*
X148590476Y-115739285D01*
X148790476Y-115625000D02*
X148676190Y-115710714D01*
X148590476Y-115625000D02*
X148704761Y-115739285D01*
X148685714Y-115539285D02*
X148685714Y-115472619D01*
X148790476Y-115444047D02*
X148790476Y-115539285D01*
X148590476Y-115539285D01*
X148590476Y-115444047D01*
X148685714Y-115358333D02*
X148685714Y-115291666D01*
X148790476Y-115263095D02*
X148790476Y-115358333D01*
X148590476Y-115358333D01*
X148590476Y-115263095D01*
X148790476Y-115177380D02*
X148590476Y-115177380D01*
X148590476Y-115101190D01*
X148600000Y-115082142D01*
X148609523Y-115072619D01*
X148628571Y-115063095D01*
X148657142Y-115063095D01*
X148676190Y-115072619D01*
X148685714Y-115082142D01*
X148695238Y-115101190D01*
X148695238Y-115177380D01*
X148714285Y-114977380D02*
X148714285Y-114825000D01*
X148590476Y-114691666D02*
X148590476Y-114653571D01*
X148600000Y-114634523D01*
X148619047Y-114615476D01*
X148657142Y-114605952D01*
X148723809Y-114605952D01*
X148761904Y-114615476D01*
X148780952Y-114634523D01*
X148790476Y-114653571D01*
X148790476Y-114691666D01*
X148780952Y-114710714D01*
X148761904Y-114729761D01*
X148723809Y-114739285D01*
X148657142Y-114739285D01*
X148619047Y-114729761D01*
X148600000Y-114710714D01*
X148590476Y-114691666D01*
X148590476Y-114520238D02*
X148752380Y-114520238D01*
X148771428Y-114510714D01*
X148780952Y-114501190D01*
X148790476Y-114482142D01*
X148790476Y-114444047D01*
X148780952Y-114425000D01*
X148771428Y-114415476D01*
X148752380Y-114405952D01*
X148590476Y-114405952D01*
X148590476Y-114339285D02*
X148590476Y-114225000D01*
X148790476Y-114282142D02*
X148590476Y-114282142D01*
X148590476Y-114025000D02*
X148590476Y-113891666D01*
X148790476Y-114025000D01*
X148790476Y-113891666D01*
X148590476Y-113777380D02*
X148590476Y-113739285D01*
X148600000Y-113720238D01*
X148619047Y-113701190D01*
X148657142Y-113691666D01*
X148723809Y-113691666D01*
X148761904Y-113701190D01*
X148780952Y-113720238D01*
X148790476Y-113739285D01*
X148790476Y-113777380D01*
X148780952Y-113796428D01*
X148761904Y-113815476D01*
X148723809Y-113825000D01*
X148657142Y-113825000D01*
X148619047Y-113815476D01*
X148600000Y-113796428D01*
X148590476Y-113777380D01*
X148790476Y-113605952D02*
X148590476Y-113605952D01*
X148790476Y-113491666D01*
X148590476Y-113491666D01*
X148685714Y-113396428D02*
X148685714Y-113329761D01*
X148790476Y-113301190D02*
X148790476Y-113396428D01*
X148590476Y-113396428D01*
X148590476Y-113301190D01*
X148390476Y-115605952D02*
X148190476Y-115605952D01*
X148390476Y-115491666D01*
X148190476Y-115491666D01*
X148390476Y-115367857D02*
X148380952Y-115386904D01*
X148371428Y-115396428D01*
X148352380Y-115405952D01*
X148295238Y-115405952D01*
X148276190Y-115396428D01*
X148266666Y-115386904D01*
X148257142Y-115367857D01*
X148257142Y-115339285D01*
X148266666Y-115320238D01*
X148276190Y-115310714D01*
X148295238Y-115301190D01*
X148352380Y-115301190D01*
X148371428Y-115310714D01*
X148380952Y-115320238D01*
X148390476Y-115339285D01*
X148390476Y-115367857D01*
X148285714Y-114996428D02*
X148285714Y-115063095D01*
X148390476Y-115063095D02*
X148190476Y-115063095D01*
X148190476Y-114967857D01*
X148371428Y-114891666D02*
X148380952Y-114882142D01*
X148390476Y-114891666D01*
X148380952Y-114901190D01*
X148371428Y-114891666D01*
X148390476Y-114891666D01*
X148371428Y-114682142D02*
X148380952Y-114691666D01*
X148390476Y-114720238D01*
X148390476Y-114739285D01*
X148380952Y-114767857D01*
X148361904Y-114786904D01*
X148342857Y-114796428D01*
X148304761Y-114805952D01*
X148276190Y-114805952D01*
X148238095Y-114796428D01*
X148219047Y-114786904D01*
X148200000Y-114767857D01*
X148190476Y-114739285D01*
X148190476Y-114720238D01*
X148200000Y-114691666D01*
X148209523Y-114682142D01*
X148257142Y-114510714D02*
X148390476Y-114510714D01*
X148257142Y-114596428D02*
X148361904Y-114596428D01*
X148380952Y-114586904D01*
X148390476Y-114567857D01*
X148390476Y-114539285D01*
X148380952Y-114520238D01*
X148371428Y-114510714D01*
X148257142Y-114291666D02*
X148257142Y-114215476D01*
X148190476Y-114263095D02*
X148361904Y-114263095D01*
X148380952Y-114253571D01*
X148390476Y-114234523D01*
X148390476Y-114215476D01*
X148390476Y-114148809D02*
X148257142Y-114148809D01*
X148295238Y-114148809D02*
X148276190Y-114139285D01*
X148266666Y-114129761D01*
X148257142Y-114110714D01*
X148257142Y-114091666D01*
X148390476Y-113939285D02*
X148285714Y-113939285D01*
X148266666Y-113948809D01*
X148257142Y-113967857D01*
X148257142Y-114005952D01*
X148266666Y-114025000D01*
X148380952Y-113939285D02*
X148390476Y-113958333D01*
X148390476Y-114005952D01*
X148380952Y-114025000D01*
X148361904Y-114034523D01*
X148342857Y-114034523D01*
X148323809Y-114025000D01*
X148314285Y-114005952D01*
X148314285Y-113958333D01*
X148304761Y-113939285D01*
X148380952Y-113758333D02*
X148390476Y-113777380D01*
X148390476Y-113815476D01*
X148380952Y-113834523D01*
X148371428Y-113844047D01*
X148352380Y-113853571D01*
X148295238Y-113853571D01*
X148276190Y-113844047D01*
X148266666Y-113834523D01*
X148257142Y-113815476D01*
X148257142Y-113777380D01*
X148266666Y-113758333D01*
X148390476Y-113672619D02*
X148190476Y-113672619D01*
X148314285Y-113653571D02*
X148390476Y-113596428D01*
X148257142Y-113596428D02*
X148333333Y-113672619D01*
X148380952Y-113520238D02*
X148390476Y-113501190D01*
X148390476Y-113463095D01*
X148380952Y-113444047D01*
X148361904Y-113434523D01*
X148352380Y-113434523D01*
X148333333Y-113444047D01*
X148323809Y-113463095D01*
X148323809Y-113491666D01*
X148314285Y-113510714D01*
X148295238Y-113520238D01*
X148285714Y-113520238D01*
X148266666Y-113510714D01*
X148257142Y-113491666D01*
X148257142Y-113463095D01*
X148266666Y-113444047D01*
X148390476Y-110605952D02*
X148190476Y-110605952D01*
X148390476Y-110491666D01*
X148190476Y-110491666D01*
X148390476Y-110367857D02*
X148380952Y-110386904D01*
X148371428Y-110396428D01*
X148352380Y-110405952D01*
X148295238Y-110405952D01*
X148276190Y-110396428D01*
X148266666Y-110386904D01*
X148257142Y-110367857D01*
X148257142Y-110339285D01*
X148266666Y-110320238D01*
X148276190Y-110310714D01*
X148295238Y-110301190D01*
X148352380Y-110301190D01*
X148371428Y-110310714D01*
X148380952Y-110320238D01*
X148390476Y-110339285D01*
X148390476Y-110367857D01*
X148285714Y-109996428D02*
X148285714Y-110063095D01*
X148390476Y-110063095D02*
X148190476Y-110063095D01*
X148190476Y-109967857D01*
X148371428Y-109891666D02*
X148380952Y-109882142D01*
X148390476Y-109891666D01*
X148380952Y-109901190D01*
X148371428Y-109891666D01*
X148390476Y-109891666D01*
X148371428Y-109682142D02*
X148380952Y-109691666D01*
X148390476Y-109720238D01*
X148390476Y-109739285D01*
X148380952Y-109767857D01*
X148361904Y-109786904D01*
X148342857Y-109796428D01*
X148304761Y-109805952D01*
X148276190Y-109805952D01*
X148238095Y-109796428D01*
X148219047Y-109786904D01*
X148200000Y-109767857D01*
X148190476Y-109739285D01*
X148190476Y-109720238D01*
X148200000Y-109691666D01*
X148209523Y-109682142D01*
X148257142Y-109510714D02*
X148390476Y-109510714D01*
X148257142Y-109596428D02*
X148361904Y-109596428D01*
X148380952Y-109586904D01*
X148390476Y-109567857D01*
X148390476Y-109539285D01*
X148380952Y-109520238D01*
X148371428Y-109510714D01*
X148257142Y-109291666D02*
X148257142Y-109215476D01*
X148190476Y-109263095D02*
X148361904Y-109263095D01*
X148380952Y-109253571D01*
X148390476Y-109234523D01*
X148390476Y-109215476D01*
X148390476Y-109148809D02*
X148257142Y-109148809D01*
X148295238Y-109148809D02*
X148276190Y-109139285D01*
X148266666Y-109129761D01*
X148257142Y-109110714D01*
X148257142Y-109091666D01*
X148390476Y-108939285D02*
X148285714Y-108939285D01*
X148266666Y-108948809D01*
X148257142Y-108967857D01*
X148257142Y-109005952D01*
X148266666Y-109025000D01*
X148380952Y-108939285D02*
X148390476Y-108958333D01*
X148390476Y-109005952D01*
X148380952Y-109025000D01*
X148361904Y-109034523D01*
X148342857Y-109034523D01*
X148323809Y-109025000D01*
X148314285Y-109005952D01*
X148314285Y-108958333D01*
X148304761Y-108939285D01*
X148380952Y-108758333D02*
X148390476Y-108777380D01*
X148390476Y-108815476D01*
X148380952Y-108834523D01*
X148371428Y-108844047D01*
X148352380Y-108853571D01*
X148295238Y-108853571D01*
X148276190Y-108844047D01*
X148266666Y-108834523D01*
X148257142Y-108815476D01*
X148257142Y-108777380D01*
X148266666Y-108758333D01*
X148390476Y-108672619D02*
X148190476Y-108672619D01*
X148314285Y-108653571D02*
X148390476Y-108596428D01*
X148257142Y-108596428D02*
X148333333Y-108672619D01*
X148380952Y-108520238D02*
X148390476Y-108501190D01*
X148390476Y-108463095D01*
X148380952Y-108444047D01*
X148361904Y-108434523D01*
X148352380Y-108434523D01*
X148333333Y-108444047D01*
X148323809Y-108463095D01*
X148323809Y-108491666D01*
X148314285Y-108510714D01*
X148295238Y-108520238D01*
X148285714Y-108520238D01*
X148266666Y-108510714D01*
X148257142Y-108491666D01*
X148257142Y-108463095D01*
X148266666Y-108444047D01*
D11*
%TO.C,LED2*%
X109242857Y-87434761D02*
X109338095Y-87482380D01*
X109528571Y-87482380D01*
X109623809Y-87434761D01*
X109671428Y-87339523D01*
X109671428Y-87291904D01*
X109623809Y-87196666D01*
X109528571Y-87149047D01*
X109385714Y-87149047D01*
X109290476Y-87101428D01*
X109242857Y-87006190D01*
X109242857Y-86958571D01*
X109290476Y-86863333D01*
X109385714Y-86815714D01*
X109528571Y-86815714D01*
X109623809Y-86863333D01*
X110004761Y-86815714D02*
X110195238Y-87482380D01*
X110385714Y-87006190D01*
X110576190Y-87482380D01*
X110766666Y-86815714D01*
X111147619Y-87482380D02*
X111147619Y-86815714D01*
X111147619Y-86482380D02*
X111100000Y-86530000D01*
X111147619Y-86577619D01*
X111195238Y-86530000D01*
X111147619Y-86482380D01*
X111147619Y-86577619D01*
X111480952Y-86815714D02*
X111861904Y-86815714D01*
X111623809Y-86482380D02*
X111623809Y-87339523D01*
X111671428Y-87434761D01*
X111766666Y-87482380D01*
X111861904Y-87482380D01*
X112623809Y-87434761D02*
X112528571Y-87482380D01*
X112338095Y-87482380D01*
X112242857Y-87434761D01*
X112195238Y-87387142D01*
X112147619Y-87291904D01*
X112147619Y-87006190D01*
X112195238Y-86910952D01*
X112242857Y-86863333D01*
X112338095Y-86815714D01*
X112528571Y-86815714D01*
X112623809Y-86863333D01*
X113052380Y-87482380D02*
X113052380Y-86482380D01*
X113480952Y-87482380D02*
X113480952Y-86958571D01*
X113433333Y-86863333D01*
X113338095Y-86815714D01*
X113195238Y-86815714D01*
X113100000Y-86863333D01*
X113052380Y-86910952D01*
X115147619Y-87434761D02*
X115052380Y-87482380D01*
X114861904Y-87482380D01*
X114766666Y-87434761D01*
X114719047Y-87387142D01*
X114671428Y-87291904D01*
X114671428Y-87006190D01*
X114719047Y-86910952D01*
X114766666Y-86863333D01*
X114861904Y-86815714D01*
X115052380Y-86815714D01*
X115147619Y-86863333D01*
X115957142Y-87434761D02*
X115861904Y-87482380D01*
X115671428Y-87482380D01*
X115576190Y-87434761D01*
X115528571Y-87339523D01*
X115528571Y-86958571D01*
X115576190Y-86863333D01*
X115671428Y-86815714D01*
X115861904Y-86815714D01*
X115957142Y-86863333D01*
X116004761Y-86958571D01*
X116004761Y-87053809D01*
X115528571Y-87149047D01*
X116433333Y-86815714D02*
X116433333Y-87482380D01*
X116433333Y-86910952D02*
X116480952Y-86863333D01*
X116576190Y-86815714D01*
X116719047Y-86815714D01*
X116814285Y-86863333D01*
X116861904Y-86958571D01*
X116861904Y-87482380D01*
X117195238Y-86815714D02*
X117576190Y-86815714D01*
X117338095Y-86482380D02*
X117338095Y-87339523D01*
X117385714Y-87434761D01*
X117480952Y-87482380D01*
X117576190Y-87482380D01*
X118290476Y-87434761D02*
X118195238Y-87482380D01*
X118004761Y-87482380D01*
X117909523Y-87434761D01*
X117861904Y-87339523D01*
X117861904Y-86958571D01*
X117909523Y-86863333D01*
X118004761Y-86815714D01*
X118195238Y-86815714D01*
X118290476Y-86863333D01*
X118338095Y-86958571D01*
X118338095Y-87053809D01*
X117861904Y-87149047D01*
X118766666Y-87482380D02*
X118766666Y-86815714D01*
X118766666Y-87006190D02*
X118814285Y-86910952D01*
X118861904Y-86863333D01*
X118957142Y-86815714D01*
X119052380Y-86815714D01*
%TO.C,LED1*%
X128292857Y-87434761D02*
X128388095Y-87482380D01*
X128578571Y-87482380D01*
X128673809Y-87434761D01*
X128721428Y-87339523D01*
X128721428Y-87291904D01*
X128673809Y-87196666D01*
X128578571Y-87149047D01*
X128435714Y-87149047D01*
X128340476Y-87101428D01*
X128292857Y-87006190D01*
X128292857Y-86958571D01*
X128340476Y-86863333D01*
X128435714Y-86815714D01*
X128578571Y-86815714D01*
X128673809Y-86863333D01*
X129054761Y-86815714D02*
X129245238Y-87482380D01*
X129435714Y-87006190D01*
X129626190Y-87482380D01*
X129816666Y-86815714D01*
X130197619Y-87482380D02*
X130197619Y-86815714D01*
X130197619Y-86482380D02*
X130150000Y-86530000D01*
X130197619Y-86577619D01*
X130245238Y-86530000D01*
X130197619Y-86482380D01*
X130197619Y-86577619D01*
X130530952Y-86815714D02*
X130911904Y-86815714D01*
X130673809Y-86482380D02*
X130673809Y-87339523D01*
X130721428Y-87434761D01*
X130816666Y-87482380D01*
X130911904Y-87482380D01*
X131673809Y-87434761D02*
X131578571Y-87482380D01*
X131388095Y-87482380D01*
X131292857Y-87434761D01*
X131245238Y-87387142D01*
X131197619Y-87291904D01*
X131197619Y-87006190D01*
X131245238Y-86910952D01*
X131292857Y-86863333D01*
X131388095Y-86815714D01*
X131578571Y-86815714D01*
X131673809Y-86863333D01*
X132102380Y-87482380D02*
X132102380Y-86482380D01*
X132530952Y-87482380D02*
X132530952Y-86958571D01*
X132483333Y-86863333D01*
X132388095Y-86815714D01*
X132245238Y-86815714D01*
X132150000Y-86863333D01*
X132102380Y-86910952D01*
X134197619Y-87434761D02*
X134102380Y-87482380D01*
X133911904Y-87482380D01*
X133816666Y-87434761D01*
X133769047Y-87387142D01*
X133721428Y-87291904D01*
X133721428Y-87006190D01*
X133769047Y-86910952D01*
X133816666Y-86863333D01*
X133911904Y-86815714D01*
X134102380Y-86815714D01*
X134197619Y-86863333D01*
X135007142Y-87434761D02*
X134911904Y-87482380D01*
X134721428Y-87482380D01*
X134626190Y-87434761D01*
X134578571Y-87339523D01*
X134578571Y-86958571D01*
X134626190Y-86863333D01*
X134721428Y-86815714D01*
X134911904Y-86815714D01*
X135007142Y-86863333D01*
X135054761Y-86958571D01*
X135054761Y-87053809D01*
X134578571Y-87149047D01*
X135483333Y-86815714D02*
X135483333Y-87482380D01*
X135483333Y-86910952D02*
X135530952Y-86863333D01*
X135626190Y-86815714D01*
X135769047Y-86815714D01*
X135864285Y-86863333D01*
X135911904Y-86958571D01*
X135911904Y-87482380D01*
X136245238Y-86815714D02*
X136626190Y-86815714D01*
X136388095Y-86482380D02*
X136388095Y-87339523D01*
X136435714Y-87434761D01*
X136530952Y-87482380D01*
X136626190Y-87482380D01*
X137340476Y-87434761D02*
X137245238Y-87482380D01*
X137054761Y-87482380D01*
X136959523Y-87434761D01*
X136911904Y-87339523D01*
X136911904Y-86958571D01*
X136959523Y-86863333D01*
X137054761Y-86815714D01*
X137245238Y-86815714D01*
X137340476Y-86863333D01*
X137388095Y-86958571D01*
X137388095Y-87053809D01*
X136911904Y-87149047D01*
X137816666Y-87482380D02*
X137816666Y-86815714D01*
X137816666Y-87006190D02*
X137864285Y-86910952D01*
X137911904Y-86863333D01*
X138007142Y-86815714D01*
X138102380Y-86815714D01*
%TO.C,LED3*%
X90192857Y-87434761D02*
X90288095Y-87482380D01*
X90478571Y-87482380D01*
X90573809Y-87434761D01*
X90621428Y-87339523D01*
X90621428Y-87291904D01*
X90573809Y-87196666D01*
X90478571Y-87149047D01*
X90335714Y-87149047D01*
X90240476Y-87101428D01*
X90192857Y-87006190D01*
X90192857Y-86958571D01*
X90240476Y-86863333D01*
X90335714Y-86815714D01*
X90478571Y-86815714D01*
X90573809Y-86863333D01*
X90954761Y-86815714D02*
X91145238Y-87482380D01*
X91335714Y-87006190D01*
X91526190Y-87482380D01*
X91716666Y-86815714D01*
X92097619Y-87482380D02*
X92097619Y-86815714D01*
X92097619Y-86482380D02*
X92050000Y-86530000D01*
X92097619Y-86577619D01*
X92145238Y-86530000D01*
X92097619Y-86482380D01*
X92097619Y-86577619D01*
X92430952Y-86815714D02*
X92811904Y-86815714D01*
X92573809Y-86482380D02*
X92573809Y-87339523D01*
X92621428Y-87434761D01*
X92716666Y-87482380D01*
X92811904Y-87482380D01*
X93573809Y-87434761D02*
X93478571Y-87482380D01*
X93288095Y-87482380D01*
X93192857Y-87434761D01*
X93145238Y-87387142D01*
X93097619Y-87291904D01*
X93097619Y-87006190D01*
X93145238Y-86910952D01*
X93192857Y-86863333D01*
X93288095Y-86815714D01*
X93478571Y-86815714D01*
X93573809Y-86863333D01*
X94002380Y-87482380D02*
X94002380Y-86482380D01*
X94430952Y-87482380D02*
X94430952Y-86958571D01*
X94383333Y-86863333D01*
X94288095Y-86815714D01*
X94145238Y-86815714D01*
X94050000Y-86863333D01*
X94002380Y-86910952D01*
X96097619Y-87434761D02*
X96002380Y-87482380D01*
X95811904Y-87482380D01*
X95716666Y-87434761D01*
X95669047Y-87387142D01*
X95621428Y-87291904D01*
X95621428Y-87006190D01*
X95669047Y-86910952D01*
X95716666Y-86863333D01*
X95811904Y-86815714D01*
X96002380Y-86815714D01*
X96097619Y-86863333D01*
X96907142Y-87434761D02*
X96811904Y-87482380D01*
X96621428Y-87482380D01*
X96526190Y-87434761D01*
X96478571Y-87339523D01*
X96478571Y-86958571D01*
X96526190Y-86863333D01*
X96621428Y-86815714D01*
X96811904Y-86815714D01*
X96907142Y-86863333D01*
X96954761Y-86958571D01*
X96954761Y-87053809D01*
X96478571Y-87149047D01*
X97383333Y-86815714D02*
X97383333Y-87482380D01*
X97383333Y-86910952D02*
X97430952Y-86863333D01*
X97526190Y-86815714D01*
X97669047Y-86815714D01*
X97764285Y-86863333D01*
X97811904Y-86958571D01*
X97811904Y-87482380D01*
X98145238Y-86815714D02*
X98526190Y-86815714D01*
X98288095Y-86482380D02*
X98288095Y-87339523D01*
X98335714Y-87434761D01*
X98430952Y-87482380D01*
X98526190Y-87482380D01*
X99240476Y-87434761D02*
X99145238Y-87482380D01*
X98954761Y-87482380D01*
X98859523Y-87434761D01*
X98811904Y-87339523D01*
X98811904Y-86958571D01*
X98859523Y-86863333D01*
X98954761Y-86815714D01*
X99145238Y-86815714D01*
X99240476Y-86863333D01*
X99288095Y-86958571D01*
X99288095Y-87053809D01*
X98811904Y-87149047D01*
X99716666Y-87482380D02*
X99716666Y-86815714D01*
X99716666Y-87006190D02*
X99764285Y-86910952D01*
X99811904Y-86863333D01*
X99907142Y-86815714D01*
X100002380Y-86815714D01*
%TO.C,REF\u002A\u002A*%
X83700000Y-68400000D02*
G75*
G03*
X83700000Y-68400000I-3200000J0D01*
G01*
X150900000Y-68400000D02*
G75*
G03*
X150900000Y-68400000I-3200000J0D01*
G01*
X83700000Y-127400000D02*
G75*
G03*
X83700000Y-127400000I-3200000J0D01*
G01*
X150900000Y-127400000D02*
G75*
G03*
X150900000Y-127400000I-3200000J0D01*
G01*
D12*
%TO.C,LED2*%
X113850000Y-88450000D02*
X114100000Y-88200000D01*
X114100000Y-88200000D02*
X113850000Y-87950000D01*
X114350000Y-88450000D02*
X114100000Y-88200000D01*
X114100000Y-88200000D02*
X114350000Y-87950000D01*
%TO.C,LED1*%
X133400000Y-88450000D02*
X133150000Y-88200000D01*
X133150000Y-88200000D02*
X133400000Y-87950000D01*
X133150000Y-88200000D02*
X132900000Y-87950000D01*
X132900000Y-88450000D02*
X133150000Y-88200000D01*
%TO.C,LED3*%
X95050000Y-88200000D02*
X95300000Y-87950000D01*
X94800000Y-88450000D02*
X95050000Y-88200000D01*
X95300000Y-88450000D02*
X95050000Y-88200000D01*
X95050000Y-88200000D02*
X94800000Y-87950000D01*
%TD*%
M02*
