%TF.GenerationSoftware,KiCad,Pcbnew,(6.0.9)*%
%TF.CreationDate,2022-12-06T02:01:01+08:00*%
%TF.ProjectId,sharkpad rev2,73686172-6b70-4616-9420-726576322e6b,rev?*%
%TF.SameCoordinates,Original*%
%TF.FileFunction,Profile,NP*%
%FSLAX46Y46*%
G04 Gerber Fmt 4.6, Leading zero omitted, Abs format (unit mm)*
G04 Created by KiCad (PCBNEW (6.0.9)) date 2022-12-06 02:01:01*
%MOMM*%
%LPD*%
G01*
G04 APERTURE LIST*
%TA.AperFunction,Profile*%
%ADD10C,0.038100*%
%TD*%
%TA.AperFunction,Profile*%
%ADD11C,0.100000*%
%TD*%
G04 APERTURE END LIST*
D10*
X76000000Y-61900000D02*
X106200000Y-61900000D01*
X120000000Y-59900000D02*
X120000000Y-56900000D01*
X76000000Y-61900000D02*
G75*
G03*
X74000000Y-63900000I0J-2000000D01*
G01*
X111860000Y-55900000D02*
X109200000Y-55900000D01*
X106200000Y-61900000D02*
G75*
G03*
X108200000Y-59900000I0J2000000D01*
G01*
X120000000Y-59900000D02*
G75*
G03*
X122000000Y-61900000I2000000J0D01*
G01*
X76000000Y-133900000D02*
X152200000Y-133900000D01*
X120000000Y-56900000D02*
G75*
G03*
X119000000Y-55900000I-1000000J0D01*
G01*
X154200000Y-131900000D02*
X154200000Y-63900000D01*
X152200000Y-133900000D02*
G75*
G03*
X154200000Y-131900000I0J2000000D01*
G01*
X108200000Y-59900000D02*
X108200000Y-56900000D01*
X109200000Y-55900000D02*
G75*
G03*
X108200000Y-56900000I0J-1000000D01*
G01*
X74000000Y-63900000D02*
X74000000Y-131900000D01*
X152200000Y-61900000D02*
X122000000Y-61900000D01*
X154200000Y-63900000D02*
G75*
G03*
X152200000Y-61900000I-2000000J0D01*
G01*
X111860000Y-55900000D02*
X119000000Y-55900000D01*
X74000000Y-131900000D02*
G75*
G03*
X76000000Y-133900000I2000000J0D01*
G01*
D11*
%TO.C,LED2*%
X115799999Y-92577159D02*
X115799999Y-93982843D01*
X114894452Y-94780000D02*
X113305547Y-94780000D01*
X113305548Y-91780001D02*
X114894452Y-91780001D01*
X112400001Y-93982843D02*
X112400001Y-92577159D01*
X113053289Y-91711702D02*
G75*
G03*
X113305548Y-91780001I252261J431712D01*
G01*
X115799999Y-93982843D02*
G75*
G03*
X115849484Y-94199721I499990J-2D01*
G01*
X114894452Y-91780001D02*
G75*
G03*
X115146710Y-91711702I-3J500009D01*
G01*
X112350517Y-94199722D02*
G75*
G03*
X112400001Y-93982844I-450937J216972D01*
G01*
X115849484Y-92360281D02*
G75*
G03*
X115799999Y-92577158I450505J-216876D01*
G01*
X113053291Y-91711699D02*
G75*
G03*
X112350516Y-92360282I-252261J-431701D01*
G01*
X112400012Y-92577159D02*
G75*
G03*
X112350516Y-92360281I-500512J-141D01*
G01*
X115146711Y-94848300D02*
G75*
G03*
X114894453Y-94780001I-252261J-431710D01*
G01*
X112350516Y-94199721D02*
G75*
G03*
X113053289Y-94848299I450514J-216879D01*
G01*
X113305547Y-94780000D02*
G75*
G03*
X113053289Y-94848299I3J-500010D01*
G01*
X115146711Y-94848300D02*
G75*
G03*
X115849484Y-94199721I252258J431701D01*
G01*
X115849484Y-92360281D02*
G75*
G03*
X115146711Y-91711704I-450515J216877D01*
G01*
%TO.C,LED1*%
X134849999Y-92577159D02*
X134849999Y-93982843D01*
X133944452Y-94780000D02*
X132355547Y-94780000D01*
X132355548Y-91780001D02*
X133944452Y-91780001D01*
X131450001Y-93982843D02*
X131450001Y-92577159D01*
X132103291Y-91711699D02*
G75*
G03*
X131400516Y-92360282I-252261J-431701D01*
G01*
X131400517Y-94199722D02*
G75*
G03*
X131450001Y-93982844I-450937J216972D01*
G01*
X131450012Y-92577159D02*
G75*
G03*
X131400516Y-92360281I-500512J-141D01*
G01*
X134196711Y-94848300D02*
G75*
G03*
X133944453Y-94780001I-252261J-431710D01*
G01*
X133944452Y-91780001D02*
G75*
G03*
X134196710Y-91711702I-3J500009D01*
G01*
X134196711Y-94848300D02*
G75*
G03*
X134899484Y-94199721I252258J431701D01*
G01*
X134899484Y-92360281D02*
G75*
G03*
X134849999Y-92577158I450505J-216876D01*
G01*
X134849999Y-93982843D02*
G75*
G03*
X134899484Y-94199721I499990J-2D01*
G01*
X132103289Y-91711702D02*
G75*
G03*
X132355548Y-91780001I252261J431712D01*
G01*
X131400516Y-94199721D02*
G75*
G03*
X132103289Y-94848299I450514J-216879D01*
G01*
X134899484Y-92360281D02*
G75*
G03*
X134196711Y-91711704I-450515J216877D01*
G01*
X132355547Y-94780000D02*
G75*
G03*
X132103289Y-94848299I3J-500010D01*
G01*
%TO.C,LED3*%
X93350001Y-93982843D02*
X93350001Y-92577159D01*
X94255548Y-91780001D02*
X95844452Y-91780001D01*
X95844452Y-94780000D02*
X94255547Y-94780000D01*
X96749999Y-92577159D02*
X96749999Y-93982843D01*
X96096711Y-94848300D02*
G75*
G03*
X96799484Y-94199721I252258J431701D01*
G01*
X93300516Y-94199721D02*
G75*
G03*
X94003289Y-94848299I450514J-216879D01*
G01*
X94255547Y-94780000D02*
G75*
G03*
X94003289Y-94848299I3J-500010D01*
G01*
X96799484Y-92360281D02*
G75*
G03*
X96096711Y-91711704I-450515J216877D01*
G01*
X95844452Y-91780001D02*
G75*
G03*
X96096710Y-91711702I-3J500009D01*
G01*
X93350012Y-92577159D02*
G75*
G03*
X93300516Y-92360281I-500512J-141D01*
G01*
X96749999Y-93982843D02*
G75*
G03*
X96799484Y-94199721I499990J-2D01*
G01*
X94003291Y-91711699D02*
G75*
G03*
X93300516Y-92360282I-252261J-431701D01*
G01*
X94003289Y-91711702D02*
G75*
G03*
X94255548Y-91780001I252261J431712D01*
G01*
X96096711Y-94848300D02*
G75*
G03*
X95844453Y-94780001I-252261J-431710D01*
G01*
X93300517Y-94199722D02*
G75*
G03*
X93350001Y-93982844I-450937J216972D01*
G01*
X96799484Y-92360281D02*
G75*
G03*
X96749999Y-92577158I450505J-216876D01*
G01*
%TD*%
M02*
